<?xml version="1.0" standalone="no"?>
<!DOCTYPE svg PUBLIC "-//W3C//DTD SVG 20010904//EN"
 "http://www.w3.org/TR/2001/REC-SVG-20010904/DTD/svg10.dtd">
<svg version="1.0" xmlns="http://www.w3.org/2000/svg"
 width="1132.000000pt" height="1132.000000pt" viewBox="0 0 1132.000000 1132.000000"
 preserveAspectRatio="xMidYMid meet">
<metadata>
Created by potrace 1.16, written by Peter Selinger 2001-2019
</metadata>
<g transform="translate(0.000000,1132.000000) scale(0.100000,-0.100000)"
fill="#000000" stroke="none">
<path d="M5270 11256 c0 -62 -2 -67 -26 -76 -14 -6 -54 -10 -90 -10 -35 0 -64
-3 -64 -7 0 -5 -14 -8 -30 -9 -17 -1 -30 3 -30 7 0 5 -11 9 -25 9 -21 0 -25
-5 -25 -30 0 -20 -5 -30 -15 -30 -21 0 -20 -54 2 -75 13 -13 14 -18 3 -25 -8
-5 -10 -17 -6 -34 4 -15 2 -26 -3 -26 -6 0 -11 -21 -13 -47 l-3 -48 -77 -3
-77 -3 -3 -77 -3 -77 -87 -3 c-78 -2 -88 -5 -88 -22 0 -10 6 -21 13 -23 6 -3
2 -6 -10 -6 -18 -1 -23 5 -23 24 0 24 -3 25 -59 25 -33 0 -63 -5 -66 -10 -4
-7 -12 -7 -25 0 -10 5 -66 10 -124 10 -133 0 -146 9 -146 100 l0 59 -123 0
c-120 0 -174 10 -189 34 -4 7 -8 33 -8 60 0 43 -2 47 -24 47 -14 0 -28 5 -31
10 -4 6 -55 10 -121 10 -95 0 -114 -2 -114 -15 0 -11 -7 -14 -25 -9 -25 6 -25
5 -25 -55 0 -57 -2 -62 -26 -71 -14 -6 -81 -10 -150 -10 -117 0 -124 -1 -124
-20 0 -11 -4 -20 -10 -20 -5 0 -10 -26 -12 -57 l-3 -58 -77 -3 -77 -3 0 -229
c0 -127 -3 -235 -6 -240 -3 -6 -38 -10 -77 -10 l-70 0 6 -34 c4 -20 2 -37 -4
-41 -5 -3 -10 -42 -10 -86 0 -68 -2 -79 -17 -79 -14 0 -15 -2 -4 -9 11 -7 11
-9 0 -14 -10 -4 -10 -6 -1 -6 18 -1 15 -29 -5 -40 -10 -5 -15 -13 -10 -17 9
-10 48 26 41 38 -3 5 2 16 12 24 11 9 14 13 8 10 -7 -3 -11 23 -13 79 -1 58 2
85 10 85 7 0 10 15 7 40 l-4 40 38 0 c30 0 37 -4 41 -22 l4 -23 2 23 c1 16 7
22 25 22 28 0 36 16 36 71 0 21 5 39 10 39 7 0 7 7 0 21 -7 12 -9 38 -5 62 3
23 6 49 7 57 0 8 5 21 11 28 7 9 5 18 -7 30 -12 14 -16 38 -16 95 l0 77 79 0
c66 0 80 3 85 18 3 9 9 23 12 31 4 9 2 11 -5 7 -7 -5 -11 5 -11 29 0 28 3 36
14 32 8 -3 16 -2 18 3 2 5 13 7 26 4 17 -5 21 -11 17 -28 -5 -18 -4 -18 5 -4
16 25 2 48 -31 48 -16 0 -29 4 -29 10 0 14 173 10 183 -4 6 -8 10 -7 14 2 2 6
17 12 31 12 66 0 72 7 72 78 0 51 3 63 12 54 14 -14 108 -16 108 -2 0 6 -4 10
-10 10 -5 0 -10 5 -10 10 0 6 33 10 80 10 47 0 80 -4 80 -10 0 -5 14 -10 30
-10 l30 0 0 -64 0 -63 38 -7 c20 -3 62 -6 92 -6 44 0 58 -4 68 -20 7 -11 22
-20 35 -19 21 1 19 2 -23 15 -13 5 -13 6 0 14 20 13 110 13 110 0 0 -5 -9 -10
-20 -10 -11 0 -20 -4 -20 -10 0 -5 8 -10 18 -10 15 0 19 -8 20 -36 2 -57 11
-74 43 -81 16 -3 29 -9 29 -13 0 -3 7 -7 15 -7 8 0 12 4 9 9 -3 4 0 8 5 8 6 0
11 -4 11 -10 0 -5 8 -10 18 -10 14 0 15 2 2 10 -10 7 7 10 58 10 41 0 72 -4
72 -10 0 -5 -22 -10 -50 -10 -55 0 -58 -3 -33 -28 12 -12 18 -13 21 -4 2 6 17
12 33 12 16 0 29 5 29 10 0 6 14 10 30 10 17 0 30 5 30 10 0 6 23 10 50 10 47
0 66 -12 38 -23 -10 -4 -9 -8 2 -16 31 -23 58 -23 80 -1 12 12 15 20 8 19 -24
-3 -38 1 -38 11 0 6 37 10 90 10 l90 0 0 66 c0 55 3 65 15 60 11 -4 15 1 15
17 0 18 2 19 10 7 6 -10 10 -11 10 -2 0 8 19 12 61 12 34 0 58 4 55 9 -4 5 0
12 6 14 9 4 9 8 3 14 -15 12 -19 63 -4 63 7 0 9 10 6 30 -5 22 -3 30 8 30 10
0 15 10 15 30 0 17 -4 30 -10 30 -5 0 -10 -6 -10 -12 0 -20 -20 14 -20 35 0
11 8 17 25 17 13 0 28 6 32 14 4 7 18 18 30 25 17 9 25 8 37 -5 19 -18 19 -20
5 -46 -8 -15 -8 -19 0 -14 6 4 11 2 11 -3 0 -21 16 -11 17 11 1 11 8 25 15 29
9 6 6 9 -9 9 -16 0 -23 6 -23 20 0 16 7 20 35 20 19 0 35 -5 35 -11 0 -6 5 -7
13 -2 6 4 17 8 22 8 6 0 25 4 43 9 35 8 36 13 32 101 -3 74 -10 68 -10 -9z"/>
<path d="M5922 11282 c-2 -35 -7 -45 -27 -54 -25 -11 -34 -28 -15 -28 6 0 10
4 10 9 0 5 7 11 15 15 12 4 13 2 6 -13 -11 -19 -1 -32 46 -58 27 -15 45 -17
23 -3 -11 7 -6 10 22 10 20 0 39 -6 41 -12 4 -10 6 -10 6 0 1 14 61 17 61 2 0
-5 -7 -10 -15 -10 -10 0 -15 -10 -15 -30 0 -25 4 -30 25 -30 29 0 88 51 67 58
-19 6 -14 22 8 22 22 0 27 -19 9 -37 -8 -8 -8 -16 0 -30 10 -17 10 -16 11 5 0
15 6 22 20 22 19 0 20 -6 19 -82 -1 -46 -4 -77 -6 -70 -8 20 -22 14 -16 -8 3
-11 9 -20 14 -20 5 0 9 -20 9 -43 0 -50 25 -83 50 -67 8 5 36 10 63 10 l47 0
0 -54 c0 -33 -5 -58 -12 -62 -7 -4 -10 -3 -5 1 8 10 -21 45 -37 45 -6 0 -3 -5
7 -11 9 -5 17 -15 17 -22 1 -25 47 -57 84 -57 22 0 35 -4 31 -10 -9 -14 8 -13
23 2 9 9 13 7 18 -5 3 -9 21 -19 40 -23 19 -3 34 -10 34 -15 0 -12 37 -12 45
0 3 5 -2 16 -10 24 -23 23 -19 27 31 27 41 0 45 -2 39 -20 -4 -11 -2 -20 4
-20 6 0 11 9 11 20 0 17 7 20 40 20 22 0 40 -4 40 -10 0 -5 6 -10 14 -10 8 0
16 -6 19 -12 2 -7 8 -9 13 -5 5 4 2 12 -6 17 -23 14 5 21 73 18 48 -3 57 0 55
13 -4 20 20 49 39 49 8 0 11 4 8 10 -3 6 1 7 9 4 13 -5 16 2 16 40 l0 47 75
-2 c72 -2 75 -1 105 31 21 22 30 27 30 16 0 -9 8 -16 18 -15 10 0 12 3 5 6
-15 6 -17 43 -3 43 6 0 10 9 10 20 0 11 -4 20 -10 20 -5 0 -10 9 -10 20 0 19
7 20 110 20 67 0 110 -4 110 -10 0 -5 9 -10 20 -10 11 0 20 5 20 10 0 6 46 10
119 10 110 0 119 -1 124 -20 4 -15 0 -20 -14 -20 -10 0 -19 -4 -19 -10 0 -5
11 -10 25 -10 14 0 25 -4 25 -10 0 -5 9 -10 20 -10 11 0 20 5 20 10 0 6 5 10
10 10 6 0 10 -21 10 -46 0 -42 -1 -45 -22 -39 -17 6 -20 4 -12 -4 6 -7 22 -13
35 -15 13 -1 32 -6 42 -11 11 -4 23 -3 30 4 12 12 57 15 57 4 -1 -5 -7 -19
-15 -33 -18 -32 -18 -37 0 -37 9 0 14 6 11 13 -3 8 -1 16 4 19 6 4 10 15 10
26 0 10 5 19 10 19 15 0 13 -97 -2 -103 -10 -4 -10 -6 0 -6 7 -1 10 -6 7 -11
-16 -26 18 -40 91 -40 l73 0 0 -85 c0 -49 -4 -83 -9 -80 -5 3 -4 -8 1 -25 6
-17 9 -37 5 -45 -3 -8 2 -27 10 -42 l16 -28 -7 40 c-4 22 -6 93 -6 157 l2 118
-61 0 c-92 0 -100 7 -100 90 l0 69 -77 3 -78 3 -3 48 c-3 47 -4 48 -35 45 -27
-3 -32 1 -40 29 l-10 33 -258 -1 c-251 0 -259 0 -259 -19 0 -16 -7 -20 -30
-20 -20 0 -30 -5 -30 -15 0 -8 6 -15 13 -15 9 0 9 -2 0 -8 -6 -4 -13 -23 -15
-42 l-3 -35 -77 -3 -78 -3 0 -39 c0 -39 -1 -40 -35 -40 -30 0 -35 -4 -41 -27
-3 -16 -7 -34 -10 -40 -2 -9 -24 -13 -63 -13 -38 0 -61 -4 -64 -12 -4 -10 -6
-10 -6 0 -1 9 -28 12 -100 12 -94 0 -99 -1 -105 -22 l-6 -23 -15 23 c-14 19
-25 22 -76 22 -91 0 -99 7 -99 90 l0 70 -74 0 c-58 0 -75 3 -80 16 -3 9 -6 81
-6 160 l0 144 -50 0 c-46 0 -50 -2 -50 -23 0 -25 -17 -47 -37 -47 -7 0 -13 7
-13 15 0 8 5 15 10 15 6 0 10 9 10 20 0 18 -7 20 -78 20 -101 0 -110 7 -115
90 -2 43 -4 50 -5 22z"/>
<path d="M5548 11255 c-3 -3 -33 -13 -66 -20 -33 -8 -82 -25 -109 -39 -26 -14
-66 -34 -89 -46 -59 -30 -163 -134 -215 -215 -25 -38 -53 -76 -62 -84 -9 -7
-17 -16 -17 -20 0 -3 -31 -38 -69 -78 -159 -165 -347 -234 -521 -188 -93 24
-236 97 -295 150 -61 55 -84 66 -205 101 -122 35 -236 41 -339 19 -101 -22
-188 -54 -195 -71 -3 -8 -12 -14 -20 -14 -8 0 -46 -30 -84 -67 -100 -98 -154
-215 -192 -418 -16 -85 -51 -193 -71 -219 -9 -12 -23 -37 -32 -57 -23 -55
-162 -191 -227 -221 -131 -60 -130 -60 -246 -55 -71 2 -145 12 -214 29 -154
38 -291 26 -450 -39 -90 -37 -130 -64 -210 -143 -77 -76 -89 -94 -118 -167
-18 -45 -32 -95 -32 -110 0 -15 -5 -62 -11 -103 -10 -68 -9 -87 15 -201 77
-373 -12 -625 -268 -759 -17 -9 -40 -21 -51 -27 -38 -20 -94 -34 -200 -48
-116 -15 -207 -53 -304 -126 -28 -22 -55 -39 -59 -39 -23 0 -157 -181 -174
-233 -53 -169 -54 -290 -2 -430 8 -23 21 -61 27 -84 7 -25 32 -62 62 -95 27
-29 55 -64 63 -78 39 -68 66 -128 95 -208 26 -75 31 -100 31 -182 -1 -111 -24
-179 -99 -291 -57 -84 -172 -181 -283 -238 -65 -33 -195 -196 -237 -296 -25
-61 -62 -176 -69 -215 -9 -55 9 -150 43 -226 18 -38 35 -74 39 -80 4 -6 28
-42 53 -81 50 -74 134 -151 241 -218 134 -83 247 -213 314 -362 29 -63 34 -85
34 -147 0 -140 -72 -304 -186 -428 -24 -26 -44 -52 -44 -58 0 -6 -8 -30 -19
-53 -51 -114 -64 -338 -28 -474 19 -71 61 -157 86 -176 9 -6 29 -27 44 -46 42
-51 228 -169 268 -170 9 -1 29 -8 46 -16 16 -8 63 -19 104 -24 145 -18 258
-64 381 -155 184 -136 251 -369 175 -611 -25 -80 -30 -241 -10 -310 6 -22 19
-67 28 -101 24 -86 69 -162 150 -250 54 -60 85 -84 140 -110 38 -19 79 -34 90
-34 12 0 26 -5 32 -11 11 -11 44 -17 157 -26 68 -5 204 11 239 29 32 16 317
16 357 0 19 -8 44 -17 55 -22 103 -39 181 -90 230 -150 24 -30 44 -60 45 -66
0 -6 11 -21 25 -34 14 -13 25 -30 25 -37 0 -8 7 -24 15 -36 15 -23 45 -164 49
-232 6 -94 169 -351 262 -412 152 -100 286 -136 419 -115 145 24 295 85 360
147 74 69 266 143 422 162 42 5 129 -20 238 -68 77 -34 207 -166 257 -261 40
-78 131 -178 186 -207 15 -7 34 -20 43 -27 9 -8 56 -36 105 -62 l89 -47 170 0
c182 0 180 0 281 60 36 22 123 103 204 190 16 17 37 48 48 71 11 22 28 46 36
53 9 8 16 20 16 27 0 8 14 26 31 41 17 16 57 53 89 84 32 31 82 69 112 83 29
15 60 31 68 35 76 39 85 41 176 41 145 0 291 -55 400 -150 71 -63 100 -79 184
-103 150 -43 296 -57 375 -36 80 21 181 62 225 92 72 48 178 184 180 230 0 4
11 25 25 45 17 26 34 79 51 163 28 136 44 190 74 250 41 79 124 192 159 214
20 12 47 34 60 49 14 14 30 26 36 26 6 0 36 12 66 27 52 27 61 28 199 28 118
0 153 -4 190 -19 80 -33 304 -31 385 3 11 5 56 22 99 37 73 27 88 37 177 125
130 127 160 193 179 392 8 85 4 132 -19 225 -18 70 -28 233 -20 313 31 287
231 463 574 504 33 5 76 16 95 26 19 11 39 19 44 19 5 0 23 10 40 23 17 13 47
30 66 37 43 18 186 160 221 220 71 122 93 231 73 364 -22 149 -68 264 -138
341 -91 102 -177 315 -176 439 1 101 40 208 114 315 32 47 126 141 141 141 5
0 22 11 39 24 17 12 47 31 66 41 44 22 163 144 205 210 18 28 44 75 58 105 52
110 55 124 48 280 -7 142 -8 146 -41 205 -19 33 -44 76 -55 95 -30 53 -134
153 -211 204 -125 81 -158 106 -206 154 -27 25 -48 51 -48 57 0 6 -15 29 -34
51 -55 64 -106 203 -106 288 0 125 83 327 170 413 41 41 53 62 80 143 59 180
63 353 10 500 -36 99 -169 247 -263 293 -129 63 -212 89 -332 104 -22 3 -44 9
-50 14 -5 5 -17 9 -26 9 -23 0 -141 50 -154 65 -5 7 -24 19 -40 28 -59 30
-162 144 -196 215 -63 131 -71 219 -34 392 35 160 39 201 26 280 -14 96 -40
203 -51 214 -6 6 -10 17 -10 25 0 53 -167 240 -250 278 -107 49 -151 60 -290
72 -75 6 -110 4 -165 -10 -157 -38 -183 -41 -291 -37 -170 7 -291 55 -386 151
-53 54 -61 65 -83 108 -10 19 -24 42 -33 52 -32 37 -72 175 -72 252 0 30 -4
57 -10 60 -5 3 -10 14 -10 23 0 23 -37 96 -77 154 -18 26 -33 50 -33 55 0 10
-93 106 -155 160 -28 24 -63 44 -84 48 -20 4 -45 12 -56 19 -61 38 -262 46
-350 14 -22 -9 -58 -21 -80 -27 -47 -14 -78 -27 -120 -49 -35 -19 -38 -20 -90
-65 -45 -38 -123 -77 -205 -102 -30 -9 -71 -23 -90 -30 -52 -19 -205 -14 -255
8 -148 67 -172 83 -252 167 -44 47 -93 110 -109 140 -33 62 -145 186 -177 196
-12 4 -36 17 -53 30 -17 13 -34 24 -38 24 -4 0 -22 11 -40 25 -18 14 -40 25
-48 25 -8 0 -29 7 -46 16 -47 23 -211 52 -224 39z m542 -930 c153 -14 192 -19
333 -45 106 -19 343 -70 371 -80 16 -6 42 -10 58 -10 17 0 44 -6 61 -13 79
-34 219 -79 367 -118 41 -11 108 -35 147 -54 40 -19 78 -35 84 -35 6 0 103
-46 216 -102 321 -161 316 -158 448 -255 24 -18 53 -33 64 -33 11 0 40 -16 65
-35 26 -19 50 -35 55 -35 5 0 15 -7 22 -17 8 -9 38 -32 67 -50 29 -19 84 -63
121 -99 38 -35 72 -64 76 -64 5 0 42 -31 84 -68 42 -38 96 -84 121 -103 69
-54 111 -91 144 -128 86 -96 135 -148 174 -184 23 -22 42 -45 42 -51 1 -6 28
-40 61 -76 99 -107 229 -272 254 -320 30 -59 98 -162 119 -179 9 -7 16 -18 16
-22 0 -9 51 -89 88 -139 10 -14 37 -61 59 -105 23 -44 62 -118 87 -165 74
-137 123 -242 142 -305 17 -59 86 -251 104 -290 25 -54 111 -335 130 -425 7
-30 18 -80 25 -110 19 -75 53 -260 65 -345 5 -38 13 -96 19 -127 19 -115 33
-634 22 -793 -14 -193 -28 -330 -40 -380 -5 -22 -15 -80 -22 -130 -7 -49 -16
-99 -22 -109 -5 -11 -16 -60 -23 -110 -17 -119 -91 -385 -119 -431 -7 -11 -16
-37 -19 -57 -4 -20 -19 -68 -35 -105 -15 -37 -34 -93 -41 -123 -7 -30 -21 -71
-30 -90 -10 -19 -27 -55 -38 -80 -35 -79 -61 -133 -97 -200 -19 -36 -46 -90
-60 -120 -37 -76 -57 -110 -161 -265 -19 -28 -34 -54 -34 -58 0 -5 -11 -23
-23 -40 -13 -18 -33 -51 -45 -74 -32 -64 -209 -286 -375 -472 -38 -42 -79 -92
-92 -111 -23 -36 -103 -114 -167 -163 -20 -15 -68 -59 -106 -97 -39 -39 -73
-70 -77 -70 -4 0 -49 -37 -101 -83 -151 -132 -194 -167 -208 -167 -7 0 -23
-11 -35 -24 -12 -13 -41 -32 -64 -42 -23 -10 -89 -50 -147 -89 -96 -66 -135
-90 -238 -152 -36 -21 -153 -80 -222 -112 -19 -9 -51 -25 -70 -37 -91 -54
-176 -94 -201 -94 -27 0 -40 -4 -124 -40 -22 -9 -62 -23 -90 -30 -27 -7 -95
-31 -149 -52 -55 -21 -109 -38 -121 -38 -11 0 -46 -9 -78 -20 -31 -11 -63 -20
-70 -20 -8 0 -41 -9 -74 -19 -33 -11 -86 -22 -119 -26 -32 -3 -88 -13 -124
-22 -108 -26 -239 -43 -485 -64 -162 -14 -553 -22 -574 -12 -9 4 -54 8 -101 9
-147 3 -348 27 -530 63 -58 12 -114 21 -126 21 -11 0 -76 16 -145 35 -68 19
-141 37 -163 40 -21 2 -43 8 -50 13 -6 4 -29 14 -51 21 -48 15 -114 40 -137
52 -10 5 -24 6 -32 3 -8 -3 -30 2 -48 11 -54 27 -138 54 -152 49 -7 -3 -93 36
-191 85 -98 50 -186 91 -196 91 -10 0 -21 5 -24 10 -4 6 -46 31 -95 55 -49 24
-91 49 -95 54 -3 6 -25 19 -48 29 -23 10 -48 26 -56 35 -7 10 -18 17 -24 17
-6 0 -34 18 -64 40 -29 23 -72 49 -96 59 -64 28 -223 141 -309 222 -42 39 -89
79 -105 89 -15 9 -59 45 -96 80 -38 36 -89 80 -115 100 -56 42 -162 146 -162
157 0 5 -32 40 -71 78 -39 39 -81 86 -94 106 -13 20 -59 73 -102 119 -43 45
-82 90 -87 99 -5 9 -14 21 -20 26 -33 30 -85 109 -199 300 -7 11 -18 24 -24
28 -7 4 -13 12 -13 17 0 5 -25 47 -57 92 -31 46 -69 110 -85 143 -16 33 -47
92 -68 130 -39 68 -91 174 -132 265 -11 25 -29 63 -41 85 -11 22 -24 56 -28
75 -4 19 -26 89 -49 155 -107 303 -106 298 -181 625 -60 265 -96 594 -99 915
-3 246 2 371 19 487 6 40 15 118 21 173 7 55 16 118 21 140 6 22 12 51 13 65
11 83 84 401 106 455 4 11 13 40 20 65 7 25 22 72 35 105 19 53 41 122 77 245
14 46 125 297 138 310 3 3 38 73 79 155 41 83 90 171 108 196 18 26 33 50 33
54 0 5 12 24 28 43 15 20 34 48 42 64 62 114 132 222 177 272 29 33 53 65 53
71 0 6 21 32 48 57 26 25 61 63 77 84 17 21 58 68 91 104 34 37 73 84 87 106
27 43 190 204 207 204 6 0 49 36 95 80 47 44 98 86 114 95 16 8 32 23 36 32 3
10 33 38 66 63 32 25 86 65 119 90 115 87 145 107 179 119 19 6 58 29 87 51
29 22 57 40 61 40 5 0 25 14 45 30 20 17 61 42 90 56 29 14 80 40 113 58 133
70 283 146 330 166 28 12 66 30 85 40 20 11 72 29 115 41 44 12 85 24 90 28 6
3 28 11 50 17 22 6 85 28 140 48 55 20 152 47 216 60 63 14 126 29 140 35 13
6 107 27 209 47 302 60 420 71 830 72 209 1 371 -3 480 -13z"/>
<path d="M5375 10201 c-11 -5 -74 -11 -140 -15 -152 -8 -282 -23 -365 -42 -36
-8 -108 -23 -160 -33 -52 -11 -138 -30 -190 -43 -52 -14 -104 -25 -115 -26
-51 -2 -192 -47 -279 -88 -28 -13 -62 -24 -76 -24 -14 0 -35 -7 -47 -15 -11
-8 -54 -27 -94 -41 -41 -15 -81 -33 -90 -41 -8 -7 -19 -13 -24 -13 -4 0 -58
-24 -119 -54 -61 -29 -122 -58 -136 -65 -44 -20 -134 -72 -167 -97 -17 -13
-36 -24 -41 -24 -5 0 -15 -7 -22 -15 -7 -8 -23 -15 -37 -15 -27 0 -114 -52
-183 -109 -25 -21 -56 -44 -70 -51 -38 -20 -133 -93 -148 -113 -7 -9 -30 -26
-50 -37 -20 -10 -76 -55 -125 -99 -48 -45 -93 -81 -101 -81 -7 0 -41 -30 -77
-67 -35 -38 -89 -91 -119 -120 -112 -106 -200 -201 -200 -216 0 -8 -28 -44
-62 -79 -65 -66 -167 -187 -199 -235 -10 -16 -29 -42 -41 -60 -104 -146 -179
-261 -216 -333 -38 -73 -120 -232 -199 -383 -12 -23 -38 -80 -58 -127 -21 -47
-44 -101 -52 -120 -27 -60 -53 -134 -53 -149 0 -8 -11 -38 -25 -68 -14 -29
-30 -72 -35 -96 -4 -23 -15 -60 -24 -82 -8 -22 -15 -57 -16 -78 0 -21 -6 -48
-12 -60 -7 -12 -20 -65 -29 -117 -9 -52 -24 -126 -33 -165 -51 -211 -92 -678
-83 -940 10 -290 44 -589 90 -795 34 -147 58 -248 73 -305 8 -33 19 -82 24
-110 9 -61 77 -254 96 -276 8 -8 14 -25 14 -38 0 -12 11 -43 24 -69 13 -26 27
-58 31 -72 7 -26 143 -302 199 -405 101 -187 175 -312 242 -405 41 -58 83
-118 93 -135 32 -50 151 -192 229 -272 40 -42 82 -92 92 -112 20 -40 336 -348
378 -370 15 -8 59 -44 97 -80 39 -36 117 -102 175 -145 58 -44 106 -83 108
-88 2 -4 24 -17 48 -28 25 -10 79 -47 121 -81 46 -38 99 -70 132 -82 31 -11
63 -25 71 -32 8 -7 29 -19 45 -27 17 -9 66 -34 110 -58 44 -23 127 -67 184
-97 57 -30 145 -70 195 -88 50 -18 116 -44 146 -58 30 -13 89 -37 130 -52 41
-16 79 -32 85 -37 5 -4 30 -8 57 -8 47 0 114 -15 198 -44 25 -8 83 -22 130
-31 47 -9 114 -23 149 -32 36 -8 90 -17 120 -20 31 -2 67 -9 81 -13 14 -5 102
-16 195 -24 411 -37 736 -30 1130 25 161 23 191 28 235 39 25 6 86 20 135 30
50 10 104 23 120 29 87 30 169 51 200 51 18 0 91 23 162 51 70 28 171 68 223
89 52 20 120 50 151 66 96 49 191 99 264 139 39 21 89 48 113 61 23 13 61 37
84 53 23 17 52 31 63 31 12 0 30 9 40 20 10 11 38 31 61 45 24 14 44 29 44 34
0 4 22 20 50 35 27 15 52 31 56 37 3 5 24 22 47 36 66 42 220 170 241 201 10
16 44 45 75 65 64 42 321 295 382 377 23 30 69 85 102 121 64 69 141 165 205
256 20 29 63 89 95 133 32 45 74 111 93 148 20 37 48 90 64 117 112 196 315
637 344 745 8 30 26 80 40 111 15 32 30 86 35 120 5 35 18 98 30 139 12 41 31
122 42 180 12 58 27 137 35 175 8 39 16 104 19 145 3 41 10 89 14 105 12 40
29 251 36 449 6 181 -16 516 -45 676 -6 30 -14 89 -19 130 -16 129 -63 344
-106 485 -14 45 -30 108 -36 140 -6 32 -17 75 -24 94 -45 120 -109 282 -125
316 -53 116 -74 164 -86 198 -7 20 -24 52 -37 70 -13 17 -31 46 -39 62 -48 94
-87 165 -106 192 -12 17 -22 36 -22 42 0 5 -13 29 -29 53 -15 24 -36 61 -46
83 -10 22 -35 60 -54 85 -20 24 -40 52 -46 61 -21 37 -103 144 -162 213 -35
41 -63 78 -63 84 0 6 -34 46 -76 89 -42 42 -82 88 -88 103 -6 14 -74 86 -151
160 -77 74 -149 145 -160 157 -11 12 -45 39 -76 60 -31 21 -85 64 -120 96 -96
86 -313 247 -334 247 -5 0 -18 8 -29 19 -37 33 -185 131 -198 131 -17 1 -96
40 -134 67 -30 22 -196 103 -210 103 -4 0 -15 6 -23 14 -9 7 -50 28 -91 46
-41 18 -93 41 -115 51 -79 35 -113 49 -123 49 -6 0 -26 9 -44 20 -18 10 -64
26 -101 35 -37 8 -84 24 -105 35 -20 10 -73 28 -117 40 -99 26 -401 87 -475
96 -30 4 -60 11 -67 16 -35 28 -942 72 -998 49z m670 -240 c39 -6 120 -15 181
-20 62 -6 145 -17 185 -26 41 -9 115 -25 164 -35 50 -10 138 -35 197 -54 59
-20 118 -36 130 -36 37 0 318 -103 463 -169 39 -18 91 -36 117 -41 28 -6 66
-24 93 -45 26 -19 52 -35 58 -35 7 0 23 -6 37 -14 14 -7 50 -27 81 -43 112
-61 205 -117 262 -160 31 -23 60 -43 63 -43 8 0 64 -41 111 -80 22 -20 62 -46
87 -59 25 -13 53 -32 62 -42 10 -11 21 -19 27 -19 14 0 144 -117 316 -285 276
-268 316 -313 418 -470 14 -22 48 -63 74 -92 27 -28 49 -56 49 -61 0 -6 19
-34 43 -64 47 -59 97 -133 97 -145 0 -5 20 -37 45 -72 25 -36 45 -70 45 -76 0
-7 18 -37 39 -67 22 -30 52 -86 66 -124 36 -91 45 -113 94 -215 22 -47 48
-106 56 -130 9 -24 22 -53 30 -65 12 -19 44 -113 131 -385 13 -42 24 -83 24
-91 0 -8 6 -28 14 -44 8 -16 17 -54 21 -84 4 -30 11 -61 15 -70 10 -19 39
-189 50 -295 5 -44 13 -107 19 -140 5 -33 10 -102 10 -152 1 -51 6 -112 13
-136 9 -34 9 -95 -1 -258 -19 -350 -34 -509 -55 -604 -8 -33 -19 -91 -25 -130
-7 -38 -16 -83 -21 -100 -5 -16 -19 -68 -30 -115 -43 -181 -75 -284 -126 -400
-18 -41 -36 -91 -39 -110 -4 -19 -11 -41 -16 -50 -12 -22 -53 -116 -116 -259
-58 -133 -96 -205 -150 -285 -18 -26 -33 -56 -33 -65 0 -13 -61 -113 -80 -131
-6 -5 -30 -40 -70 -100 -14 -21 -52 -73 -85 -117 -33 -43 -76 -104 -94 -134
-19 -31 -50 -66 -68 -80 -17 -13 -38 -37 -44 -52 -7 -16 -29 -40 -49 -53 -20
-14 -60 -53 -88 -88 -28 -35 -76 -85 -108 -112 -63 -55 -79 -70 -130 -131 -20
-24 -41 -43 -46 -43 -6 0 -19 -11 -30 -25 -17 -22 -99 -84 -157 -120 -9 -6
-61 -44 -115 -85 -141 -106 -310 -220 -386 -259 -36 -18 -74 -41 -85 -51 -25
-23 -160 -90 -179 -90 -19 0 -124 -49 -132 -61 -3 -5 -13 -9 -22 -9 -10 0 -51
-17 -92 -38 -42 -21 -90 -41 -107 -45 -18 -4 -61 -20 -95 -36 -35 -16 -81 -33
-103 -37 -22 -4 -53 -15 -70 -26 -16 -10 -44 -18 -62 -18 -17 0 -34 -4 -38 -9
-7 -12 -105 -41 -139 -41 -14 0 -47 -7 -73 -16 -80 -27 -283 -64 -443 -80 -36
-4 -71 -12 -79 -18 -10 -8 -143 -11 -445 -10 -471 0 -516 4 -821 66 -303 62
-317 66 -555 146 -58 19 -109 38 -115 42 -5 4 -35 15 -65 23 -30 9 -82 30
-114 47 -33 16 -64 30 -70 30 -6 0 -42 16 -80 35 -37 19 -79 35 -91 35 -12 0
-28 7 -35 15 -7 8 -20 15 -30 15 -9 0 -28 8 -41 18 -28 20 -40 27 -146 83 -43
22 -85 47 -93 54 -8 7 -35 23 -60 35 -25 13 -58 36 -74 51 -17 16 -33 29 -37
29 -7 0 -79 51 -228 162 -24 18 -54 38 -68 44 -45 20 -154 119 -406 371 -251
251 -307 312 -307 331 0 6 -15 28 -33 51 -89 112 -123 156 -137 177 -8 12 -35
49 -60 81 -25 32 -58 83 -74 113 -16 30 -53 91 -81 135 -29 44 -62 103 -75
130 -13 28 -28 57 -35 65 -7 8 -27 51 -45 95 -18 43 -39 89 -46 100 -8 12 -27
59 -44 105 -17 46 -48 122 -69 169 -21 47 -46 113 -56 146 -9 33 -27 96 -41
140 -89 300 -114 413 -134 598 -6 56 -15 118 -20 137 -10 36 -34 411 -31 465
1 17 4 89 6 160 2 72 9 177 15 235 6 58 15 146 20 195 14 145 38 285 66 386
14 52 29 110 33 129 4 19 12 44 18 55 6 11 16 43 22 70 27 132 40 171 82 255
15 30 33 75 39 100 7 25 22 68 35 95 12 28 33 75 45 105 40 96 128 272 174
350 25 41 57 98 72 125 14 28 41 68 58 90 18 22 36 48 39 59 4 10 23 39 42 65
127 166 155 205 155 213 0 12 59 85 118 147 23 24 42 50 42 57 0 7 15 23 33
35 43 30 276 260 282 279 3 8 25 31 51 50 25 19 77 63 116 98 39 35 89 73 111
85 57 32 70 40 92 60 40 35 133 106 161 121 16 9 49 32 74 51 25 18 49 34 54
34 5 1 24 12 42 26 18 14 38 25 44 25 9 0 55 26 222 127 32 18 83 41 115 49
31 8 62 19 67 23 6 5 47 23 91 41 44 18 94 38 110 46 58 26 160 65 205 78 25
8 59 19 75 25 41 15 373 105 460 125 101 23 228 40 535 75 99 12 646 6 735 -8z"/>
<path d="M5260 9798 c-35 -5 -65 -10 -66 -11 -1 -1 1 -17 3 -34 4 -22 11 -33
22 -33 15 0 20 -20 32 -126 12 -103 13 -127 2 -131 -7 -3 -13 -19 -13 -36 l0
-30 72 6 c39 3 75 10 80 15 13 13 -1 62 -18 62 -16 0 -20 15 -34 123 -14 111
-13 137 6 137 11 0 14 5 10 16 -3 9 -6 24 -6 35 0 10 -6 18 -12 18 -7 -1 -42
-6 -78 -11z"/>
<path d="M5384 9796 c-3 -8 -4 -25 -2 -38 3 -21 8 -23 58 -23 l55 0 5 -160 5
-160 43 -3 42 -3 0 165 0 166 55 0 55 0 0 35 0 35 -155 0 c-126 0 -157 -3
-161 -14z"/>
<path d="M5730 9805 c0 -3 21 -61 47 -128 43 -112 46 -128 44 -200 l-3 -78 44
3 43 3 6 66 c5 59 12 76 78 182 41 65 71 120 68 123 -3 3 -23 8 -44 11 l-40 5
-43 -83 -43 -83 -29 84 c-15 46 -34 87 -40 92 -14 9 -88 11 -88 3z"/>
<path d="M4995 9783 c-94 -21 -135 -56 -135 -115 0 -59 23 -94 72 -111 24 -8
61 -21 83 -29 31 -11 41 -19 43 -40 5 -38 -26 -52 -106 -45 -61 5 -64 4 -58
-17 3 -11 6 -29 6 -40 0 -17 7 -18 83 -14 96 5 147 29 167 78 30 72 -15 136
-117 165 -32 9 -64 22 -70 27 -43 35 20 84 94 74 40 -5 43 -4 43 18 0 54 -27
67 -105 49z"/>
<path d="M6307 9713 c-3 -5 -19 -90 -38 -191 -36 -201 -36 -205 26 -200 28 3
30 7 42 67 7 36 15 67 18 69 3 3 31 1 63 -5 31 -6 58 -10 59 -9 0 0 4 17 8 38
l7 36 -56 7 c-31 4 -59 11 -62 17 -3 5 -3 27 1 49 l7 41 47 -8 c88 -14 96 -13
99 23 4 36 12 32 -116 58 -83 17 -99 18 -105 8z"/>
<path d="M4540 9668 c-41 -10 -78 -22 -82 -26 -4 -4 15 -90 41 -192 l49 -185
37 2 c21 2 40 5 43 8 5 4 -7 66 -24 133 -6 19 -2 22 22 22 21 0 43 -14 85 -56
57 -56 58 -56 103 -50 25 4 48 11 51 16 5 8 -123 124 -145 132 -8 2 -3 18 15
43 36 53 30 107 -15 148 -37 33 -72 34 -180 5z"/>
<path d="M6695 9635 c-5 -2 -22 -6 -37 -9 -97 -21 -168 -185 -124 -289 53
-128 248 -154 329 -45 82 110 61 263 -43 314 -44 22 -105 36 -125 29z m75 -90
c37 -19 50 -43 50 -92 -1 -77 -54 -153 -108 -153 -104 0 -137 138 -52 222 41
41 65 46 110 23z"/>
<path d="M4235 9563 c-49 -19 -93 -38 -97 -42 -7 -6 125 -346 141 -363 4 -4
38 5 76 21 39 16 87 36 107 44 36 15 37 17 27 46 -6 17 -15 31 -20 31 -5 0
-37 -11 -71 -25 -34 -14 -62 -24 -64 -22 -5 5 -34 80 -32 82 2 1 28 12 58 24
30 13 56 24 58 26 3 3 -19 65 -24 65 -2 0 -26 -9 -54 -20 -28 -11 -55 -20 -60
-20 -5 0 -17 17 -25 37 -12 29 -13 38 -3 45 7 4 16 8 20 8 3 0 27 9 52 19 44
20 45 21 35 50 -6 17 -16 31 -22 30 -7 0 -52 -16 -102 -36z"/>
<path d="M7016 9552 c-20 -33 -89 -238 -93 -279 -7 -68 19 -112 85 -143 91
-43 179 -23 217 49 20 40 95 241 95 257 0 12 -67 41 -75 32 -2 -2 -24 -57 -49
-122 -25 -65 -53 -127 -62 -137 -38 -42 -124 -11 -124 44 0 13 20 79 45 147
25 68 44 124 42 126 -11 10 -78 31 -81 26z"/>
<path d="M4028 9484 c-34 -18 -34 -21 -8 -188 11 -71 18 -131 16 -133 -2 -2
-49 48 -105 112 -56 63 -104 115 -106 115 -15 0 -75 -36 -75 -44 1 -6 63 -76
139 -155 l139 -145 46 18 c55 21 53 4 26 246 -11 96 -20 178 -20 183 0 11 -22
8 -52 -9z"/>
<path d="M7297 9247 c-95 -209 -93 -201 -62 -215 14 -7 32 -12 39 -12 7 0 37
52 66 115 30 63 57 112 60 108 4 -5 15 -64 24 -133 27 -188 23 -177 68 -195
22 -9 42 -15 43 -13 2 2 39 83 83 181 l81 177 -31 16 c-16 8 -35 13 -42 11 -6
-3 -33 -55 -60 -116 -27 -61 -52 -109 -55 -106 -2 3 -15 71 -27 151 -12 81
-26 150 -31 155 -4 4 -24 15 -44 23 l-37 15 -75 -162z"/>
<path d="M3623 9284 c-35 -19 -63 -37 -63 -39 0 -2 5 -16 12 -30 7 -17 17 -24
28 -20 23 7 146 -210 130 -230 -10 -12 -3 -41 15 -63 4 -4 94 42 118 60 16 12
17 17 6 41 -8 19 -19 27 -32 25 -28 -4 -146 205 -128 226 9 10 9 20 0 40 -7
14 -15 26 -18 26 -3 0 -34 -16 -68 -36z"/>
<path d="M5355 9233 c-236 -21 -509 -74 -730 -142 -220 -67 -305 -99 -490
-186 -147 -69 -169 -80 -320 -168 -240 -139 -573 -400 -745 -583 -197 -211
-406 -481 -494 -639 -9 -16 -30 -52 -47 -80 -140 -232 -311 -657 -369 -920
-11 -49 -25 -103 -30 -120 -13 -40 -38 -192 -57 -345 -21 -160 -23 -636 -5
-800 43 -377 164 -820 302 -1105 16 -33 41 -85 54 -115 14 -30 36 -73 48 -95
13 -22 41 -71 63 -110 41 -74 182 -290 222 -340 170 -213 225 -277 342 -394
168 -168 230 -222 398 -347 525 -392 1139 -631 1813 -704 119 -13 596 -13 705
-1 212 26 478 77 640 124 430 126 760 288 1155 569 96 68 260 208 379 323 247
240 471 534 639 840 52 95 81 156 180 375 39 88 117 331 158 494 42 165 69
325 95 551 13 111 6 659 -9 735 -6 30 -18 107 -27 170 -9 63 -23 142 -31 175
-120 498 -268 849 -521 1233 -180 274 -378 501 -623 716 -159 139 -405 320
-526 385 -21 12 -59 33 -84 48 -187 107 -573 273 -728 312 -20 6 -95 25 -167
44 -145 39 -398 83 -556 97 -98 9 -546 11 -634 3z m675 -153 c41 -5 131 -18
200 -29 111 -18 179 -33 380 -84 142 -37 376 -127 570 -220 656 -317 1199
-843 1549 -1500 58 -109 54 -125 -19 -89 -25 12 -35 24 -34 39 1 29 -32 36
-140 32 l-81 -4 2 28 c1 18 -3 27 -13 27 -26 0 -118 -51 -140 -78 -27 -33 -58
-25 -48 13 3 14 3 25 -1 25 -14 0 -113 -93 -149 -140 -42 -55 -53 -60 -65 -28
-7 20 -9 20 -33 -13 -32 -43 -63 -104 -94 -186 -33 -89 -92 -203 -104 -203
-21 0 -32 59 -36 195 -5 152 -11 242 -20 292 -5 27 -10 31 -33 30 -21 -2 -27
3 -29 23 -9 72 -78 269 -94 270 -5 0 -8 -9 -8 -20 0 -40 -20 -19 -61 63 -42
83 -65 117 -81 117 -4 0 -8 -6 -8 -14 0 -31 -23 -26 -73 17 -29 25 -70 55 -92
67 -36 20 -40 21 -51 5 -11 -15 -20 -15 -87 -5 -41 7 -80 11 -86 9 -7 -3 19
-31 56 -63 80 -68 89 -82 72 -102 -6 -8 -10 -16 -8 -18 2 -2 46 -21 97 -41 50
-21 95 -42 98 -47 4 -5 0 -21 -7 -35 -15 -28 -22 -18 85 -106 47 -39 58 -63
31 -69 -10 -2 -2 -22 33 -73 27 -38 61 -92 77 -119 26 -44 27 -51 13 -60 -14
-9 -13 -15 13 -53 17 -24 46 -77 66 -119 28 -59 33 -78 24 -87 -16 -15 -57 30
-143 155 -57 83 -137 168 -158 168 -5 0 -10 -11 -10 -25 0 -32 -14 -32 -59 3
-73 58 -211 120 -211 96 0 -3 5 -15 11 -26 18 -34 -4 -44 -48 -22 -37 18 -193
34 -193 20 0 -4 7 -18 16 -32 9 -13 15 -27 12 -29 -2 -3 -38 -13 -79 -23 -59
-15 -149 -51 -167 -67 -2 -2 2 -12 9 -23 11 -17 4 -27 -64 -92 -43 -40 -77
-79 -77 -86 0 -17 -6 -18 80 11 100 34 120 33 120 -5 0 -16 3 -30 6 -30 4 0
36 21 72 48 132 94 152 101 152 52 0 -33 11 -37 57 -19 26 10 128 39 138 39
10 0 5 -36 -6 -47 -8 -8 7 -13 57 -18 63 -5 140 -19 187 -32 12 -3 16 -11 12
-22 -5 -16 4 -20 57 -31 73 -14 167 -47 187 -65 25 -24 3 -36 -37 -19 -51 22
-219 30 -277 14 -54 -15 -62 -25 -40 -50 19 -21 14 -25 -39 -34 -43 -8 -226
-96 -226 -109 0 -4 11 -12 25 -17 29 -11 33 -38 8 -46 -42 -14 -70 -32 -125
-83 -62 -57 -70 -75 -38 -84 20 -5 28 -41 11 -51 -15 -9 -85 -136 -105 -190
-18 -47 -18 -50 -2 -62 17 -12 17 -16 1 -69 -8 -31 -18 -86 -21 -123 -6 -77
-8 -78 70 43 41 65 52 76 70 71 20 -5 25 5 66 126 44 129 66 162 77 119 3 -12
10 -20 15 -19 6 2 36 48 67 103 32 54 63 101 69 103 6 2 12 -10 14 -27 l3 -30
99 90 c54 49 102 86 107 83 10 -6 -17 -48 -51 -79 -23 -20 -80 -99 -80 -109 0
-3 9 -6 19 -6 37 0 33 -22 -11 -68 -25 -26 -60 -69 -80 -97 -36 -52 -98 -160
-98 -171 0 -4 14 -4 30 0 25 4 30 2 30 -13 0 -10 -8 -29 -18 -42 -34 -46 -60
-105 -82 -182 -22 -82 -21 -99 5 -77 32 27 37 -2 21 -114 -9 -59 -16 -140 -16
-181 0 -70 1 -75 21 -72 28 3 35 -13 48 -113 12 -90 30 -160 41 -160 4 0 10
46 14 103 4 56 12 119 18 140 11 35 14 38 40 33 27 -5 27 -5 23 37 -21 185
-25 228 -25 270 0 39 3 47 18 47 10 0 23 -5 30 -12 16 -16 18 -7 31 145 7 70
14 134 18 142 8 21 24 18 30 -5 10 -37 21 -21 54 78 51 154 86 224 106 218 15
-5 24 10 51 79 19 47 42 95 52 107 27 34 40 14 30 -47 -13 -75 -12 -220 2
-251 10 -22 10 -28 -5 -39 -14 -10 -17 -30 -17 -115 0 -93 2 -106 22 -127 20
-21 20 -24 5 -41 -33 -37 -17 -230 21 -258 14 -10 15 -15 3 -38 -12 -21 -12
-41 -2 -118 20 -152 22 -160 53 -189 28 -25 28 -27 12 -43 -16 -17 -16 -24 10
-132 34 -145 41 -164 73 -190 22 -17 24 -23 13 -40 -14 -23 -3 -64 57 -214 47
-116 49 -120 74 -120 18 0 20 -4 14 -39 -5 -33 0 -52 43 -137 28 -55 73 -139
101 -188 28 -49 51 -90 51 -92 0 -2 23 -37 50 -78 74 -110 67 -118 -45 -60
-373 194 -686 323 -1068 439 -32 10 -56 23 -54 29 2 6 30 13 62 16 56 5 58 6
41 22 -22 23 -71 23 -177 2 -65 -14 -88 -14 -117 -5 -37 12 -146 35 -342 72
-58 11 -184 28 -280 39 -96 11 -218 25 -270 32 -125 16 -717 16 -825 0 -44 -6
-152 -19 -240 -28 -136 -13 -239 -28 -343 -50 -34 -7 -37 16 -18 132 24 146
25 144 -85 144 l-89 0 0 -67 c1 -38 7 -104 15 -148 13 -73 13 -81 -2 -92 -9
-7 -25 -13 -36 -13 -30 0 -274 -66 -467 -127 -240 -75 -519 -187 -746 -299
-106 -52 -197 -94 -203 -94 -18 0 -13 19 23 73 104 161 250 444 240 466 -17
42 -16 51 4 51 26 0 32 10 71 105 73 177 82 209 64 222 -19 15 -10 43 16 50
22 5 21 3 65 170 30 114 31 124 17 148 -15 24 -15 26 12 48 23 18 29 34 38 92
5 39 14 97 19 130 7 47 5 63 -6 76 -19 21 -18 36 5 48 34 19 46 217 15 252
-12 14 -11 20 8 44 18 24 23 44 26 120 4 86 3 94 -19 113 -19 19 -21 25 -11
47 13 29 15 175 3 248 -8 50 6 80 26 55 16 -20 59 -109 72 -150 9 -26 19 -38
34 -40 27 -4 52 -53 103 -205 21 -62 41 -113 45 -113 4 0 11 9 14 21 11 34 30
16 37 -37 10 -61 27 -203 27 -227 1 -15 6 -17 31 -12 l30 7 -1 -54 c0 -50 -14
-230 -21 -273 -2 -16 3 -20 27 -20 l30 0 12 -95 c7 -52 16 -117 21 -145 l8
-50 18 60 c15 50 35 153 36 190 0 6 4 16 9 24 8 13 12 13 27 0 16 -13 17 -6
10 131 -3 80 -11 163 -17 184 -11 41 4 77 25 56 5 -5 14 -10 18 -10 31 0 -54
244 -98 281 -8 6 -14 20 -14 30 0 15 5 17 30 13 40 -8 39 4 -7 80 -59 100
-103 159 -146 197 -40 37 -43 59 -6 59 10 0 19 4 19 9 0 10 -64 96 -103 138
-16 17 -27 37 -25 44 3 8 45 -24 105 -79 56 -51 104 -92 108 -92 3 0 4 9 0 20
-9 27 3 44 20 30 13 -11 91 -144 107 -182 10 -24 25 -23 33 2 14 45 33 16 77
-112 39 -119 46 -133 66 -131 21 3 68 -54 116 -139 18 -32 19 -32 27 -10 5 12
5 32 0 45 -4 12 -14 55 -21 96 -12 66 -12 74 3 82 15 9 15 14 -4 60 -22 56
-54 116 -94 178 -28 42 -26 57 8 70 20 7 17 12 -36 68 -31 32 -77 69 -102 82
-49 24 -57 44 -25 61 11 6 20 15 20 20 0 13 -186 101 -227 107 -41 7 -50 19
-29 42 15 16 14 19 -11 31 -50 24 -200 25 -281 2 -46 -13 -74 -17 -78 -10 -3
5 -2 13 2 18 19 18 135 60 197 71 58 11 65 14 56 30 -7 13 -5 19 9 23 30 8
125 24 185 31 55 6 58 8 53 30 -3 13 -2 26 3 29 5 3 48 -5 95 -19 48 -14 89
-25 92 -25 3 0 4 12 2 28 -5 46 29 39 122 -28 47 -33 90 -60 97 -60 6 0 13 10
15 22 4 32 27 33 120 4 45 -14 83 -24 85 -23 7 8 -58 86 -102 122 -40 34 -46
43 -41 67 5 26 1 30 -52 54 -31 14 -83 30 -115 36 -62 11 -78 27 -59 59 7 10
12 21 12 24 0 15 -139 3 -179 -15 -59 -27 -65 -26 -58 15 4 22 2 35 -5 35 -23
0 -176 -80 -199 -104 -32 -34 -59 -34 -59 -1 0 14 -4 25 -10 25 -22 0 -91 -75
-146 -158 -56 -85 -130 -172 -146 -172 -17 0 -7 48 23 105 44 86 53 102 74
125 14 16 16 23 7 32 -7 7 -12 18 -12 25 0 13 59 111 111 182 28 38 30 45 15
53 -9 5 -16 12 -16 17 0 6 112 102 144 123 7 4 4 14 -8 27 -27 30 -15 46 51
71 125 46 132 51 126 80 -4 23 4 35 65 91 39 35 69 66 67 70 -3 3 -39 -1 -82
-8 -72 -14 -78 -14 -90 3 -13 18 -15 18 -47 0 -19 -10 -60 -40 -92 -67 -57
-47 -59 -48 -75 -29 -16 18 -17 18 -41 -8 -29 -33 -78 -124 -78 -146 0 -25
-31 -32 -43 -11 -9 16 -13 12 -33 -32 -12 -28 -33 -93 -46 -143 -21 -82 -25
-90 -44 -86 -35 9 -45 -47 -53 -280 -5 -155 -10 -216 -20 -228 -24 -29 -52 10
-105 149 -38 97 -81 185 -110 220 -24 29 -25 30 -40 10 -14 -19 -16 -19 -52
25 -21 25 -63 69 -94 98 l-55 53 -3 -30 c-4 -38 -33 -42 -55 -7 -17 25 -109
76 -139 76 -14 0 -16 -6 -11 -31 l6 -30 -71 6 c-39 4 -92 4 -117 0 -40 -5 -46
-9 -42 -26 4 -15 -4 -24 -34 -40 -53 -27 -58 -10 -19 69 16 33 30 64 30 68 0
5 11 24 23 43 13 20 50 79 83 131 177 287 405 555 644 759 198 169 225 189
385 295 174 115 441 255 605 319 222 85 223 85 390 132 122 34 263 64 342 75
45 6 106 15 133 21 135 28 615 33 805 9z m-3407 -2017 c21 -3 40 -11 42 -17
12 -43 16 -48 28 -39 6 5 50 20 95 33 69 19 85 21 92 10 5 -8 4 -22 -2 -33 -5
-10 -8 -21 -5 -23 2 -3 43 -8 91 -11 l87 -6 -6 -26 c-5 -24 1 -29 97 -76 87
-42 103 -54 103 -73 0 -17 10 -29 33 -41 49 -26 171 -124 171 -139 1 -17 -37
-7 -130 34 -85 38 -178 52 -223 35 -27 -11 -28 -13 -12 -30 28 -31 18 -38 -56
-44 -71 -5 -208 -43 -208 -57 0 -4 9 -15 20 -25 11 -10 20 -22 20 -26 0 -4
-24 -15 -52 -23 -57 -17 -85 -33 -142 -83 -39 -35 -43 -43 -22 -43 7 0 19 -6
25 -14 9 -11 1 -27 -39 -77 -29 -35 -67 -90 -87 -122 -33 -54 -34 -59 -18 -71
17 -12 16 -17 -8 -82 -15 -38 -29 -91 -33 -119 l-5 -50 33 40 c18 22 50 58 70
80 33 36 39 39 58 27 19 -12 23 -7 70 95 62 135 64 137 84 141 10 2 16 -3 16
-17 0 -32 18 -34 37 -4 32 51 116 144 127 140 6 -2 10 -14 8 -27 -4 -25 1 -23
58 20 55 42 156 100 174 100 36 0 10 -56 -58 -125 -70 -70 -85 -95 -57 -95 36
0 33 -20 -11 -63 -43 -41 -178 -234 -178 -254 0 -5 14 -8 30 -5 24 3 30 1 30
-15 0 -11 -9 -28 -19 -40 -37 -39 -89 -157 -106 -241 -7 -32 -6 -33 15 -22 38
20 44 0 27 -87 -8 -43 -18 -124 -22 -180 l-7 -103 24 0 c22 0 25 -7 36 -72 25
-141 33 -178 43 -183 5 -4 9 -3 9 2 1 4 9 64 18 133 l18 125 30 0 c23 1 28 5
26 20 -1 11 -6 88 -11 170 -10 159 -6 179 30 157 27 -17 39 -7 39 32 0 41 27
223 35 236 10 16 35 11 35 -7 0 -32 18 2 58 107 57 153 79 192 102 185 15 -5
22 4 39 50 37 100 92 196 109 193 19 -4 37 -101 46 -246 4 -53 12 -138 18
-189 11 -91 9 -139 -22 -448 -49 -487 -227 -980 -503 -1395 -111 -166 -238
-320 -263 -320 -24 0 -198 309 -284 503 -114 259 -208 573 -245 822 -8 61 -20
137 -26 170 -15 89 -22 553 -10 680 21 228 31 289 85 540 15 67 74 262 101
335 44 115 67 171 89 223 25 55 27 57 63 57 21 0 55 -3 76 -7z m6201 -15 c21
-33 92 -215 136 -348 35 -108 68 -232 104 -395 49 -216 73 -668 52 -970 -20
-296 -129 -737 -253 -1030 -82 -191 -245 -497 -296 -552 -20 -22 -21 -22 -40
-5 -27 23 -122 142 -182 227 -161 225 -313 515 -400 766 -142 404 -209 887
-175 1254 28 293 35 340 53 343 10 2 20 -5 24 -15 4 -10 19 -37 34 -61 15 -23
37 -70 49 -105 28 -75 26 -73 45 -57 13 11 20 2 48 -61 19 -41 42 -98 52 -128
9 -29 24 -65 31 -80 8 -14 14 -33 15 -41 0 -9 4 -7 11 8 18 37 36 26 43 -25 4
-27 11 -64 15 -83 5 -19 12 -66 16 -103 6 -65 7 -67 25 -51 10 9 25 14 34 10
13 -5 15 -16 11 -58 -3 -29 -8 -106 -12 -170 l-6 -118 26 0 c20 0 27 -6 31
-27 4 -16 10 -46 15 -68 5 -22 12 -70 16 -107 4 -38 10 -68 14 -68 10 0 28 66
35 130 12 96 24 130 45 130 14 0 20 7 20 23 0 54 -22 265 -30 296 -12 43 2 66
31 50 16 -8 19 -6 19 14 0 37 -64 190 -100 240 -35 49 -32 72 6 64 13 -2 24 0
24 6 0 18 -91 155 -150 226 -65 76 -71 91 -40 91 32 0 24 14 -46 85 -47 48
-67 77 -71 101 -4 26 -2 34 10 34 15 0 127 -68 179 -109 34 -27 48 -27 45 0
-4 43 20 27 86 -56 38 -47 72 -85 76 -85 5 0 11 9 14 20 10 38 34 20 65 -47
85 -189 81 -183 103 -170 18 11 26 6 72 -43 29 -30 60 -66 69 -80 9 -14 19
-22 22 -19 8 8 -29 151 -49 190 -19 36 -19 55 0 63 9 3 12 12 8 23 -11 29
-101 157 -128 183 -30 28 -33 60 -5 67 29 8 25 17 -23 57 -46 38 -121 75 -150
76 -29 0 -33 30 -7 50 23 17 23 18 3 28 -38 21 -168 52 -215 52 -53 0 -68 13
-44 39 23 25 21 28 -29 36 -55 8 -143 -9 -199 -39 -51 -27 -124 -51 -132 -44
-11 12 20 44 88 93 39 28 81 56 94 63 18 9 23 19 19 32 -5 17 10 27 102 72 59
29 110 54 112 56 3 1 -1 8 -7 14 -26 26 -13 38 41 38 28 0 68 3 88 6 34 6 37
9 35 38 -1 29 1 31 29 29 17 -1 39 -7 50 -12 17 -8 105 -31 119 -31 2 0 6 10
8 22 3 26 32 35 110 37 39 1 50 -3 62 -21z m-2659 -2773 c212 -20 330 -38 610
-93 70 -14 339 -84 465 -121 290 -86 740 -276 1000 -422 41 -23 91 -50 111
-60 61 -30 66 -43 33 -86 -109 -144 -339 -383 -368 -383 -10 0 -33 9 -51 20
-59 36 -137 78 -285 150 -80 39 -153 76 -163 81 -25 14 -315 129 -324 129 -4
0 -37 11 -73 24 -109 40 -353 111 -420 121 -24 4 -51 11 -60 16 -26 14 -263
52 -500 80 -178 20 -688 32 -817 18 -37 -4 -122 -12 -188 -18 -66 -7 -140 -16
-165 -21 -25 -5 -90 -17 -145 -25 -224 -35 -558 -125 -775 -210 -19 -8 -78
-30 -130 -51 -173 -67 -415 -184 -597 -290 l-32 -19 -77 75 c-83 81 -272 293
-299 334 -9 14 -14 30 -11 35 13 20 318 180 511 266 158 71 482 193 610 230
33 9 78 23 100 31 22 8 78 23 125 33 47 11 110 27 140 36 62 18 264 57 445 86
104 17 318 38 520 52 117 9 662 -4 810 -18z m-50 -589 c72 -9 159 -20 195 -26
36 -5 99 -15 140 -21 41 -6 109 -19 150 -29 41 -10 118 -28 170 -40 94 -23
339 -101 495 -158 217 -80 685 -312 698 -346 6 -16 -27 -48 -148 -143 -195
-152 -397 -280 -605 -384 -257 -127 -411 -184 -750 -274 -114 -30 -324 -62
-560 -85 -291 -29 -768 14 -1075 96 -49 13 -110 29 -135 36 -49 12 -226 74
-330 115 -166 65 -421 198 -595 311 -171 111 -414 307 -415 333 0 22 23 36
224 139 193 97 358 170 526 231 114 41 137 49 340 107 158 46 398 96 505 107
39 3 86 11 105 16 134 37 789 46 1065 15z"/>
<path d="M5340 8770 c-14 -11 -21 -20 -16 -20 5 0 -1 -11 -14 -24 -16 -18 -21
-33 -17 -52 8 -42 -11 -94 -39 -106 -31 -14 -30 -19 6 -40 30 -17 31 -19 24
-70 -8 -62 -19 -87 -48 -110 -15 -13 -18 -21 -11 -31 6 -8 18 -25 27 -39 10
-13 21 -39 24 -57 7 -33 6 -34 -21 -29 -16 3 -36 1 -46 -5 -23 -14 -49 7 -49
40 0 18 -5 24 -17 21 -14 -3 -17 -12 -15 -43 2 -22 10 -50 18 -62 8 -12 14
-44 14 -71 0 -27 6 -65 14 -83 7 -19 11 -40 9 -47 -3 -7 -2 -24 1 -37 5 -20
13 -25 36 -25 26 0 30 -4 30 -26 0 -28 16 -64 29 -64 4 0 13 11 19 25 15 31
32 32 61 1 23 -24 23 -25 5 -55 -10 -17 -22 -31 -26 -31 -4 0 -8 -16 -8 -35 0
-28 4 -35 19 -35 11 0 32 -15 46 -34 16 -21 38 -36 57 -40 27 -5 36 -2 59 24
15 16 36 30 46 30 10 0 26 6 35 13 15 12 15 18 -13 72 -31 61 -36 94 -18 112
9 9 6 19 -10 39 -26 34 -27 56 -1 79 24 22 10 46 -14 25 -19 -15 -46 -6 -46
15 0 8 19 36 41 60 l41 45 -23 19 -24 20 26 26 c16 17 41 29 66 32 42 6 47 11
74 83 7 19 29 52 47 72 41 45 38 62 -21 118 l-41 40 -1 82 c-1 61 3 91 16 113
24 43 32 85 17 85 -20 0 -32 -12 -46 -43 -15 -35 -38 -44 -61 -23 -10 9 -30
16 -45 16 -15 0 -47 11 -72 25 -54 30 -109 32 -144 5z"/>
<path d="M5760 7739 c-14 -16 -35 -34 -48 -39 -14 -6 -22 -17 -20 -27 2 -13
-6 -19 -32 -23 l-34 -5 26 -17 c15 -10 29 -27 33 -38 4 -13 15 -20 30 -20 24
0 65 -42 65 -66 0 -8 5 -14 10 -14 15 0 12 15 -11 54 -12 21 -19 48 -17 68 5
50 32 48 82 -6 24 -25 55 -50 70 -56 19 -7 34 -25 48 -59 21 -49 63 -81 108
-81 13 0 25 -14 38 -42 l19 -43 19 38 19 39 -34 30 c-30 27 -32 31 -17 47 24
26 20 33 -17 26 -30 -6 -36 -3 -61 29 -16 21 -26 46 -24 59 3 20 7 22 61 19
52 -3 58 -1 55 15 -3 14 -14 18 -57 20 -29 2 -66 9 -82 17 -28 14 -29 14 -29
-14 0 -35 -24 -57 -44 -41 -8 7 -17 27 -20 46 -5 24 -21 45 -55 74 -27 23 -50
41 -52 40 -2 0 -15 -14 -29 -30z"/>
<path d="M5244 7548 c-4 -7 2 -18 17 -27 50 -32 99 -91 99 -120 0 -16 7 -34
15 -41 9 -7 25 -35 37 -62 21 -50 33 -57 60 -35 36 29 48 61 48 130 0 64 -2
70 -32 98 -18 16 -42 29 -55 29 -12 0 -25 5 -29 11 -3 6 -16 8 -27 5 -12 -3
-29 2 -39 11 -15 13 -20 14 -33 3 -12 -10 -19 -10 -27 -2 -15 15 -25 15 -34 0z"/>
<path d="M6330 7315 c-14 -17 -47 -19 -85 -5 -34 13 -43 -8 -21 -51 9 -18 16
-42 16 -55 0 -18 6 -23 33 -26 29 -3 32 -6 29 -34 -2 -21 2 -33 13 -37 9 -4
15 -19 15 -40 0 -56 -40 -76 -75 -37 -14 15 -15 23 -6 33 14 18 2 30 -16 16
-16 -14 -17 -33 -1 -75 9 -27 9 -39 -2 -61 -8 -15 -16 -32 -19 -37 -2 -5 22
-6 57 -3 68 7 74 1 61 -62 -9 -42 -2 -86 17 -102 11 -9 15 -8 20 5 3 9 17 16
30 16 14 0 27 6 30 14 6 16 -19 71 -48 103 -18 19 -18 24 -6 50 10 22 23 30
63 38 74 15 78 19 58 63 -17 40 -25 90 -23 161 0 28 -6 51 -16 63 -10 10 -22
28 -28 40 -6 12 -20 22 -31 23 -11 2 -27 5 -36 9 -9 4 -21 0 -29 -9z"/>
<path d="M5630 7140 c0 -6 11 -15 25 -20 21 -8 25 -16 25 -47 -1 -62 -17 -125
-34 -135 -18 -10 -22 -43 -6 -53 6 -3 10 -20 10 -37 0 -29 1 -30 23 -15 12 8
36 17 54 21 25 6 34 3 46 -15 19 -26 37 -17 37 19 0 31 26 75 63 106 14 12 27
36 31 54 5 27 2 32 -14 32 -10 0 -22 5 -25 11 -4 6 -22 8 -44 4 -30 -5 -41 -2
-56 14 -10 12 -24 21 -32 21 -7 0 -31 11 -53 25 -44 28 -50 30 -50 15z"/>
<path d="M5899 6894 c-33 -34 -34 -38 -32 -107 2 -79 -12 -107 -52 -107 -12 0
-32 -11 -45 -25 -27 -29 -27 -30 68 -122 67 -66 82 -73 102 -48 24 28 90 175
90 199 0 27 20 47 64 61 29 9 31 13 32 60 0 28 4 67 9 88 5 25 4 37 -4 37 -6
0 -11 -8 -11 -18 0 -9 -11 -34 -25 -54 -14 -20 -25 -41 -25 -47 0 -5 -12 -28
-27 -50 -18 -28 -34 -41 -50 -41 -30 0 -40 39 -20 77 29 54 46 97 41 105 -3 4
-14 8 -24 8 -10 0 -22 5 -25 10 -11 18 -31 11 -66 -26z"/>
<path d="M5028 6873 c-9 -10 -19 -29 -23 -43 -10 -33 -24 -50 -42 -50 -16 0
-99 -82 -171 -168 -24 -29 -49 -52 -57 -52 -8 0 -20 -12 -27 -27 -7 -15 -26
-34 -42 -43 -16 -8 -38 -24 -50 -35 -12 -11 -38 -35 -59 -52 -36 -31 -66 -83
-48 -83 4 0 25 14 46 30 21 17 44 30 51 30 19 0 82 57 89 81 4 11 26 29 50 40
49 23 88 68 99 114 13 51 32 72 75 79 33 5 43 12 63 48 17 30 32 44 56 50 33
9 36 15 26 67 -7 35 -15 38 -36 14z"/>
<path d="M6143 6682 c-26 -23 -43 -46 -43 -59 0 -20 4 -22 56 -18 47 4 65 11
103 42 25 20 48 38 50 40 12 9 -20 21 -69 26 -53 6 -57 4 -97 -31z"/>
<path d="M6486 6622 c-3 -5 2 -32 10 -60 22 -76 16 -105 -25 -118 -18 -6 -38
-18 -43 -27 -11 -21 -26 -21 -49 -1 -26 23 -39 9 -39 -41 0 -24 -4 -47 -10
-50 -14 -9 -70 23 -70 40 0 8 -4 15 -10 15 -5 0 -10 -9 -10 -21 0 -44 -62
-109 -105 -109 -7 0 -29 23 -49 50 -20 28 -43 50 -51 50 -8 0 -24 9 -35 20
-27 27 -44 16 -24 -15 20 -31 11 -45 -31 -45 -36 0 -55 -20 -55 -59 0 -23 -30
-43 -63 -40 -46 4 -64 -2 -100 -35 -27 -25 -37 -42 -37 -65 0 -17 -12 -55 -27
-86 -25 -50 -26 -57 -12 -71 15 -14 18 -12 36 19 11 18 25 49 32 68 6 19 25
52 42 72 37 45 67 46 87 5 15 -31 33 -36 52 -13 17 20 26 19 50 -5 26 -26 37
-19 46 25 8 44 26 60 52 46 11 -6 22 -17 26 -26 3 -8 17 -15 33 -15 34 0 83
-45 83 -77 0 -13 -11 -45 -25 -71 -22 -42 -23 -52 -14 -86 6 -21 8 -47 6 -57
-9 -32 31 -68 129 -115 l95 -46 24 22 c32 30 57 21 49 -18 -4 -20 -1 -32 12
-42 15 -13 18 -12 32 8 8 12 22 22 31 22 14 0 17 10 16 53 0 28 -6 62 -13 74
-7 12 -12 31 -12 43 0 11 -7 35 -16 51 -17 35 -6 59 28 59 17 0 18 5 13 44 -6
35 -4 44 10 50 24 9 42 -9 49 -49 4 -19 18 -43 31 -54 29 -22 30 -29 9 -52
-17 -19 -11 -39 12 -39 14 0 16 6 18 65 1 22 8 33 31 44 41 20 45 27 45 102 0
52 -4 70 -19 83 -14 13 -18 31 -18 86 0 70 -12 100 -39 100 -19 0 -18 44 1 60
17 14 20 46 5 55 -5 3 -10 19 -10 36 0 22 -5 29 -20 29 -11 0 -27 11 -36 26
-9 14 -31 32 -48 41 -17 9 -37 24 -44 34 -14 20 -28 24 -36 11z"/>
<path d="M4885 5396 c-16 -7 -59 -41 -94 -74 -72 -70 -96 -81 -120 -58 -14 15
-14 19 -1 44 9 15 37 38 62 52 70 37 68 41 -18 34 -96 -7 -113 -18 -179 -113
-52 -76 -76 -96 -101 -87 -26 10 -15 48 26 85 22 20 40 42 40 48 0 13 -134
-58 -169 -90 -49 -45 -67 -140 -35 -185 14 -20 23 -22 123 -22 105 0 108 1
135 29 23 24 38 29 99 35 105 10 133 27 177 113 21 39 42 85 48 102 6 17 23
47 38 66 29 38 20 44 -31 21z"/>
<path d="M6300 4966 c-64 -19 -133 -37 -153 -41 -92 -18 -33 -25 197 -25 209
0 247 -2 260 -16 18 -17 21 -50 6 -59 -5 -3 -10 -19 -10 -34 0 -16 -6 -33 -12
-39 -16 -13 -497 -15 -518 -2 -15 9 -40 -4 -40 -21 0 -5 112 -9 248 -9 180 0
251 -3 260 -12 7 -7 12 -27 12 -45 0 -37 3 -38 49 -22 35 12 57 1 71 -36 14
-36 -6 -55 -55 -55 -45 0 -45 0 -45 -35 0 -19 5 -44 12 -54 9 -15 9 -26 0 -47
-7 -14 -11 -29 -8 -31 5 -5 92 41 154 82 27 18 47 25 61 20 16 -5 21 -2 21 13
0 19 36 59 45 50 3 -2 -4 -45 -15 -94 -23 -103 -25 -153 -7 -159 16 -7 115 8
267 38 69 14 137 23 151 20 23 -4 27 -1 32 29 4 18 7 107 8 197 2 160 1 165
-21 183 -28 23 -111 24 -171 2 -24 -9 -78 -18 -119 -20 -41 -3 -96 -7 -122
-10 -38 -5 -48 -3 -56 12 -16 30 -3 68 28 86 25 14 29 23 35 82 4 37 4 70 0
74 -3 4 -106 8 -228 9 l-222 3 -115 -34z"/>
<path d="M4206 4972 c-2 -4 12 -40 32 -80 l36 -72 266 0 265 0 36 75 c20 41
34 77 31 80 -9 8 -660 6 -666 -3z"/>
<path d="M7360 4762 c-22 -18 -23 -23 -21 -183 1 -90 4 -178 7 -196 6 -31 8
-32 57 -32 29 0 95 -10 147 -21 118 -26 238 -43 250 -35 16 10 11 64 -16 180
-14 61 -31 143 -39 183 -7 40 -15 75 -18 78 -2 3 -38 6 -78 8 -41 2 -94 11
-119 20 -62 22 -142 21 -170 -2z"/>
<path d="M4340 4767 c0 -3 16 -31 35 -63 20 -33 38 -69 41 -81 6 -22 10 -23
121 -23 l114 0 14 33 c7 17 27 51 45 75 17 23 28 47 25 51 -5 9 -395 16 -395
8z"/>
<path d="M5478 4153 c-20 -5 -22 -23 -11 -175 l6 -98 28 0 28 0 3 93 3 92 70
-92 c62 -83 73 -93 102 -93 l32 0 3 118 c4 155 3 162 -33 162 l-29 0 -1 -92 0
-93 -32 39 c-18 22 -50 62 -73 90 -39 49 -59 59 -96 49z"/>
<path d="M5816 4144 c-3 -8 -6 -71 -6 -138 l0 -123 63 -6 c116 -11 186 25 208
106 17 64 -5 117 -61 144 -61 29 -195 41 -204 17z m169 -69 c54 -54 18 -141
-63 -152 l-42 -6 0 85 c0 47 3 88 7 91 16 17 75 6 98 -18z"/>
<path d="M5186 4013 c-21 -70 -40 -136 -43 -146 -4 -16 0 -18 28 -15 31 3 41
13 53 51 4 13 17 17 59 17 48 0 55 -3 65 -25 9 -20 19 -25 47 -25 19 0 35 3
35 8 -1 4 -27 63 -59 132 l-58 125 -45 3 -45 3 -37 -128z"/>
<path d="M6315 4095 c-68 -35 -97 -110 -70 -181 21 -55 64 -82 142 -90 57 -6
60 -5 66 17 10 38 9 42 -19 36 -38 -7 -91 10 -109 36 -35 50 -5 129 54 142 17
4 44 0 66 -9 48 -20 45 -21 45 13 0 24 -6 31 -31 40 -45 15 -109 14 -144 -4z"/>
<path d="M4732 4067 c-34 -8 -43 -14 -39 -28 3 -9 15 -69 28 -133 27 -131 21
-126 121 -102 69 16 103 37 128 79 35 57 19 146 -33 180 -30 19 -133 22 -205
4z m155 -59 c11 -13 23 -32 27 -42 11 -31 -13 -85 -44 -101 -27 -14 -70 -20
-70 -11 0 2 -7 39 -15 81 -8 43 -12 82 -9 86 3 5 24 9 48 9 31 0 48 -6 63 -22z"/>
<path d="M6555 4029 c-105 -93 -40 -250 104 -252 61 -1 106 24 131 73 56 110
-12 210 -144 210 -48 0 -60 -4 -91 -31z m152 -34 c61 -43 20 -165 -55 -165
-36 0 -72 38 -72 76 0 38 22 89 42 97 26 10 64 7 85 -8z"/>
<path d="M4450 4002 c-128 -64 -95 -250 48 -269 54 -7 125 25 152 69 38 62 22
152 -36 197 -34 27 -114 28 -164 3z m115 -55 c38 -32 46 -103 15 -134 -48 -51
-127 -14 -136 64 -5 40 6 61 41 81 30 17 51 14 80 -11z"/>
<path d="M6861 3926 c-23 -94 -26 -138 -11 -167 16 -29 84 -59 136 -59 62 0
92 32 121 131 12 41 25 81 28 90 5 12 -2 20 -26 28 -18 6 -33 10 -35 9 -1 -2
-14 -42 -29 -90 -35 -117 -60 -139 -113 -102 -28 19 -28 55 -1 152 11 40 19
75 17 77 -2 1 -17 6 -34 9 l-31 7 -22 -85z"/>
<path d="M4190 3930 c-35 -12 -67 -32 -89 -55 -32 -35 -33 -40 -29 -98 4 -54
8 -63 41 -93 32 -30 43 -34 92 -34 54 0 132 27 154 54 7 8 4 33 -10 78 l-20
67 -52 -16 c-61 -18 -72 -26 -63 -49 5 -12 14 -15 35 -11 24 5 30 2 35 -16 9
-34 8 -35 -28 -47 -61 -20 -116 21 -116 88 0 39 34 78 77 87 77 16 81 19 72
43 -10 27 -27 27 -99 2z"/>
<path d="M7161 3789 c-45 -138 -45 -153 3 -147 15 2 26 22 45 81 14 42 28 77
32 77 4 0 19 -39 34 -87 14 -49 30 -98 35 -110 10 -24 56 -42 69 -27 11 12 91
223 91 239 0 13 -21 25 -45 25 -7 0 -25 -35 -41 -80 -16 -44 -31 -80 -34 -80
-3 0 -20 48 -38 106 -31 99 -36 106 -67 120 -19 8 -36 14 -37 14 -2 0 -23 -59
-47 -131z"/>
<path d="M7517 3793 c-16 -15 -5 -35 28 -49 19 -8 35 -17 35 -20 0 -3 -18 -47
-40 -99 -22 -52 -40 -98 -40 -103 0 -7 42 -32 54 -32 2 0 13 21 24 48 11 26
32 73 46 105 l26 57 41 -21 c34 -17 43 -18 50 -7 18 27 2 40 -101 83 -112 48
-113 48 -123 38z"/>
<path d="M3712 3750 l-62 -29 36 -78 c19 -43 45 -99 56 -125 11 -27 22 -48 24
-48 12 0 54 25 54 32 0 5 -7 25 -15 45 -8 19 -15 39 -15 44 0 19 43 8 86 -22
42 -28 47 -30 81 -18 l37 12 -30 23 c-16 13 -45 32 -65 42 -33 17 -35 20 -23
37 19 25 18 80 -2 99 -24 25 -91 19 -162 -14z"/>
<path d="M7750 3602 c-80 -168 -81 -172 -35 -186 17 -5 25 2 43 39 33 69 51
59 63 -35 8 -54 33 -90 64 -90 14 0 11 52 -5 118 -8 30 -7 32 19 32 34 0 71
37 71 71 0 33 -39 69 -117 108 l-62 31 -41 -88z"/>
<path d="M3463 3635 c-64 -29 -93 -71 -93 -135 0 -121 124 -179 235 -110 47
29 80 96 70 143 -11 49 -42 93 -79 111 -46 22 -72 20 -133 -9z m108 -64 c58
-58 30 -151 -45 -151 -63 0 -112 94 -73 142 35 45 79 48 118 9z"/>
<path d="M8029 3563 c0 -5 0 -50 1 -101 1 -83 -1 -97 -24 -137 -14 -24 -26
-46 -26 -48 0 -6 60 -31 64 -26 1 2 13 21 25 42 16 27 46 50 107 84 46 26 84
49 84 53 0 3 -13 13 -28 22 -28 17 -30 16 -80 -17 -28 -19 -54 -35 -57 -35 -4
0 -5 29 -3 64 1 36 0 66 -2 68 -25 20 -60 37 -61 31z"/>
<path d="M3212 3501 c-34 -21 -67 -42 -73 -48 -8 -8 8 -44 57 -127 38 -63 72
-116 75 -116 4 0 17 9 30 19 l24 19 -23 41 c-27 47 -22 60 28 81 34 14 34 14
19 41 -10 20 -11 20 -55 -5 l-44 -25 -15 22 c-23 32 -19 41 28 67 23 13 43 24
45 26 6 4 -18 44 -26 43 -4 0 -35 -18 -70 -38z"/>
<path d="M4848 3282 l-128 -26 0 -57 0 -57 43 9 c23 5 52 11 65 14 l22 5 0
-200 0 -200 -65 0 -65 0 0 -55 0 -55 206 0 205 0 -3 53 -3 52 -65 5 -65 5 -3
268 c-1 147 -6 266 -10 266 -4 -1 -64 -13 -134 -27z"/>
<path d="M5350 3297 c-47 -15 -116 -86 -129 -133 -31 -111 11 -225 96 -260 53
-23 125 -18 167 11 20 14 39 25 42 25 8 0 -8 -73 -22 -102 -41 -81 -134 -106
-236 -63 -16 6 -18 1 -18 -49 0 -51 2 -57 26 -66 14 -6 60 -10 104 -10 66 0
86 4 131 28 101 52 151 162 151 331 -1 153 -47 245 -144 285 -43 18 -117 19
-168 3z m147 -136 c33 -50 31 -105 -6 -142 -18 -17 -40 -29 -56 -29 -16 0 -38
12 -56 29 -62 63 -21 186 60 179 27 -2 40 -11 58 -37z"/>
<path d="M5860 3283 c-78 -41 -114 -101 -114 -191 -1 -80 21 -131 72 -170 31
-23 45 -27 106 -27 58 0 77 4 104 23 29 21 32 22 32 5 0 -42 -24 -99 -54 -129
-45 -45 -126 -53 -208 -19 -16 6 -18 1 -18 -48 0 -32 5 -59 12 -63 22 -14 167
-17 212 -4 90 25 156 107 181 226 37 174 -2 326 -100 393 -26 17 -53 25 -103
28 -60 4 -73 2 -122 -24z m164 -114 c36 -43 37 -119 1 -154 -31 -32 -75 -32
-111 -1 -24 20 -28 31 -28 79 -1 45 3 60 23 81 35 37 81 35 115 -5z"/>
<path d="M6417 3299 c-21 -5 -51 -16 -67 -24 -28 -15 -30 -19 -30 -76 0 -33 3
-59 8 -57 99 51 127 60 164 55 49 -7 76 -30 84 -72 10 -58 -19 -102 -157 -235
l-129 -125 0 -52 0 -53 215 0 215 0 0 55 0 55 -131 0 c-72 0 -129 4 -127 8 2
5 43 44 91 87 123 110 167 178 167 261 0 140 -129 214 -303 173z"/>
<path d="M7695 9058 c-54 -83 -99 -158 -102 -167 -5 -21 125 -106 187 -122 89
-23 181 28 226 126 36 77 29 132 -24 189 -29 30 -165 126 -180 126 -5 0 -53
-68 -107 -152z m196 3 c31 -31 39 -46 39 -75 0 -76 -55 -136 -124 -136 -36 0
-106 30 -106 45 0 15 131 205 141 205 6 0 29 -17 50 -39z"/>
<path d="M3413 9141 c-13 -11 -23 -22 -23 -26 0 -4 30 -48 66 -98 36 -49 68
-96 71 -103 5 -14 -19 -6 -220 70 l-69 26 -34 -26 c-19 -15 -34 -30 -34 -35 0
-12 218 -303 230 -307 11 -4 59 29 60 40 0 4 -34 54 -76 110 -41 56 -71 104
-67 105 4 2 73 -22 153 -51 l145 -55 30 24 c17 12 30 28 30 35 0 17 -217 309
-230 309 -5 0 -20 -8 -32 -18z"/>
<path d="M8031 8819 c-94 -61 -171 -115 -171 -119 0 -12 50 -50 65 -50 7 0 24
9 38 20 34 27 40 26 97 -17 42 -32 49 -42 44 -63 -16 -76 -17 -74 16 -99 18
-12 36 -19 40 -15 4 5 31 83 60 174 28 91 55 177 60 191 7 24 4 30 -35 58
l-43 31 -171 -111z"/>
<path d="M3042 8877 c-12 -13 -22 -26 -22 -29 0 -4 38 -50 85 -105 110 -126
116 -149 53 -196 -42 -31 -71 -15 -166 94 -48 55 -91 99 -97 99 -5 -1 -23 -11
-38 -24 l-28 -23 92 -106 c109 -127 157 -157 220 -138 45 14 103 61 125 102
19 37 18 93 -2 132 -22 41 -175 217 -189 217 -7 0 -21 -10 -33 -23z"/>
<path d="M8334 8764 l-18 -27 37 -32 c20 -18 37 -36 37 -41 0 -5 -34 -47 -76
-94 -42 -47 -87 -100 -101 -118 l-26 -33 23 -24 c13 -14 29 -25 36 -25 6 0 56
51 110 114 55 63 104 115 110 115 6 1 19 -8 30 -20 33 -36 53 -43 75 -23 10 9
19 22 18 28 0 10 -210 197 -229 204 -5 2 -17 -9 -26 -24z"/>
<path d="M8596 8521 c-9 -10 -14 -25 -11 -33 4 -10 -25 -41 -91 -97 -78 -66
-99 -79 -111 -69 -11 9 -19 6 -38 -13 l-25 -24 53 -59 52 -58 20 22 c11 12 20
30 20 40 0 11 37 50 88 94 69 59 93 75 111 70 14 -3 28 2 40 15 18 20 18 22
-28 76 -26 30 -51 55 -55 55 -4 0 -15 -8 -25 -19z"/>
<path d="M2452 8330 c-18 -21 -32 -41 -32 -45 0 -11 202 -355 209 -355 4 0 20
13 36 30 l28 29 -26 40 -26 40 45 56 c34 41 51 54 63 50 71 -29 71 -29 101 6
20 24 24 36 16 41 -7 4 -84 34 -172 67 -87 32 -170 64 -184 69 -23 9 -29 6
-58 -28z"/>
<path d="M8619 8312 c-77 -40 -113 -95 -114 -171 0 -47 6 -66 30 -107 59 -94
159 -120 264 -68 93 47 136 133 112 223 -36 134 -167 189 -292 123z m178 -77
c29 -20 46 -75 34 -107 -13 -35 -79 -87 -118 -94 -89 -17 -154 54 -118 129 33
70 147 110 202 72z"/>
<path d="M2236 8039 c-94 -104 -95 -220 -4 -305 77 -73 163 -85 239 -34 52 35
107 112 115 162 6 35 4 37 -68 92 -41 31 -77 56 -80 56 -7 0 -87 -105 -94
-123 -6 -16 45 -54 55 -40 3 5 14 20 23 32 l17 23 30 -21 c39 -28 39 -41 -3
-85 -26 -29 -41 -36 -70 -36 -76 0 -146 63 -146 131 0 51 20 89 67 128 l38 32
-25 19 c-14 11 -30 20 -37 20 -6 0 -32 -23 -57 -51z"/>
<path d="M8858 7952 l-156 -107 18 -30 c11 -16 23 -31 28 -33 4 -1 55 29 112
68 57 38 105 68 107 66 2 -2 -23 -70 -57 -150 l-60 -147 26 -34 c15 -20 31
-32 38 -28 28 16 283 188 298 201 18 15 15 26 -14 65 -12 16 -21 13 -117 -53
-57 -39 -106 -68 -109 -66 -2 3 22 67 54 142 l58 137 -21 36 c-12 20 -27 37
-34 38 -8 1 -85 -46 -171 -105z"/>
<path d="M2055 7720 c-11 -4 -29 -18 -41 -31 -26 -29 -94 -156 -94 -175 0 -11
296 -171 337 -182 11 -3 43 46 43 66 0 5 -29 24 -64 42 -56 29 -63 36 -55 52
12 22 -3 17 104 31 89 12 90 12 110 49 11 20 17 39 14 43 -7 6 -165 -10 -191
-20 -15 -6 -18 -2 -18 20 0 38 -29 82 -66 100 -36 17 -50 18 -79 5z"/>
<path d="M1837 7342 c-30 -53 -52 -100 -48 -104 10 -10 330 -188 338 -188 9 0
113 185 113 200 0 5 -13 16 -28 24 l-28 15 -38 -65 -37 -64 -30 15 c-42 22
-45 38 -14 91 l28 47 -24 18 c-13 10 -28 17 -34 16 -5 -2 -23 -27 -38 -55
l-28 -52 -40 21 -40 20 30 56 c17 31 31 60 31 65 0 4 -13 14 -29 23 l-29 15
-55 -98z"/>
<path d="M9292 7285 c-127 -39 -176 -156 -118 -280 31 -67 45 -78 85 -64 17 6
31 13 31 15 0 2 -11 20 -25 40 -61 90 -31 174 76 204 73 21 143 -33 155 -119
l6 -49 37 13 c33 11 36 16 33 46 -4 53 -46 134 -83 161 -64 48 -120 57 -197
33z"/>
<path d="M1761 7169 c-6 -18 -11 -38 -11 -45 0 -7 52 -52 115 -101 63 -48 115
-92 115 -97 0 -5 -21 -6 -47 -3 -27 4 -96 9 -155 13 l-106 7 -13 -42 c-7 -23
-10 -43 -8 -45 2 -2 96 -7 209 -11 l205 -7 17 45 16 45 -36 34 c-51 48 -278
238 -285 238 -3 0 -10 -14 -16 -31z"/>
<path d="M9236 6898 c21 -68 21 -68 72 -68 l48 0 21 -65 21 -65 -35 -29 c-35
-29 -36 -31 -25 -73 5 -24 11 -59 11 -78 1 -19 6 -39 11 -44 8 -8 95 3 240 30
19 4 -5 -24 -93 -108 l-118 -113 7 -43 c4 -27 12 -42 21 -42 15 0 290 45 346
56 23 5 27 10 27 40 0 22 -6 37 -15 40 -9 4 -68 -3 -132 -15 -64 -11 -118 -19
-120 -18 -1 2 49 50 113 108 l115 104 -5 44 c-4 25 -8 47 -11 49 -3 3 -82 -7
-176 -22 -93 -16 -172 -26 -175 -24 -2 3 65 61 149 128 l154 123 -15 48 c-14
45 -17 47 -60 53 -25 3 -121 6 -214 6 l-169 0 7 -22z"/>
<path d="M1605 6778 c-3 -8 -7 -27 -8 -43 l-2 -29 123 -25 c67 -14 122 -28
122 -31 0 -3 -64 -30 -141 -60 -150 -58 -164 -70 -157 -129 3 -25 9 -27 158
-58 249 -52 226 -51 233 -7 4 21 5 39 3 41 -1 2 -60 15 -130 30 -69 15 -123
30 -119 34 5 4 71 32 148 62 l140 54 12 43 c7 24 11 45 10 47 -2 1 -82 19
-178 38 -96 20 -182 38 -192 41 -9 3 -19 -1 -22 -8z"/>
<path d="M1515 6318 c-8 -29 -23 -203 -17 -209 10 -8 381 -43 388 -37 3 4 10
54 16 113 12 115 9 125 -39 125 -19 0 -22 -7 -28 -76 -7 -71 -9 -75 -29 -70
-11 3 -32 6 -45 6 -23 0 -24 2 -18 64 l6 64 -31 6 c-42 8 -48 2 -48 -52 0 -65
-9 -76 -55 -68 l-38 7 5 70 5 69 -34 0 c-18 0 -35 -6 -38 -12z"/>
<path d="M9720 6204 c-8 -1 -82 -8 -164 -15 l-149 -12 6 -92 c6 -105 21 -147
68 -192 42 -40 77 -53 137 -53 86 1 147 34 180 95 17 31 21 168 8 240 -6 32
-10 35 -39 34 -18 -1 -39 -3 -47 -5z m20 -139 c0 -88 -44 -131 -133 -129 -44
0 -54 5 -83 37 -27 29 -34 45 -34 76 0 37 2 40 33 45 41 7 98 12 165 14 l52 2
0 -45z"/>
<path d="M9610 5803 c-90 -2 -168 -7 -173 -12 -4 -4 -5 -59 -1 -120 l7 -112
31 3 31 3 3 73 3 72 44 0 44 0 3 -62 c3 -63 3 -63 35 -66 l32 -3 3 68 3 68 40
0 40 0 3 -67 3 -68 39 0 40 0 0 105 c0 104 0 106 -26 115 -14 6 -28 9 -32 8
-4 -1 -81 -4 -172 -5z"/>
<path d="M1661 5645 c-17 -15 -39 -50 -51 -83 -25 -67 -36 -82 -61 -82 -30 0
-42 37 -35 103 6 58 5 59 -17 53 -12 -3 -30 -6 -39 -6 -15 0 -18 -10 -18 -70
0 -116 40 -173 122 -173 55 0 82 23 113 100 26 63 48 93 66 93 4 0 15 -8 24
-17 13 -13 16 -29 12 -72 -2 -31 -8 -65 -12 -75 -8 -17 -5 -19 30 -13 21 3 43
11 48 16 5 5 10 41 9 79 0 112 -42 171 -119 172 -30 0 -50 -7 -72 -25z"/>
<path d="M9426 5489 c-3 -19 -7 -71 -10 -117 -4 -80 -4 -82 20 -88 45 -11 54
0 54 70 0 36 4 67 9 70 5 3 77 1 162 -4 84 -5 153 -9 154 -7 1 1 5 20 8 43 l7
41 -68 6 c-37 4 -126 9 -199 13 l-132 7 -5 -34z"/>
<path d="M9396 5238 c-14 -56 -8 -74 34 -93 39 -17 40 -20 34 -54 -19 -111
-16 -106 -62 -112 -23 -3 -43 -7 -46 -10 -2 -2 -7 -23 -11 -46 -5 -33 -4 -43
7 -43 31 0 393 71 400 78 4 4 9 29 10 55 l3 48 -170 96 c-93 52 -175 97 -181
100 -6 2 -14 -6 -18 -19z"/>
<path d="M1833 5052 c-10 -6 -11 -25 -5 -76 6 -47 5 -69 -2 -71 -6 -2 -60 -8
-121 -14 -60 -7 -129 -14 -152 -17 l-43 -6 6 -42 c4 -22 8 -42 9 -44 5 -6 380
40 387 46 6 6 -7 157 -18 210 -5 23 -36 30 -61 14z"/>
<path d="M9327 4842 c-3 -4 -8 -24 -12 -44 -7 -35 -6 -36 27 -43 90 -18 108
-26 108 -45 0 -23 -20 -35 -109 -65 -63 -21 -66 -23 -78 -65 -7 -24 -11 -46
-8 -48 5 -5 157 47 170 59 14 14 35 11 35 -6 0 -8 13 -29 28 -46 21 -24 38
-32 75 -36 42 -5 49 -3 75 25 29 30 54 103 68 189 6 40 5 42 -22 49 -16 3 -90
21 -164 39 -191 46 -188 46 -193 37z"/>
<path d="M1906 4762 c-27 -3 -28 -5 -22 -40 4 -20 10 -56 13 -78 5 -41 5 -41
-31 -48 -46 -9 -52 -5 -60 41 -12 64 -16 73 -39 73 -43 0 -48 -11 -36 -73 7
-32 9 -60 6 -63 -3 -3 -21 -9 -41 -14 -39 -9 -36 -14 -56 77 -12 51 -12 52
-43 46 -18 -3 -33 -7 -35 -8 -5 -5 40 -209 47 -218 6 -6 333 61 377 77 12 4
-30 215 -44 226 -4 3 -20 4 -36 2z"/>
<path d="M9206 4412 c-20 -60 -36 -117 -36 -125 0 -9 14 -25 30 -37 35 -25 36
-34 13 -107 -17 -53 -17 -53 -59 -53 -47 0 -63 -13 -70 -62 l-6 -34 169 3 c92
2 187 6 210 9 39 5 42 8 57 52 13 37 14 48 4 57 -7 7 -76 60 -153 120 -165
127 -168 130 -136 122 15 -4 29 -1 35 8 16 21 252 -55 248 -79 -3 -17 42 -41
58 -31 5 3 16 30 25 60 8 30 18 61 21 68 8 22 -53 41 -64 21 -8 -14 -25 -11
-126 21 -97 31 -119 41 -126 61 -5 13 -14 24 -19 24 -5 0 -16 3 -24 6 -11 4
-23 -20 -51 -104z"/>
<path d="M1825 4419 c-44 -16 -99 -36 -122 -45 l-43 -16 16 -36 c8 -20 17 -38
19 -40 3 -3 57 14 120 37 64 23 130 43 147 43 58 2 91 -79 50 -120 -10 -10
-73 -38 -140 -62 -67 -24 -122 -49 -122 -56 0 -6 5 -25 11 -43 13 -36 1 -38
159 20 109 40 141 59 173 101 41 56 9 189 -57 229 -44 27 -115 23 -211 -12z"/>
<path d="M2060 4084 c-47 -25 -124 -66 -172 -90 l-88 -44 17 -35 c9 -19 21
-35 27 -35 6 1 58 25 116 55 57 30 106 52 108 50 3 -2 -29 -64 -71 -137 l-75
-132 20 -41 c11 -22 21 -41 23 -43 3 -4 355 179 355 184 0 15 -32 64 -42 64
-6 0 -60 -25 -121 -56 -60 -31 -110 -54 -112 -52 -2 2 32 66 75 142 l79 140
-20 38 c-11 21 -23 38 -27 38 -4 0 -45 -21 -92 -46z"/>
<path d="M8972 3767 c-11 -14 -62 -114 -62 -121 0 -3 13 -12 29 -20 26 -14 30
-14 35 0 9 23 232 -98 229 -124 -1 -12 8 -24 24 -31 23 -11 29 -10 41 6 18 24
64 114 60 118 -22 18 -51 25 -63 15 -21 -17 -237 98 -231 123 6 23 -47 53 -62
34z"/>
<path d="M2230 3628 c-63 -77 -123 -150 -132 -162 -17 -22 -16 -25 11 -68 l29
-45 193 38 c107 22 200 41 207 44 10 3 7 15 -10 45 -24 42 -21 42 -92 24 -20
-5 -28 2 -61 55 l-37 61 31 35 30 35 -20 35 c-12 19 -24 37 -28 39 -4 3 -58
-59 -121 -136z"/>
<path d="M8840 3569 c-26 -35 -36 -25 105 -114 52 -33 94 -63 94 -67 1 -5 -72
-8 -161 -8 l-163 0 -23 -36 c-13 -20 -20 -39 -15 -43 28 -23 324 -213 326
-210 2 2 13 18 25 35 l22 32 -113 73 -112 74 162 3 163 2 25 37 c13 21 21 40
17 44 -18 17 -314 209 -322 209 -5 0 -18 -14 -30 -31z"/>
<path d="M2428 3268 l-157 -111 32 -45 c18 -24 38 -47 45 -49 7 -3 70 11 140
31 70 20 131 36 135 36 4 0 -28 -48 -71 -107 -43 -60 -81 -114 -86 -121 -8
-13 60 -115 74 -110 4 2 77 52 163 113 146 102 156 111 143 129 -29 45 -38 43
-151 -38 -59 -43 -109 -76 -111 -74 -2 3 35 59 82 126 84 120 85 121 68 146
-9 15 -24 26 -33 26 -15 0 -71 -15 -243 -65 -27 -8 -48 -12 -48 -11 0 2 54 41
119 86 l119 83 -21 33 c-12 19 -26 33 -32 33 -5 0 -81 -50 -167 -111z"/>
<path d="M8617 3206 c-51 -15 -101 -57 -133 -112 l-27 -45 23 -25 c13 -13 27
-24 32 -24 4 0 17 18 28 40 51 101 171 104 230 8 36 -60 16 -135 -47 -174 -15
-10 -30 -19 -32 -21 -8 -6 42 -53 56 -53 8 0 34 21 58 46 88 90 93 198 14 288
-59 67 -132 93 -202 72z"/>
<path d="M8191 2624 c-50 -42 -40 -108 20 -139 72 -38 146 34 115 109 -25 61
-84 74 -135 30z"/>
<path d="M3075 2585 c-54 -53 -16 -145 58 -145 52 0 87 32 87 81 0 80 -90 120
-145 64z"/>
<path d="M7882 2435 c-99 -43 -141 -127 -93 -186 18 -22 26 -24 94 -21 44 1
78 -2 82 -8 20 -32 -36 -80 -95 -80 -34 0 -34 0 -18 -35 13 -30 36 -32 86 -6
62 32 102 79 102 120 -1 62 -20 75 -113 81 -66 4 -82 8 -85 22 -4 23 32 57 68
65 32 6 37 20 18 46 -12 14 -17 14 -46 2z"/>
<path d="M3486 2400 c-95 -29 -139 -167 -81 -253 14 -20 30 -37 35 -37 4 0 16
-23 25 -50 19 -58 55 -104 96 -126 33 -17 44 -13 52 16 4 15 -2 24 -23 35 -31
16 -60 51 -60 72 0 7 12 13 28 13 15 0 41 9 59 20 78 47 98 186 37 251 -30 32
-97 69 -124 68 -8 0 -28 -5 -44 -9z m103 -86 c35 -29 40 -63 17 -119 -25 -59
-88 -74 -131 -30 -41 40 -27 122 27 159 31 22 52 20 87 -10z"/>
<path d="M7613 2279 l-72 -40 18 -47 c46 -116 94 -228 100 -234 9 -10 165 76
168 93 2 8 -1 21 -7 29 -8 13 -17 11 -60 -12 -27 -16 -52 -28 -54 -28 -6 0
-29 60 -25 64 2 2 23 13 47 25 39 20 41 23 31 44 -7 12 -13 23 -14 25 -2 2
-22 -6 -45 -18 -45 -23 -55 -20 -65 21 -6 22 -2 28 35 44 22 10 43 22 46 27 6
9 -13 48 -24 48 -4 0 -39 -19 -79 -41z"/>
<path d="M3741 2174 c-61 -141 -53 -202 30 -244 67 -35 125 -28 157 18 20 28
82 185 82 206 0 10 -39 36 -54 36 -2 0 -20 -42 -40 -94 -20 -51 -45 -101 -56
-111 -32 -29 -90 3 -90 50 0 13 16 60 35 105 19 45 35 88 35 96 0 13 -29 34
-48 34 -5 0 -28 -43 -51 -96z"/>
<path d="M7427 2188 c-16 -12 -15 -19 18 -107 19 -52 34 -95 32 -97 -1 -1 -44
29 -96 67 -90 68 -94 70 -127 59 -19 -7 -34 -17 -34 -23 0 -24 92 -287 100
-287 5 0 20 4 34 10 l25 9 -34 101 c-18 55 -31 100 -28 100 3 0 22 -13 42 -28
20 -16 63 -47 96 -69 58 -39 62 -40 93 -27 18 7 32 19 31 26 -2 33 -106 273
-119 276 -9 1 -23 -3 -33 -10z"/>
<path d="M4031 1984 c-29 -80 -51 -147 -49 -149 2 -2 43 -19 91 -38 l88 -36 9
25 c6 14 10 27 10 28 0 2 -25 14 -55 26 -59 24 -60 25 -45 64 l9 25 46 -17
c40 -15 47 -15 55 -2 17 27 10 38 -36 56 -41 16 -45 20 -39 43 10 39 18 43 58
26 54 -22 69 -20 65 11 -2 21 -15 30 -73 55 -38 16 -72 29 -76 29 -3 0 -30
-66 -58 -146z"/>
<path d="M7103 2053 c-47 -16 -56 -41 -24 -64 25 -18 76 -186 62 -203 -9 -10
-5 -56 4 -56 14 0 115 45 115 51 0 18 -13 39 -25 39 -18 0 -78 192 -63 201 13
8 1 49 -15 48 -7 0 -31 -7 -54 -16z"/>
<path d="M4287 2044 c-4 -4 -7 -17 -7 -30 0 -18 10 -26 57 -41 31 -11 58 -23
60 -29 1 -5 -42 -40 -97 -79 -96 -67 -125 -100 -101 -114 19 -12 232 -84 236
-80 2 2 6 16 10 30 6 25 3 26 -72 48 -75 22 -77 23 -57 39 11 10 60 47 107 85
55 42 87 74 87 86 0 16 -19 26 -97 52 -54 17 -103 34 -109 36 -5 2 -13 0 -17
-3z"/>
<path d="M6884 1979 l-61 -20 36 -149 c20 -82 39 -151 42 -154 3 -4 20 -1 36
5 l31 10 -14 52 c-7 28 -12 52 -11 52 1 1 20 8 42 16 83 31 111 134 50 186
-32 28 -68 28 -151 2z"/>
<path d="M4606 1930 c-65 -20 -106 -85 -106 -168 0 -88 68 -152 160 -152 84 0
136 53 146 148 12 112 -95 204 -200 172z m104 -80 c25 -25 27 -97 5 -140 -42
-81 -159 -21 -141 72 15 80 88 116 136 68z"/>
<path d="M6615 1906 c-27 -7 -50 -16 -50 -22 0 -44 51 -297 60 -300 6 -3 23 0
38 5 24 9 26 14 20 43 -13 63 -10 70 32 84 22 8 51 26 64 41 20 23 22 34 18
77 -8 83 -55 102 -182 72z"/>
<path d="M4885 1868 c-2 -7 -15 -76 -28 -153 -25 -147 -24 -155 20 -155 23 0
25 4 43 125 6 38 13 71 15 73 2 2 10 -11 18 -29 58 -137 91 -198 110 -203 52
-14 53 -13 66 107 6 61 14 133 18 160 l6 47 -31 0 c-36 0 -38 -6 -48 -108 -4
-40 -10 -75 -14 -77 -5 -3 -29 44 -56 104 -34 80 -53 111 -68 115 -33 9 -46 7
-51 -6z"/>
<path d="M6465 1875 c-5 -2 -22 -6 -37 -9 -31 -7 -39 -39 -14 -53 17 -10 51
-206 36 -211 -6 -2 -10 -15 -10 -29 0 -25 1 -25 52 -19 28 4 55 9 60 12 14 9
9 54 -6 54 -15 0 -18 9 -37 129 -9 57 -9 75 1 81 31 19 -8 58 -45 45z"/>
<path d="M6221 1831 c-12 -8 -12 -30 0 -158 16 -171 9 -163 130 -143 61 11 69
14 69 34 0 32 -4 34 -62 25 -29 -5 -53 -7 -54 -6 -2 1 -8 43 -14 92 -18 154
-20 165 -38 165 -10 0 -23 -4 -31 -9z"/>
<path d="M6047 1814 c-12 -12 -8 -46 7 -58 19 -14 34 -206 17 -206 -6 0 -11
-11 -11 -25 0 -25 2 -26 58 -23 54 3 57 4 60 31 2 18 -1 27 -11 27 -10 0 -16
19 -20 68 -10 98 -8 142 4 142 6 0 9 10 7 23 -3 19 -10 22 -53 25 -28 2 -54 0
-58 -4z"/>
<path d="M5930 1745 l0 -65 -65 0 -65 0 0 60 0 60 -35 0 -36 0 3 -157 3 -158
39 -3 38 -3 -3 63 -4 63 60 6 c33 3 62 4 64 2 3 -2 7 -30 9 -63 l4 -60 35 0
35 0 -6 133 c-10 181 -11 187 -47 187 l-29 0 0 -65z"/>
<path d="M5456 1648 c-8 -162 -6 -168 42 -168 18 0 22 5 22 33 0 60 10 77 41
77 42 0 95 25 109 50 16 31 17 84 1 113 -19 36 -52 47 -135 47 l-73 0 -7 -152z"/>
<path d="M8177 10363 c-4 -3 -7 -16 -7 -27 0 -17 2 -18 9 -7 7 11 12 7 20 -20
l11 -34 -4 43 -4 42 37 0 c32 0 38 -4 48 -30 10 -27 9 -30 -8 -30 -11 0 -17 5
-14 10 3 6 -1 10 -9 10 -9 0 -16 -6 -16 -14 0 -25 12 -46 26 -46 9 0 14 -11
14 -30 0 -16 5 -30 11 -30 7 0 9 11 6 27 -6 30 1 53 14 53 12 0 11 -207 -1
-215 -5 -3 -10 -1 -10 6 0 7 -3 10 -6 6 -7 -7 8 -35 19 -36 4 -1 14 -1 22 -1
8 0 15 -4 15 -10 0 -5 -6 -10 -14 -10 -15 0 -28 -24 -19 -34 4 -3 17 -6 30 -6
25 0 45 31 25 38 -28 9 -9 22 32 22 35 0 45 -4 49 -20 3 -11 1 -20 -4 -20 -5
0 -9 -4 -9 -10 0 -5 9 -10 20 -10 17 0 20 -7 20 -50 l0 -50 108 -1 c69 -1 98
-4 82 -9 -19 -6 -10 -8 35 -9 42 0 56 2 45 9 -11 7 3 10 48 10 35 0 62 -4 62
-10 0 -5 23 -10 50 -10 28 0 50 5 50 10 0 6 23 10 51 10 41 0 50 -3 45 -15 -3
-9 0 -15 9 -15 9 0 12 6 8 18 -5 14 -3 15 8 5 7 -7 20 -13 29 -13 13 0 13 1 0
10 -11 7 2 10 43 10 49 0 57 -3 55 -17 -2 -10 5 -19 15 -21 15 -3 18 0 12 17
-6 21 -4 21 145 21 l151 0 34 -35 c26 -26 35 -43 35 -69 0 -19 -5 -36 -12 -38
-8 -3 -3 -14 14 -31 20 -20 28 -23 32 -12 2 7 0 16 -7 19 -7 2 21 5 61 5 l72
1 0 -60 c0 -53 -2 -60 -20 -60 -11 0 -20 -4 -20 -9 0 -5 -7 -16 -15 -24 -13
-13 -13 -16 1 -21 8 -3 13 -2 10 2 -2 4 -1 14 4 22 7 11 11 10 25 -3 18 -19
16 -54 -4 -49 -7 1 -11 -3 -8 -10 2 -7 10 -12 16 -10 6 1 10 -1 9 -5 -4 -15
15 -118 19 -105 3 6 8 12 12 12 11 0 31 -47 31 -70 0 -11 5 -20 11 -20 13 0 1
63 -12 68 -5 2 -9 8 -9 13 0 5 25 9 55 9 l55 0 -1 -52 c0 -29 -3 -47 -6 -40
-7 18 -33 14 -33 -5 0 -20 19 -54 20 -38 1 6 6 -1 11 -14 11 -27 3 -43 -11
-21 -6 9 -8 1 -6 -24 2 -21 10 -43 17 -48 11 -7 11 -11 2 -15 -15 -6 -17 -43
-3 -43 6 0 10 -18 10 -41 0 -44 -19 -46 -21 -1 l-1 27 -8 -25 c-14 -44 -11
-60 10 -60 17 0 20 -7 20 -40 0 -40 0 -40 -39 -40 -33 0 -40 4 -45 25 -3 13 1
44 9 67 17 49 20 108 5 108 -5 0 -10 -7 -10 -16 0 -8 -4 -12 -10 -9 -5 3 -10
2 -10 -4 0 -5 5 -11 12 -13 8 -3 7 -20 -4 -66 -9 -34 -12 -62 -7 -62 5 0 9 -7
9 -15 0 -8 -4 -15 -10 -15 -5 0 -10 5 -10 12 0 6 -9 1 -20 -12 -22 -25 -28
-42 -8 -22 7 7 40 12 80 12 l68 0 0 125 c0 83 -4 132 -12 145 -11 17 -10 22 1
30 12 7 13 15 4 44 -6 20 -7 36 -2 36 5 0 9 27 9 60 l0 60 -64 0 c-92 0 -96 7
-96 182 l0 138 -80 0 -80 0 0 71 c0 70 0 71 -24 67 -15 -3 -27 0 -30 8 -7 19
-586 20 -616 2 -15 -10 -26 -10 -53 0 -40 15 -157 16 -157 2 0 -5 -7 -10 -15
-10 -8 0 -15 4 -15 10 0 5 -45 11 -102 12 l-103 3 -3 45 c-2 24 -9 48 -15 53
-9 7 -9 10 1 14 6 2 12 13 12 23 0 17 -9 20 -77 22 l-78 3 -3 118 c-1 64 -6
117 -11 117 -4 0 -14 18 -21 40 -13 40 -13 40 -65 40 -28 0 -55 -3 -58 -7z"/>
<path d="M1748 9813 l-3 -78 -77 -3 -78 -3 0 -64 c0 -80 -16 -95 -102 -95
l-58 0 0 -189 c0 -104 -3 -198 -6 -208 -5 -16 -4 -16 5 -1 6 9 11 68 12 132 0
79 4 116 12 116 8 0 7 4 -1 12 -14 14 -16 88 -3 88 5 0 12 -6 14 -12 4 -10 6
-10 6 0 1 7 -6 15 -14 18 -30 12 -16 34 20 34 19 0 35 -4 35 -10 0 -5 5 -10
11 -10 5 0 7 5 4 10 -3 6 5 10 19 10 25 0 55 23 57 43 0 7 0 36 -1 65 l-1 52
103 1 c81 0 98 3 81 11 -14 7 -23 20 -23 35 0 29 16 30 24 1 6 -22 7 -22 20
-5 7 9 18 17 25 17 6 0 11 5 11 10 0 6 -9 10 -19 10 -11 0 -22 6 -24 13 -4 10
-6 10 -6 0 -1 -15 -31 -18 -31 -3 0 5 9 14 20 20 11 6 20 20 20 31 0 20 4 21
71 17 56 -3 74 -8 86 -23 11 -14 17 -16 20 -7 3 6 13 12 24 12 10 0 19 5 19
10 0 6 70 10 190 10 183 0 190 -1 190 -20 0 -18 7 -20 80 -20 45 0 80 4 80 10
0 5 25 9 56 8 30 -1 59 3 62 9 4 6 35 11 70 11 35 0 66 3 69 6 4 3 -28 6 -70
6 -42 0 -79 -4 -82 -10 -3 -5 -30 -10 -60 -10 -30 0 -57 -4 -60 -10 -3 -5 -33
-10 -67 -10 -51 0 -61 3 -65 20 -5 19 -14 20 -199 20 -133 0 -200 -4 -213 -12
-15 -9 -25 -9 -46 0 -14 7 -66 12 -115 12 l-89 0 -3 -77z"/>
<path d="M1428 9000 c2 -69 9 -131 15 -137 6 -9 6 -13 -1 -13 -16 0 -15 -212
0 -222 10 -6 10 -10 1 -16 -6 -4 -13 -23 -15 -42 -3 -33 -6 -35 -41 -38 -34
-3 -38 -6 -34 -24 6 -21 -13 -48 -33 -48 -7 0 -9 12 -4 35 6 33 5 35 -20 35
l-26 0 0 -110 0 -110 -27 -11 c-16 -6 -68 -10 -117 -10 -49 1 -95 -4 -102 -10
-8 -7 -19 -7 -31 -1 -10 6 -60 11 -111 11 l-92 1 0 -70 c0 -66 -1 -71 -26 -80
-14 -6 -72 -10 -129 -10 -82 0 -104 -3 -109 -15 -3 -8 -10 -15 -16 -15 -5 0
-10 7 -10 15 0 8 -7 15 -15 15 -11 0 -15 -18 -17 -77 l-3 -78 -77 -3 -78 -3 0
-109 c0 -75 4 -110 11 -110 8 0 8 -4 0 -13 -7 -9 -11 -105 -11 -299 l0 -286
55 -4 c32 -2 54 1 52 6 -2 6 -24 9 -50 9 l-47 -1 0 99 c0 62 5 107 12 119 10
16 10 24 0 40 -8 13 -12 63 -12 146 0 106 2 125 14 121 10 -4 13 -1 9 9 -3 7
-10 14 -15 14 -6 0 -5 6 2 15 13 15 35 11 25 -6 -4 -5 -2 -9 3 -9 10 0 22 23
22 41 0 5 -13 9 -30 9 -28 0 -30 2 -30 39 0 22 6 42 13 45 9 5 9 7 0 12 -19 8
-17 104 1 104 8 0 17 -6 19 -12 4 -10 6 -10 6 0 1 8 20 12 61 12 55 0 60 2 60
22 0 12 8 30 17 40 16 18 16 18 0 12 -15 -5 -17 1 -16 42 1 27 4 39 6 27 6
-29 39 -31 48 -3 5 15 15 20 41 20 32 0 35 -2 29 -22 l-6 -23 20 23 c17 20 29
23 78 21 84 -3 103 10 103 71 l0 50 46 0 c47 0 81 -20 68 -42 -5 -8 -2 -9 9
-5 10 3 17 2 17 -3 0 -6 4 -10 9 -10 6 0 6 12 0 30 -7 18 -18 30 -29 30 -17 0
-36 28 -25 38 3 3 5 0 5 -6 0 -16 27 -15 32 0 4 10 10 10 32 0 32 -15 76 -16
76 -2 0 6 22 10 49 10 28 0 53 -4 56 -10 3 -5 14 -10 23 -10 15 0 15 2 2 11
-12 9 -11 10 7 6 12 -3 40 -1 61 5 29 7 41 17 49 39 7 17 7 31 2 35 -5 3 -9
23 -9 45 0 38 1 39 35 39 27 0 35 4 35 18 1 15 2 15 15 -2 17 -23 19 -14 6 32
-6 20 -6 32 0 32 5 0 9 -8 9 -17 0 -10 5 -25 11 -33 8 -12 9 -7 6 18 -4 37 5
42 22 10 l12 -23 -5 23 c-2 12 0 22 5 22 5 0 9 16 9 35 0 19 6 45 13 56 10 17
10 23 0 26 -8 3 -13 22 -13 44 0 30 4 39 18 39 16 1 16 1 0 14 -18 13 -26 42
-9 32 13 -9 18 84 5 95 -7 5 -12 46 -13 97 -1 48 -5 105 -10 127 -5 25 -6 -5
-3 -85z"/>
<path d="M9762 8772 c-1 -67 2 -101 8 -97 6 3 10 -1 10 -9 0 -9 4 -16 9 -16 5
0 12 -12 14 -27 l4 -28 2 28 c0 16 8 35 16 43 16 16 21 5 6 -11 -4 -6 -11 -27
-14 -49 -6 -36 -5 -37 12 -22 10 9 34 16 55 16 l37 0 -1 -62 c-2 -96 -2 -98
21 -98 18 0 19 -2 9 -15 -9 -11 -9 -15 -1 -15 6 0 14 7 17 15 5 11 21 15 59
15 l54 0 4 -42 4 -43 1 48 2 47 -68 0 c-40 0 -73 5 -80 12 -8 8 -12 49 -12
120 0 100 -1 108 -19 108 -16 0 -20 -8 -23 -37 -3 -32 -6 -36 -31 -38 -21 0
-26 3 -21 15 16 38 16 60 0 60 -9 0 -16 -4 -16 -10 0 -17 -27 -11 -36 8 -4 9
-11 55 -14 102 l-7 85 -1 -103z"/>
<path d="M10143 8283 c4 -3 21 -7 39 -9 18 -2 50 -6 71 -10 20 -3 37 -2 37 2
0 5 13 9 29 9 16 0 27 -3 24 -7 -2 -5 -14 -8 -26 -8 -17 -1 -19 -2 -7 -9 8 -5
33 -5 55 -1 22 4 30 8 18 9 -43 2 -23 21 22 21 25 0 45 -4 45 -10 0 -5 20 -10
45 -10 25 0 45 5 45 10 0 6 28 10 65 10 l65 0 -6 -30 c-6 -28 -5 -30 25 -30
28 0 31 -3 31 -30 0 -30 -24 -43 -33 -17 -2 6 -7 9 -11 6 -4 -4 -1 -18 5 -33
12 -25 16 -26 86 -26 66 0 73 -2 73 -20 0 -11 -4 -20 -10 -20 -5 0 -14 -9 -20
-20 -9 -17 -8 -20 10 -20 11 0 20 7 20 16 0 15 23 44 35 44 3 0 5 -52 4 -115
-1 -98 -3 -114 -15 -104 -12 10 -13 9 -8 -5 3 -9 10 -16 14 -16 5 0 10 -12 12
-27 3 -27 6 -28 66 -31 60 -3 62 -4 62 -30 0 -43 14 -57 29 -28 20 36 -14 66
-73 66 -71 0 -76 10 -76 166 0 127 -1 134 -20 134 -11 0 -20 5 -20 10 0 6 -32
10 -75 10 -43 0 -75 4 -75 10 0 6 7 10 15 10 11 0 15 11 15 39 0 36 -3 40 -27
43 -24 3 -28 7 -25 31 l3 27 -73 0 c-44 0 -79 -5 -86 -12 -9 -9 -20 -9 -45 0
-33 12 -345 17 -334 5z"/>
<path d="M11042 7668 c-2 -74 -22 -95 -22 -24 0 25 -4 48 -10 51 -14 8 -13
-57 1 -92 7 -15 11 -45 10 -66 -1 -25 2 -36 9 -32 5 3 10 -1 10 -9 0 -25 -75
-21 -100 4 -11 11 -20 16 -20 11 0 -6 5 -13 10 -16 6 -3 10 -18 9 -33 l-1 -27
-8 25 c-7 21 -8 18 -9 -19 -1 -37 -3 -42 -16 -31 -10 9 -15 9 -15 1 0 -6 5
-11 10 -11 15 0 12 -16 -6 -34 -11 -12 -16 -39 -17 -102 -2 -69 -6 -88 -20
-99 -20 -14 -31 -98 -12 -92 5 2 10 20 10 40 1 20 6 42 13 49 9 9 12 -2 12
-54 0 -44 -4 -68 -12 -71 -10 -4 -9 -8 2 -16 8 -5 11 -13 7 -17 -3 -4 -13 -1
-22 6 -10 8 -15 9 -15 1 0 -7 -22 -11 -60 -11 l-60 0 0 -50 c0 -27 -4 -50 -10
-50 -5 0 -10 -12 -10 -27 0 -22 2 -25 10 -13 7 10 10 -27 10 -114 0 -110 -2
-127 -15 -122 -9 3 -15 0 -15 -9 0 -8 6 -15 13 -15 7 0 8 -3 2 -8 -5 -4 -11
-18 -12 -32 l-3 -25 15 25 c9 14 15 18 14 10 -4 -49 -3 -50 81 -50 47 0 80 -4
80 -10 0 -5 -4 -10 -9 -10 -5 0 -13 -9 -16 -21 -7 -20 -16 -21 -57 -4 -11 4
-18 3 -18 -4 0 -6 9 -11 20 -11 11 0 20 -4 20 -10 0 -18 29 -10 35 10 12 39
25 19 25 -40 0 -49 3 -60 17 -60 14 0 14 -2 -2 -20 -10 -11 -14 -20 -9 -20 5
0 16 9 24 20 12 16 26 20 72 20 l58 0 0 -74 c0 -72 1 -74 28 -81 15 -4 51 -7
81 -6 l53 3 -2 -64 c-4 -98 -4 -98 34 -98 21 0 36 -6 40 -15 3 -8 11 -15 18
-14 10 0 10 2 1 6 -20 8 -15 21 10 26 15 3 11 5 -13 6 -78 3 -80 5 -80 87 l0
74 -63 0 c-83 0 -97 14 -97 98 l0 62 -74 0 c-86 0 -86 0 -86 95 l0 63 -74 4
c-41 2 -78 6 -81 10 -8 8 -8 426 0 439 4 5 40 9 81 9 l74 0 0 169 c0 143 3
174 18 200 9 17 25 31 35 31 11 0 17 7 16 23 0 21 -1 21 -9 2 -6 -15 -9 -16
-9 -4 -1 26 42 59 77 59 27 0 32 4 32 25 0 14 -5 25 -10 25 -12 0 -9 62 3 71
4 3 6 37 4 75 l-3 69 -2 -67z"/>
<path d="M542 6831 c42 -3 79 -9 82 -12 8 -8 9 -265 1 -278 -3 -6 -38 -11 -80
-11 l-74 0 -3 -77 -3 -78 -78 -3 -78 -3 2 -77 2 -77 -81 -3 -81 -3 -3 -77 -3
-77 -75 -6 c-41 -3 -60 -6 -42 -7 21 -1 32 -7 32 -17 0 -8 -6 -12 -14 -9 -8 3
-17 1 -21 -5 -3 -6 1 -11 11 -11 14 0 16 -7 11 -40 -4 -35 -2 -40 14 -40 10 0
20 6 20 13 2 23 -3 42 -13 48 -16 10 2 31 21 24 13 -5 14 -4 3 6 -21 22 -14
29 28 29 30 0 40 4 40 16 0 8 5 12 10 9 6 -3 10 -2 10 4 0 5 -6 12 -12 14 -10
4 -9 8 2 16 10 7 11 11 3 11 -9 0 -13 16 -13 45 0 38 3 45 20 45 11 0 20 -4
20 -10 0 -5 -4 -10 -10 -10 -5 0 -10 -15 -9 -32 1 -28 2 -30 7 -10 7 23 7 23
22 2 8 -11 21 -20 30 -20 13 1 13 2 -1 13 -9 7 -19 25 -23 40 -6 24 -4 28 11
25 10 -2 18 -10 18 -18 0 -8 9 -16 20 -17 11 -2 14 0 8 3 -7 3 -13 12 -13 20
0 10 12 14 40 14 38 0 39 1 30 26 -14 35 -13 36 10 29 12 -4 20 -2 20 5 0 7
-9 14 -20 17 -11 3 -20 14 -20 24 0 15 7 19 40 19 22 0 40 -4 40 -10 0 -5 -9
-10 -20 -10 -11 0 -20 -4 -20 -10 0 -5 11 -10 25 -10 14 0 25 -5 25 -10 0 -7
8 -6 22 1 32 17 48 35 48 54 0 14 -11 16 -77 14 -51 -1 -78 2 -81 9 -3 9 19
12 73 12 55 0 81 4 91 15 9 8 11 15 5 15 -7 0 -11 25 -11 65 l0 65 51 0 c42 0
50 -3 45 -16 -3 -8 0 -21 7 -29 11 -11 16 -9 27 9 12 20 12 20 -5 6 -16 -13
-17 -12 -14 5 2 10 15 22 29 25 16 4 24 12 22 23 -2 9 3 17 10 17 9 0 9 3 -2
10 -8 5 -10 10 -3 10 14 0 16 97 2 105 -5 4 -9 11 -9 16 0 6 5 7 10 4 6 -3 10
5 10 19 0 14 -5 28 -11 31 -6 4 -9 23 -7 44 l3 36 -90 1 -90 1 77 -6z"/>
<path d="M65 5241 c-6 -21 -25 -29 -25 -11 0 6 -9 10 -20 10 l-20 0 20 -20
c11 -11 20 -30 20 -42 0 -13 11 -36 25 -52 33 -39 32 -46 -10 -46 -34 0 -48
14 -23 22 9 3 8 10 -5 22 -10 10 -21 15 -25 12 -3 -4 0 -12 8 -17 11 -8 12
-12 3 -15 -7 -3 -9 -12 -6 -20 4 -10 23 -14 74 -14 l69 0 0 -64 c0 -63 0 -65
30 -71 17 -4 30 -11 30 -16 0 -5 53 -9 118 -9 78 0 122 -4 130 -12 7 -7 12
-40 12 -80 l0 -68 60 0 c90 0 99 -14 102 -142 2 -57 2 -132 2 -168 -1 -45 1
-57 6 -40 6 17 7 8 5 -31 -1 -31 -5 -62 -9 -68 -4 -6 -36 -11 -75 -11 -39 0
-72 -5 -79 -12 -15 -15 -16 -53 -2 -78 7 -13 7 -21 0 -25 -5 -3 -10 -15 -10
-26 0 -16 -7 -19 -50 -19 -36 0 -50 -4 -50 -14 0 -9 -7 -12 -20 -9 -15 4 -20
0 -20 -16 0 -11 -4 -21 -10 -21 -13 0 -11 -137 3 -179 9 -27 9 -35 -1 -38 -14
-5 -16 -42 -2 -77 6 -17 6 -26 0 -26 -6 0 -10 -84 -10 -220 l0 -220 68 0 c40
0 73 -5 80 -12 7 -7 12 -31 12 -55 0 -59 34 -93 93 -93 24 0 48 -5 55 -12 7
-7 12 -36 12 -66 0 -83 -3 -82 238 -82 116 0 217 -3 226 -6 13 -5 16 -22 16
-80 0 -67 2 -74 20 -74 13 0 20 7 20 19 0 11 4 23 10 26 6 4 10 -5 10 -19 l0
-26 113 0 c61 0 119 -5 127 -10 12 -7 16 -45 22 -182 3 -95 9 -192 13 -214 4
-27 3 -44 -4 -48 -18 -11 -14 -86 4 -86 8 0 15 -4 15 -10 0 -5 -7 -10 -15 -10
-13 0 -15 -31 -15 -215 0 -149 4 -222 12 -241 10 -22 10 -28 0 -32 -6 -2 -12
-19 -12 -37 l0 -34 78 -3 77 -3 3 -77 3 -78 69 0 c83 0 90 -8 90 -99 l0 -61
70 0 c66 0 70 1 71 23 l0 22 9 -22 9 -23 379 0 c281 0 381 3 390 12 9 9 12 9
12 0 0 -8 24 -12 78 -12 104 0 107 -3 103 -90 l-3 -71 68 2 c97 4 94 9 95
-259 l0 -222 73 0 c89 0 86 8 86 -177 0 -108 3 -133 14 -133 8 0 17 6 19 13 3
7 6 5 6 -5 1 -16 14 -18 121 -18 149 0 160 -7 160 -100 l0 -60 130 0 c94 0
130 3 130 12 0 9 3 9 12 0 14 -14 128 -16 128 -2 0 6 9 10 20 10 11 0 20 -4
20 -10 0 -6 29 -10 68 -10 62 0 70 2 80 23 l11 22 0 -22 c1 -19 7 -23 31 -23
l29 0 3 78 3 77 78 3 77 3 0 35 c0 35 3 37 53 48 23 6 27 11 25 39 l-3 32 160
5 c88 3 175 1 193 -3 l32 -8 0 -74 c0 -66 2 -75 18 -75 10 0 23 5 30 12 9 9
12 9 12 0 0 -8 18 -12 50 -12 l49 0 3 -77 3 -78 78 0 c87 0 80 10 77 -102 l-1
-62 78 -3 78 -3 6 -55 6 -55 1 67 c2 64 1 66 -20 61 -15 -3 -19 -2 -11 4 8 6
9 14 3 23 -7 10 -10 11 -10 3 0 -20 -38 -15 -43 5 -2 9 -3 5 -1 -10 3 -26 1
-28 -37 -28 l-40 0 2 55 c2 48 4 53 17 42 14 -11 14 -9 2 13 -8 14 -14 37 -15
52 -1 38 -12 45 -34 19 -16 -19 -28 -22 -73 -19 -41 2 -54 7 -56 20 -3 14 3
18 27 18 17 0 31 5 31 10 0 6 -13 10 -30 10 -28 0 -30 2 -30 40 0 22 5 40 10
40 6 0 10 -5 10 -11 0 -5 5 -7 10 -4 7 4 3 14 -10 25 -11 9 -20 29 -20 44 0
14 -4 26 -10 26 -5 0 -10 -13 -10 -30 0 -21 -5 -30 -16 -30 -10 0 -13 6 -10
18 3 9 1 24 -4 32 -7 11 -10 7 -10 -17 0 -27 -4 -33 -21 -33 -17 0 -20 5 -18
34 3 31 -24 77 -37 64 -7 -7 7 -38 17 -38 5 0 9 -4 9 -8 0 -11 -35 -52 -44
-52 -3 0 -6 27 -6 60 0 53 2 60 20 60 11 0 20 5 20 11 0 5 -4 8 -9 4 -5 -3
-16 2 -24 10 -9 8 -25 15 -37 15 -12 0 -19 4 -16 9 4 5 -4 7 -16 4 -19 -4 -20
-3 -8 6 16 11 15 12 -28 15 -7 1 -17 7 -21 15 -5 7 -17 11 -27 9 -18 -5 -18
-5 1 -13 21 -9 45 -30 45 -39 0 -3 -43 -6 -96 -6 -80 0 -99 3 -111 18 -10 13
-13 13 -11 2 2 -11 -9 -16 -44 -18 -43 -3 -48 -6 -48 -26 0 -24 -17 -36 -51
-36 -16 0 -19 -7 -19 -50 0 -37 -4 -50 -14 -50 -8 0 -18 9 -21 20 -3 11 -11
20 -16 20 -6 0 -7 -9 -4 -20 5 -16 2 -20 -19 -20 -14 0 -26 5 -26 12 0 9 -3 9
-12 0 -7 -7 -20 -12 -30 -12 -12 0 -18 -8 -18 -24 0 -23 -17 -37 -52 -41 -32
-3 -32 -15 0 -15 18 0 32 5 32 10 0 6 5 10 10 10 6 0 10 -13 10 -30 0 -28 -3
-30 -34 -30 -26 0 -36 -5 -41 -20 -7 -22 -31 -27 -38 -7 -4 10 -6 10 -6 0 -1
-15 -61 -18 -61 -3 0 6 -13 10 -29 10 -16 0 -31 5 -33 12 -3 8 -9 8 -24 0 -10
-6 -13 -12 -6 -12 6 0 12 -4 12 -10 0 -16 -89 -12 -106 4 -22 22 -17 29 17 22
27 -5 28 -4 15 9 -16 17 -86 21 -86 5 0 -5 -16 -10 -36 -10 -30 0 -34 3 -29
19 4 14 0 20 -19 23 -17 4 -23 1 -19 -9 3 -7 0 -13 -6 -13 -6 0 -11 -4 -11
-10 0 -5 7 -10 15 -10 8 0 15 -4 15 -10 0 -5 25 -10 55 -10 30 0 55 -4 55 -10
0 -15 -117 -13 -124 3 -5 9 -7 9 -12 0 -3 -7 -21 -13 -39 -13 -18 0 -36 6 -38
13 -4 10 -6 10 -6 0 -1 -7 -5 -13 -11 -13 -5 0 -10 20 -10 45 0 25 5 45 10 45
6 0 10 -7 10 -15 0 -8 5 -15 10 -15 6 0 10 7 10 16 0 11 6 15 20 11 11 -3 18
-1 14 4 -3 5 -21 9 -40 9 -30 0 -34 3 -34 25 0 14 -6 25 -12 25 -7 0 -26 7
-41 15 -18 9 -25 10 -20 2 4 -7 0 -7 -10 2 -9 7 -17 9 -17 4 0 -5 -40 -10 -90
-11 -54 -1 -90 2 -90 8 0 6 5 10 10 10 6 0 10 9 10 20 0 30 -34 25 -47 -7 -9
-23 -11 -7 -12 85 l-1 112 25 -6 c15 -4 25 -2 25 5 0 6 -12 11 -26 11 -24 0
-26 3 -22 40 l4 40 -58 0 c-51 0 -58 2 -58 19 0 11 7 27 16 36 9 9 13 19 10
23 -9 9 -25 -16 -33 -50 -3 -19 -12 -28 -24 -28 -16 0 -19 8 -19 49 0 30 5 52
12 55 11 5 11 7 1 12 -15 7 -17 44 -3 44 6 0 10 9 10 20 0 11 5 20 10 20 6 0
10 9 10 20 0 11 -7 20 -16 20 -11 0 -14 -6 -9 -20 4 -11 2 -20 -4 -20 -16 0
-14 97 2 104 10 5 10 7 0 12 -15 7 -18 64 -4 64 5 0 13 -14 16 -31 4 -19 10
-27 14 -20 4 6 15 9 24 5 12 -4 17 -1 17 10 0 9 -8 16 -19 16 -11 0 -23 9 -26
20 -3 11 -13 20 -21 20 -7 0 -13 8 -12 18 3 41 -3 62 -18 62 -11 0 -14 5 -10
16 3 8 -1 22 -10 31 -13 14 -14 13 -9 -13 l6 -29 -16 28 c-18 32 -33 30 -16
-1 16 -31 15 -32 -39 -32 -30 0 -50 4 -50 11 0 6 7 9 15 5 8 -3 15 -1 15 5 0
5 -7 12 -16 16 -13 5 -15 15 -10 51 7 53 -5 72 -46 72 -20 0 -27 4 -22 13 6 9
4 9 -7 -1 -15 -14 -109 -17 -109 -3 0 5 -9 11 -20 14 -13 3 -20 0 -20 -9 0
-12 -33 -14 -190 -14 -134 0 -190 3 -190 11 0 8 -4 9 -13 0 -9 -7 -72 -11
-180 -10 l-167 0 0 25 c0 33 -34 29 -38 -4 -3 -18 -10 -22 -42 -22 -21 0 -41
6 -44 13 -5 10 -7 10 -12 0 -15 -32 -24 -6 -24 67 0 63 -3 80 -15 80 -7 0 -18
6 -22 13 -4 8 -17 17 -28 20 -19 7 -19 6 -2 -7 27 -21 21 -26 -38 -26 l-55 0
0 40 c0 22 5 40 10 40 6 0 10 9 10 19 0 11 5 21 11 23 7 2 4 10 -7 18 -10 9
-15 10 -10 3 4 -7 2 -21 -4 -30 -8 -14 -10 -14 -9 -3 4 40 -2 50 -26 50 -14 0
-25 5 -25 10 0 6 7 10 15 10 8 0 15 5 15 10 0 6 -9 10 -20 10 -13 0 -20 7 -20
20 0 24 -15 27 -24 4 -3 -8 -2 -13 3 -10 8 5 20 -24 21 -46 0 -5 -22 -8 -50
-8 -48 0 -50 1 -50 28 1 23 2 24 11 10 13 -24 29 -23 29 2 0 11 -4 20 -10 20
-5 0 -10 14 -10 30 0 17 -4 30 -10 30 -14 0 -12 37 3 44 10 5 10 7 0 12 -16 7
-19 364 -4 364 5 0 11 -5 13 -12 8 -22 25 1 20 27 -3 16 -11 25 -23 25 -14 0
-19 7 -19 30 0 17 5 30 10 30 6 0 10 27 10 60 0 33 -4 60 -10 60 -6 0 -10 55
-10 146 0 113 3 144 13 138 9 -6 9 -5 0 7 -6 8 -13 25 -15 39 l-3 25 -127 3
c-141 3 -154 10 -100 57 23 21 24 24 8 25 -16 0 -17 2 -5 17 8 9 9 14 2 10 -6
-4 -14 -1 -17 5 -5 10 -7 10 -12 1 -8 -18 -24 -16 -24 3 0 23 -25 44 -55 44
-16 0 -24 4 -19 11 5 8 1 8 -14 0 -25 -13 -212 -13 -212 0 0 5 7 9 16 9 8 0
13 4 10 9 -4 5 0 11 6 14 7 2 0 8 -15 12 -27 7 -54 -3 -30 -12 10 -3 10 -9 0
-24 -10 -16 -24 -19 -99 -19 -49 0 -88 3 -88 6 0 11 26 31 50 37 36 10 56 25
46 34 -5 4 -11 2 -13 -4 -5 -15 -43 -18 -43 -4 0 5 6 12 13 15 10 5 10 7 0 12
-7 3 -13 14 -13 25 0 10 -4 19 -9 19 -13 0 -32 -27 -30 -42 4 -33 -2 -78 -11
-78 -6 0 -10 30 -10 70 l0 70 -61 0 c-53 0 -60 2 -55 18 3 9 1 24 -4 32 -6 10
-10 11 -10 3 0 -7 -7 -13 -16 -13 -13 0 -15 10 -14 48 4 74 5 72 -56 72 -41 0
-55 3 -51 13 2 6 1 21 -4 32 -6 16 -8 14 -8 -12 -1 -26 -5 -33 -21 -33 -23 0
-28 34 -8 44 10 5 10 7 1 12 -17 8 -17 120 -1 128 11 5 11 7 1 12 -9 4 -13 37
-13 115 0 97 9 133 23 97 3 -7 6 5 7 27 1 22 3 55 5 73 1 17 -1 32 -6 32 -5 0
-9 14 -9 30 0 17 -4 30 -10 30 -15 0 -12 30 6 47 13 14 17 14 24 2 5 -7 12
-10 16 -7 9 10 -21 38 -40 38 -11 0 -16 9 -16 30 0 30 14 41 23 18 2 -7 8 -10
12 -5 5 4 3 13 -3 19 -7 7 -12 19 -11 28 0 10 2 11 6 3 6 -15 53 -18 53 -3 0
6 -4 10 -10 10 -5 0 -10 5 -10 10 0 6 16 10 35 10 37 0 44 -10 22 -32 -9 -8
-11 -21 -6 -33 4 -11 8 -14 8 -7 1 6 7 12 15 12 8 0 17 -6 20 -12 3 -7 4 6 2
30 -3 34 -1 42 12 43 11 0 12 2 5 6 -15 6 -17 33 -3 33 6 0 10 14 10 30 0 17
-4 30 -10 30 -5 0 -10 9 -10 20 0 22 16 27 23 8 2 -8 8 -9 13 -4 5 5 4 11 -3
13 -28 10 -10 23 32 23 45 0 60 -12 29 -24 -9 -4 -14 -9 -11 -13 4 -3 14 0 23
8 15 12 16 11 10 -9 -4 -12 -3 -22 2 -22 14 0 25 34 13 38 -20 7 -11 19 17 25
l29 6 -1 124 c-1 69 -4 120 -8 113 -5 -6 -8 -2 -8 12 0 13 4 20 10 17 6 -4 10
5 10 19 0 14 5 26 10 26 6 0 10 10 10 23 -1 17 -5 13 -20 -18 l-19 -40 -1 53
c0 33 4 51 10 47 6 -3 10 -1 10 4 0 6 -4 11 -10 11 -5 0 -10 9 -10 21 0 12
-11 34 -25 51 -14 16 -25 25 -25 19 0 -6 -15 -11 -33 -11 -25 0 -37 6 -46 23
l-11 22 6 -22 c4 -17 1 -23 -11 -23 -13 0 -15 12 -14 68 1 38 -3 77 -9 88 -6
10 -12 15 -12 11 0 -4 -10 -3 -21 4 -15 8 -19 8 -15 0 11 -17 -33 -13 -51 4
-8 9 -19 28 -23 43 l-8 27 -1 -32 c-1 -18 4 -33 9 -33 6 0 10 -4 10 -10 0 -6
-30 -10 -70 -10 -40 0 -70 4 -70 10 0 6 23 10 50 10 38 0 50 4 50 15 0 12 -11
14 -60 8 l-60 -6 5 34 c5 32 5 33 -4 6 -6 -16 -7 -35 -5 -42 4 -10 -1 -12 -15
-8 -18 5 -21 13 -21 59 0 50 12 72 23 42 2 -7 8 -10 12 -6 4 4 0 14 -8 23 -9
8 -14 23 -11 33 3 9 -2 6 -10 -8 l-16 -25 6 30 c3 17 8 39 10 50 2 11 1 14 -2
8 -3 -7 -14 -13 -25 -13 -10 0 -19 -4 -19 -10 0 -5 5 -10 10 -10 6 0 10 -9 10
-20 0 -34 -26 -22 -36 18 -7 26 -14 36 -26 34 -24 -4 -34 19 -14 34 11 8 13
14 7 19 -8 4 -8 12 0 26 6 12 8 23 6 26 -3 2 -8 -5 -12 -16z"/>
<path d="M11229 5251 c-3 -7 -13 -13 -24 -13 -11 -1 -29 -10 -40 -21 -20 -19
-20 -19 0 -15 11 1 23 8 27 13 4 6 8 -23 8 -62 l0 -73 -61 0 -61 0 5 33 c5 32
5 32 -6 5 -6 -16 -17 -28 -24 -28 -7 0 -13 -11 -13 -25 0 -14 -4 -25 -10 -25
-5 0 -10 9 -10 20 0 11 -4 20 -10 20 -5 0 -10 -5 -10 -11 0 -6 -7 -8 -16 -5
-24 9 -35 -3 -22 -24 8 -12 15 -15 19 -8 4 7 18 8 35 3 29 -7 29 -7 7 -18 -13
-5 -23 -16 -23 -23 0 -7 -6 -14 -12 -17 -7 -2 -10 -8 -6 -12 5 -5 16 2 27 13
23 27 31 28 31 2 0 -11 -4 -20 -9 -20 -5 0 -11 -9 -14 -20 -4 -15 -14 -20 -40
-20 -20 0 -38 6 -40 13 -4 10 -6 10 -6 0 -1 -7 -12 -13 -26 -13 -23 0 -25 -3
-25 -50 0 -27 -4 -50 -10 -50 -5 0 -10 23 -10 50 0 39 -4 50 -16 50 -8 0 -12
5 -9 10 9 15 -9 12 -31 -5 -18 -14 -18 -15 0 -9 19 7 19 9 1 -53 -3 -13 -4
-23 -1 -23 3 0 9 15 14 33 l9 32 8 -28 c6 -22 3 -32 -15 -47 l-23 -20 21 0
c23 0 26 -7 16 -34 -5 -12 -20 -16 -60 -16 -46 0 -54 -3 -54 -19 0 -19 -19
-41 -33 -38 -7 2 -36 -63 -37 -80 0 -2 10 -3 23 -3 17 0 22 6 24 30 1 17 -3
30 -9 30 -6 0 -9 2 -6 5 3 3 13 3 22 -1 13 -5 16 -21 16 -81 0 -41 -5 -84 -11
-95 -8 -15 -8 -22 0 -27 7 -4 11 -33 10 -69 -1 -36 -6 -59 -11 -56 -5 4 -8 15
-5 25 3 11 1 19 -4 19 -12 0 -11 -37 1 -45 6 -4 17 -22 25 -41 l14 -34 70 0
71 0 0 -80 c0 -67 3 -80 16 -80 9 0 23 -8 30 -17 13 -17 13 -17 14 0 0 13 8
17 34 17 l34 0 7 -60 c4 -33 11 -60 16 -60 5 0 9 -27 9 -60 0 -33 -4 -60 -10
-60 -5 0 -10 -9 -10 -20 0 -11 -5 -20 -10 -20 -6 0 -10 -24 -8 -60 2 -57 18
-64 18 -7 0 15 5 27 10 27 6 0 10 -35 10 -86 0 -66 -4 -89 -17 -102 -12 -12
-18 -13 -21 -4 -2 6 -11 12 -20 12 -14 0 -16 -8 -13 -47 2 -36 -1 -50 -15 -60
-10 -7 -12 -13 -6 -13 7 0 12 -4 12 -10 0 -5 -7 -10 -15 -10 -8 0 -18 -12 -21
-26 -4 -15 -12 -23 -19 -20 -14 5 -25 -23 -25 -66 0 -21 5 -28 20 -28 11 0 20
-4 20 -10 0 -22 -40 -9 -54 18 -8 15 -15 21 -16 14 0 -7 -4 -10 -10 -7 -5 3
-10 1 -10 -5 0 -7 6 -10 13 -7 6 2 17 -3 24 -12 15 -19 17 -91 3 -91 -5 0 -10
7 -10 15 0 8 -4 15 -10 15 -5 0 -10 -7 -10 -15 0 -24 -20 -17 -21 8 l0 22 -11
-22 c-6 -13 -15 -23 -20 -23 -4 0 -8 -13 -8 -30 0 -27 3 -30 30 -30 17 0 30
-4 30 -10 0 -5 -57 -11 -137 -12 l-138 -3 -3 -67 -3 -68 -49 0 c-28 0 -50 -4
-50 -10 0 -5 -19 -10 -42 -10 -32 0 -39 3 -28 10 11 7 4 10 -27 10 -35 0 -43
4 -43 18 0 11 -8 18 -20 19 -11 1 -20 -3 -20 -9 0 -6 -16 -9 -39 -6 -31 3 -37
1 -29 -9 6 -7 28 -13 49 -13 22 0 39 -4 39 -10 0 -6 -34 -10 -81 -10 -44 0
-78 4 -75 8 2 4 -4 8 -15 8 -10 0 -19 -4 -19 -8 0 -4 -9 -8 -20 -8 -23 0 -41
-31 -22 -38 8 -2 12 -26 12 -64 l0 -59 -80 2 c-57 2 -83 -1 -92 -10 -10 -11
-10 -12 0 -7 9 5 12 -6 12 -44 0 -32 -4 -49 -10 -45 -6 3 -10 -4 -10 -17 0
-18 2 -20 10 -8 6 10 10 -35 10 -137 0 -96 -4 -153 -10 -153 -5 0 -10 23 -10
50 0 28 -4 50 -10 50 -5 0 -10 9 -10 20 0 11 -7 20 -15 20 -8 0 -15 -9 -15
-20 0 -12 7 -20 16 -20 14 0 16 -7 11 -40 -4 -34 -1 -45 19 -65 24 -25 35 -95
14 -95 -5 0 -10 -5 -10 -11 0 -5 3 -8 8 -6 4 3 8 -21 10 -54 1 -39 -2 -59 -9
-59 -8 0 -8 -4 0 -13 8 -10 7 -17 -2 -27 -9 -10 -9 -11 1 -6 10 6 12 -21 10
-129 -2 -130 -3 -135 -22 -133 -26 4 -33 -26 -12 -48 18 -17 22 -54 6 -54 -5
0 -10 -4 -10 -10 0 -5 9 -10 20 -10 13 0 20 -7 20 -20 0 -18 -7 -20 -74 -20
-83 0 -116 -7 -94 -21 11 -7 10 -11 -2 -20 -11 -8 -12 -12 -2 -16 7 -3 12 -24
12 -54 l0 -50 -87 3 c-61 1 -88 -1 -91 -10 -2 -7 1 -12 7 -12 6 0 11 -9 11
-20 0 -14 -7 -20 -21 -20 -16 0 -19 5 -15 23 l6 22 -11 -22 c-7 -13 -20 -23
-31 -23 -10 0 -18 -4 -18 -10 0 -14 37 -12 43 3 4 10 6 10 6 0 1 -7 10 -13 21
-13 13 0 20 -7 20 -20 0 -13 -7 -20 -20 -20 -13 0 -20 -7 -20 -20 0 -19 -7
-20 -100 -20 -98 0 -112 4 -88 28 9 9 8 12 -5 12 -9 0 -17 -4 -17 -10 0 -5
-11 -10 -25 -10 -14 0 -25 5 -25 10 0 6 -4 10 -10 10 -5 0 -10 -6 -10 -13 0
-9 -11 -12 -36 -9 -24 3 -39 0 -45 -9 -6 -10 -9 -11 -9 -1 0 6 -7 12 -15 12
-8 0 -15 -4 -15 -10 0 -5 -18 -10 -40 -10 -33 0 -40 3 -40 20 0 13 7 20 20 20
11 0 20 5 20 10 0 6 11 10 25 10 14 0 25 5 25 10 0 15 -48 12 -53 -2 -3 -10
-9 -10 -26 0 -19 11 -21 10 -21 -13 0 -26 -8 -26 -56 -3 -12 5 -30 8 -40 6
-18 -5 -18 -5 1 -13 21 -9 45 -30 45 -39 0 -3 -13 -6 -30 -6 -16 0 -30 5 -30
10 0 15 -58 12 -63 -2 -3 -9 -11 -5 -25 10 -20 22 -24 23 -89 14 -57 -8 -61
-10 -25 -11 62 -2 51 -21 -13 -21 -30 0 -55 5 -55 10 0 6 -11 10 -25 10 -14 0
-25 -4 -25 -10 0 -5 -7 -10 -15 -10 -8 0 -15 4 -15 9 0 5 7 16 15 25 17 16 20
46 5 46 -5 0 -14 -18 -20 -40 -9 -33 -15 -40 -35 -40 -13 0 -26 4 -29 9 -4 5
-19 3 -36 -6 -28 -13 -30 -19 -30 -68 0 -52 0 -53 -35 -59 -42 -8 -47 -15 -35
-52 l10 -29 -5 33 c-4 26 -1 32 14 32 20 0 37 -29 23 -39 -4 -3 -14 -25 -22
-49 -16 -50 -30 -64 -30 -29 0 20 -4 24 -20 20 -10 -3 -22 -14 -25 -24 -4 -12
-16 -19 -33 -19 -20 0 -23 -3 -14 -12 16 -16 16 -100 0 -116 -7 -7 -8 -12 -2
-12 11 0 13 -45 2 -56 -5 -4 -8 7 -8 24 0 22 -5 32 -15 32 -8 0 -15 -4 -15
-10 0 -5 5 -10 10 -10 6 0 10 -19 11 -42 0 -24 3 -37 6 -30 11 28 23 9 23 -39
0 -45 -2 -50 -17 -44 -10 4 -28 10 -40 12 -13 3 -23 10 -23 16 0 6 -2 8 -5 5
-12 -12 9 -38 31 -38 13 0 24 -4 24 -10 0 -5 7 -10 15 -10 8 0 15 -4 15 -10 0
-5 -17 -10 -38 -10 -31 0 -41 -5 -52 -24 -7 -14 -10 -32 -7 -40 4 -9 2 -16 -3
-16 -6 0 -10 9 -10 20 0 25 -18 26 -27 3 -3 -10 -11 -24 -17 -32 -6 -8 -9 -55
-7 -122 1 -60 -1 -109 -6 -109 -4 0 -8 20 -9 45 -1 25 -7 51 -14 58 -10 10
-11 1 -6 -45 l6 -58 -45 0 c-25 0 -45 5 -45 10 0 6 5 10 10 10 6 0 10 5 10 10
0 6 -7 10 -15 10 -8 0 -15 -9 -15 -20 0 -16 -8 -20 -57 -23 -32 -2 -1 -4 69
-5 l127 -2 3 118 3 117 32 3 c26 3 34 9 39 30 11 49 13 52 49 52 l36 0 -1 83
c-1 45 -1 117 -1 160 l1 77 80 0 80 0 0 154 c0 176 -6 166 94 166 36 0 68 5
75 13 11 10 14 10 18 0 3 -9 26 -13 68 -13 56 0 63 2 68 22 6 20 7 20 29 4 38
-27 50 -30 71 -17 14 9 22 10 30 2 6 -6 28 -11 49 -11 32 0 38 3 38 21 0 15 4
19 16 15 9 -3 18 -6 20 -6 2 0 4 -7 4 -15 0 -13 13 -15 68 -14 37 1 72 4 77 7
17 11 135 12 135 2 0 -6 46 -10 110 -10 94 0 110 2 110 16 0 9 9 18 20 21 17
5 20 14 20 64 l0 59 80 0 79 0 3 78 3 77 78 3 77 3 0 29 c0 17 -4 30 -9 30 -5
0 -11 15 -13 33 -3 17 -8 40 -13 50 -5 13 -2 17 15 17 18 0 21 5 20 33 -1 17
-2 233 -1 480 l1 447 80 0 80 0 0 80 0 80 109 0 c79 0 111 4 114 13 3 10 11
10 39 0 41 -15 114 -17 123 -3 3 6 26 10 51 10 l44 0 0 58 c0 32 5 63 12 70 8
8 58 12 160 12 l148 0 0 80 c0 73 2 80 20 80 13 0 20 7 20 20 0 11 -6 20 -14
20 -23 0 -29 31 -6 37 11 3 20 9 20 13 0 4 9 10 19 13 11 2 21 15 23 28 2 20
10 25 41 27 l37 3 0 170 c0 162 -1 169 -20 169 -20 0 -20 0 0 35 22 39 28 142
10 175 -7 13 -7 21 0 25 5 3 10 24 10 46 l0 39 -74 0 c-86 0 -86 0 -86 96 l0
64 -37 2 c-79 3 -94 5 -106 17 -15 15 -23 149 -19 315 l3 126 80 0 c72 0 79 2
79 20 0 13 -7 20 -20 20 -11 0 -20 5 -20 10 0 6 9 10 19 10 17 0 20 8 23 48
l3 47 64 3 c53 3 64 6 68 23 3 10 9 19 14 19 4 0 9 28 11 62 l3 61 77 -2 77
-2 3 78 3 78 45 3 c25 2 49 7 54 12 6 6 -6 7 -28 3 -26 -4 -41 -2 -46 7 -5 9
-9 9 -11 1z"/>
<path d="M6727 673 c-4 -3 -7 -12 -7 -20 0 -10 22 -13 91 -13 65 0 94 -4 105
-14 20 -20 18 -26 -11 -26 -14 0 -25 5 -25 10 0 6 -9 10 -21 10 -11 0 -17 -4
-14 -10 3 -6 -4 -10 -17 -10 -18 0 -20 2 -8 10 13 8 12 10 -2 10 -10 0 -18 -4
-18 -10 0 -5 -7 -10 -16 -10 -8 0 -12 5 -9 10 4 6 -7 10 -24 10 -17 0 -31 -4
-31 -10 0 -6 -37 -10 -90 -10 -87 0 -90 -1 -89 -22 0 -22 1 -22 9 -3 6 14 9
-5 9 -57 1 -63 -2 -78 -14 -78 -8 0 -15 6 -15 13 0 9 -3 9 -9 -1 -6 -10 -25
-13 -67 -10 l-59 4 3 -83 3 -83 -57 0 c-45 0 -55 3 -46 12 7 7 12 15 12 19 0
4 -14 -6 -30 -23 -31 -31 -70 -96 -51 -84 7 5 11 -8 11 -38 l0 -46 -64 0 c-44
0 -69 -5 -78 -15 -32 -35 -38 -45 -29 -45 5 0 12 -15 14 -33 3 -28 4 -27 5 10
3 55 27 73 104 73 l58 0 0 63 c0 83 14 97 98 97 l61 0 3 78 3 77 77 3 77 3 3
77 3 77 75 3 c41 2 80 8 88 14 10 9 15 9 20 0 5 -7 49 -11 127 -11 142 -1 145
-3 145 -98 l0 -63 144 0 c174 0 176 -1 176 -96 l0 -64 65 0 c36 0 65 3 65 8 0
21 105 43 124 25 17 -17 83 -31 160 -32 l84 -2 4 61 c1 33 0 60 -4 60 -5 0 -8
-26 -9 -57 0 -49 -2 -55 -11 -35 -11 22 -48 31 -48 12 0 -5 9 -10 20 -10 11 0
20 -4 20 -10 0 -5 -22 -10 -50 -10 -27 0 -50 5 -50 10 0 6 -7 10 -15 10 -8 0
-15 -4 -15 -9 0 -4 -16 -3 -35 3 -19 6 -35 14 -35 18 0 5 -27 8 -60 8 -33 0
-60 -4 -60 -10 0 -5 -15 -10 -32 -11 -28 0 -30 -2 -13 -9 19 -8 19 -9 -2 -9
-12 -1 -24 5 -27 12 -5 10 -7 10 -12 0 -3 -7 -17 -13 -30 -13 -23 0 -24 2 -24
80 l0 80 -28 0 c-16 0 -32 3 -35 7 -11 11 -67 13 -67 3 0 -6 -6 -10 -14 -10
-17 0 -28 52 -13 62 7 4 8 8 3 8 -5 0 -18 -7 -28 -17 -17 -15 -17 -17 -2 -35
16 -17 15 -18 -45 -18 -58 0 -62 1 -56 20 5 16 2 20 -14 20 -19 0 -21 6 -21
58 0 58 0 59 -35 69 -25 8 -33 8 -28 0 4 -7 0 -8 -11 -4 -10 4 -20 7 -24 7 -3
0 3 7 14 16 18 15 18 15 -8 9 -20 -4 -28 -1 -28 8 0 12 -19 13 -96 9 -74 -4
-95 -2 -89 7 5 8 31 11 81 10 40 -2 76 0 80 4 4 4 -31 7 -78 7 -46 0 -88 -3
-91 -7z"/>
</g>
</svg>
