<?xml version="1.0" standalone="no"?>
<!DOCTYPE svg PUBLIC "-//W3C//DTD SVG 20010904//EN"
 "http://www.w3.org/TR/2001/REC-SVG-20010904/DTD/svg10.dtd">
<svg version="1.0" xmlns="http://www.w3.org/2000/svg"
 width="1132.000000pt" height="1132.000000pt" viewBox="0 0 1132.000000 1132.000000"
 preserveAspectRatio="xMidYMid meet">
<metadata>
Created by potrace 1.16, written by Peter Selinger 2001-2019
</metadata>
<g transform="translate(0.000000,1132.000000) scale(0.100000,-0.100000)"
fill="#000000" stroke="none">
<path d="M5548 11255 c-3 -3 -33 -13 -66 -20 -33 -8 -82 -25 -109 -39 -26 -14
-66 -34 -89 -46 -59 -30 -163 -134 -215 -215 -25 -38 -53 -76 -62 -84 -9 -7
-17 -16 -17 -20 0 -13 -140 -151 -179 -176 -120 -75 -170 -94 -271 -102 -54
-4 -93 0 -140 12 -93 24 -236 97 -295 150 -61 55 -84 66 -205 101 -122 35
-236 41 -339 19 -101 -22 -188 -54 -195 -71 -3 -8 -12 -14 -20 -14 -8 0 -46
-30 -84 -67 -100 -98 -154 -215 -192 -418 -16 -85 -51 -193 -71 -219 -9 -12
-23 -37 -32 -57 -23 -55 -162 -191 -227 -221 -131 -60 -130 -60 -246 -55 -71
2 -145 12 -214 29 -111 27 -170 29 -290 8 -63 -12 -145 -36 -165 -51 -5 -3
-25 -10 -43 -14 -17 -3 -32 -10 -32 -15 0 -5 -9 -11 -20 -15 -11 -3 -59 -45
-108 -93 -79 -78 -91 -95 -120 -169 -18 -45 -32 -95 -32 -110 0 -15 -5 -62
-11 -103 -10 -68 -9 -87 15 -201 69 -335 2 -583 -195 -714 -24 -16 -57 -36
-74 -45 -16 -9 -39 -21 -50 -27 -38 -20 -94 -34 -200 -48 -116 -15 -207 -53
-304 -126 -28 -22 -55 -39 -59 -39 -10 0 -87 -89 -122 -140 -13 -19 -27 -37
-31 -40 -7 -5 -21 -49 -46 -145 -26 -99 -17 -229 23 -338 8 -23 21 -61 27 -84
7 -25 32 -62 62 -95 27 -29 55 -64 63 -78 39 -68 66 -128 95 -208 26 -75 31
-100 31 -182 -1 -111 -24 -179 -99 -291 -56 -84 -171 -181 -282 -237 -46 -24
-108 -89 -169 -178 -50 -74 -74 -122 -109 -229 -32 -97 -36 -130 -26 -201 8
-51 52 -169 79 -210 4 -6 28 -42 53 -81 51 -76 135 -152 247 -221 128 -80 241
-213 308 -359 29 -63 34 -86 34 -147 0 -140 -72 -304 -186 -428 -24 -26 -44
-52 -44 -58 0 -6 -8 -30 -19 -53 -51 -114 -64 -335 -27 -474 19 -74 61 -158
88 -177 10 -8 30 -28 42 -45 35 -47 226 -169 267 -170 9 -1 29 -8 46 -16 16
-8 63 -19 104 -24 145 -18 258 -64 381 -155 184 -136 251 -369 175 -611 -25
-80 -30 -241 -10 -310 6 -22 19 -67 28 -101 24 -86 69 -162 150 -250 54 -60
85 -84 140 -110 38 -19 79 -34 90 -34 12 0 26 -5 32 -11 11 -11 44 -17 157
-26 68 -5 204 11 239 29 32 17 317 17 357 0 19 -8 44 -17 55 -22 99 -37 183
-92 230 -150 24 -30 44 -59 45 -63 0 -4 11 -20 25 -35 14 -15 25 -33 25 -40 0
-7 7 -23 15 -35 15 -23 45 -164 49 -232 3 -40 23 -88 77 -180 16 -27 35 -61
41 -75 7 -14 17 -30 23 -36 61 -67 106 -111 121 -121 66 -44 124 -74 159 -83
22 -6 48 -15 57 -20 28 -16 139 -22 203 -12 146 24 299 87 359 147 67 67 267
143 423 162 44 5 146 -25 247 -73 74 -35 202 -169 251 -261 38 -74 129 -174
183 -202 15 -7 34 -20 43 -27 9 -8 56 -36 105 -62 l89 -47 170 0 c182 0 180 0
281 60 36 22 123 103 204 190 16 17 37 48 48 71 11 22 28 46 36 53 9 8 16 20
16 27 0 8 14 26 32 41 17 16 57 53 89 84 31 31 81 69 110 83 30 15 61 31 69
35 77 39 85 41 177 41 61 0 114 -6 147 -16 92 -30 210 -93 261 -140 61 -56 91
-73 175 -97 150 -43 296 -57 375 -36 80 21 181 62 225 92 72 48 178 184 180
230 0 4 11 25 25 45 17 26 34 79 51 163 28 136 44 190 74 250 36 70 123 190
149 207 14 8 42 30 61 47 19 18 58 40 85 50 28 10 53 23 57 29 5 7 61 11 160
11 126 0 161 -3 198 -19 80 -33 304 -31 385 3 11 5 56 22 99 37 73 27 88 37
177 125 130 127 160 193 179 392 8 85 4 132 -19 225 -18 70 -28 233 -20 313
10 86 49 198 87 249 116 154 257 227 487 255 33 5 76 16 95 26 19 11 39 19 44
19 5 0 23 10 40 23 17 13 47 30 66 37 43 18 186 160 221 220 71 122 93 231 73
364 -22 149 -68 264 -138 341 -91 102 -177 315 -176 439 1 101 40 208 114 315
32 47 126 141 141 141 5 0 22 11 39 24 17 12 47 31 66 41 44 22 163 144 205
210 18 28 44 75 58 105 52 110 55 124 48 280 -7 142 -8 146 -41 205 -19 33
-44 76 -55 95 -30 53 -134 153 -211 204 -125 81 -158 106 -206 154 -27 25 -48
51 -48 57 0 6 -15 29 -34 51 -55 64 -106 203 -106 288 0 125 83 327 170 413
41 41 53 62 80 143 59 180 63 353 10 500 -36 99 -169 247 -263 293 -129 63
-212 89 -332 104 -22 3 -44 9 -50 14 -5 5 -17 9 -26 9 -23 0 -141 50 -154 65
-5 7 -24 19 -40 28 -59 30 -162 144 -196 215 -63 131 -71 219 -34 392 35 160
39 201 26 280 -14 96 -40 203 -51 214 -6 6 -10 16 -10 24 0 52 -175 246 -255
282 -102 46 -149 58 -285 69 -75 6 -110 4 -165 -10 -157 -38 -183 -41 -291
-37 -170 7 -291 55 -386 151 -53 54 -61 65 -83 108 -10 19 -24 42 -33 52 -32
37 -72 175 -72 252 0 30 -4 57 -10 60 -5 3 -10 14 -10 23 0 23 -37 96 -77 154
-18 26 -33 50 -33 55 0 10 -93 106 -154 158 -27 23 -66 45 -92 52 -24 6 -50
15 -57 21 -44 34 -258 40 -342 10 -22 -9 -58 -21 -80 -27 -47 -14 -78 -27
-120 -49 -35 -19 -38 -20 -90 -65 -45 -38 -123 -77 -205 -102 -30 -9 -71 -23
-90 -30 -52 -19 -205 -14 -255 8 -145 65 -172 82 -248 161 -42 45 -92 108
-110 141 -36 67 -147 191 -180 201 -12 4 -36 17 -53 30 -17 13 -34 24 -38 24
-4 0 -22 11 -40 25 -18 14 -40 25 -48 25 -8 0 -29 7 -46 16 -47 23 -211 52
-224 39z m542 -930 c153 -14 192 -19 333 -45 106 -19 343 -70 371 -80 16 -6
42 -10 58 -10 17 0 44 -6 61 -13 79 -34 219 -79 367 -118 41 -11 108 -35 147
-54 40 -19 78 -35 84 -35 6 0 103 -46 216 -102 321 -161 316 -158 448 -255 24
-18 53 -33 64 -33 11 0 40 -16 65 -35 26 -19 50 -35 55 -35 5 0 15 -7 22 -17
8 -9 38 -32 67 -50 29 -19 84 -63 121 -99 38 -35 72 -64 76 -64 7 0 128 -101
133 -112 2 -3 29 -26 60 -50 31 -23 66 -52 78 -63 11 -11 34 -32 50 -46 16
-14 58 -59 94 -99 36 -41 84 -91 108 -113 23 -22 42 -45 42 -51 1 -6 28 -40
61 -76 99 -107 229 -272 254 -320 30 -59 98 -162 119 -179 9 -7 16 -18 16 -22
0 -9 51 -89 88 -139 10 -14 37 -61 59 -105 23 -44 62 -118 87 -165 74 -137
123 -242 142 -305 17 -59 86 -251 104 -290 25 -54 111 -335 130 -425 7 -30 18
-80 25 -110 19 -75 53 -260 65 -345 5 -38 13 -95 19 -126 19 -120 33 -626 22
-794 -11 -152 -25 -290 -35 -345 -5 -27 -20 -122 -32 -205 -4 -27 -11 -59 -17
-69 -5 -11 -16 -60 -23 -110 -17 -119 -91 -385 -119 -431 -7 -11 -16 -37 -19
-57 -4 -20 -19 -68 -35 -105 -15 -37 -34 -93 -41 -123 -7 -30 -21 -71 -30 -90
-10 -19 -27 -55 -38 -80 -35 -79 -61 -133 -97 -200 -19 -36 -46 -90 -60 -120
-37 -76 -57 -110 -161 -265 -19 -28 -34 -54 -34 -58 0 -5 -11 -23 -23 -40 -13
-18 -33 -51 -45 -74 -32 -64 -209 -286 -375 -472 -38 -42 -79 -92 -92 -111
-21 -34 -91 -101 -170 -165 -20 -16 -68 -60 -105 -98 -38 -37 -71 -67 -75 -67
-4 0 -49 -37 -101 -83 -151 -132 -194 -167 -208 -167 -7 0 -23 -11 -35 -24
-12 -13 -41 -32 -64 -42 -23 -10 -89 -50 -147 -89 -96 -66 -135 -90 -238 -152
-36 -21 -153 -80 -222 -112 -19 -9 -51 -25 -70 -37 -91 -54 -176 -94 -201 -94
-27 0 -40 -4 -124 -40 -22 -9 -62 -23 -90 -30 -27 -7 -95 -31 -149 -52 -55
-21 -109 -38 -121 -38 -11 0 -46 -9 -78 -20 -31 -11 -63 -20 -70 -20 -8 0 -41
-9 -74 -19 -33 -11 -86 -22 -119 -26 -32 -3 -96 -15 -141 -26 -83 -19 -103
-22 -253 -39 -263 -30 -753 -51 -789 -33 -9 4 -54 8 -101 9 -147 3 -348 27
-530 63 -58 12 -114 21 -126 21 -11 0 -76 16 -145 35 -68 19 -141 37 -163 40
-21 2 -43 8 -50 13 -6 4 -29 14 -51 21 -48 15 -114 40 -137 52 -10 5 -24 6
-32 3 -8 -3 -30 2 -48 11 -54 27 -138 54 -152 49 -7 -3 -93 36 -191 85 -98 50
-186 91 -196 91 -10 0 -21 5 -24 10 -4 6 -46 31 -95 55 -49 24 -91 49 -95 54
-3 6 -25 19 -48 29 -23 10 -48 26 -56 35 -7 10 -18 17 -24 17 -6 0 -34 18 -64
40 -29 23 -72 49 -96 59 -62 27 -221 141 -310 223 -43 39 -90 79 -105 88 -15
9 -58 45 -95 80 -38 36 -89 80 -115 100 -56 42 -162 146 -162 157 0 5 -32 40
-71 78 -39 39 -81 86 -94 106 -13 20 -59 73 -102 119 -43 45 -82 90 -87 99 -5
9 -14 21 -20 26 -33 30 -85 109 -199 300 -7 11 -18 24 -24 28 -7 4 -13 13 -13
20 0 7 -20 39 -45 72 -25 33 -63 96 -86 140 -22 44 -58 112 -80 150 -38 69
-91 177 -131 265 -11 25 -29 63 -41 85 -11 22 -24 56 -28 75 -4 19 -26 89 -49
155 -107 303 -106 298 -181 625 -22 96 -43 222 -58 340 -5 36 -11 76 -15 90
-19 72 -40 670 -26 737 6 29 10 76 9 105 -1 29 3 87 9 128 6 41 16 120 22 175
7 55 16 118 21 140 6 22 12 51 13 65 11 83 84 401 106 455 4 11 13 40 20 65 7
25 22 72 35 105 19 53 41 122 77 245 14 46 125 297 138 310 3 3 38 73 79 155
41 83 90 171 108 196 18 26 33 50 33 54 0 5 12 24 28 43 15 20 34 48 42 64 61
113 132 222 177 273 29 33 53 65 53 71 0 6 21 31 48 56 44 43 68 70 124 143
13 16 37 42 55 58 17 15 47 51 66 80 36 55 199 217 217 217 6 0 49 36 95 80
47 44 98 86 114 95 16 8 32 23 36 32 3 10 33 38 66 63 32 25 86 65 119 90 115
87 145 107 179 119 19 6 58 29 87 51 29 22 57 40 61 40 5 0 25 14 45 30 20 17
61 42 90 56 29 14 80 40 113 58 133 70 283 146 330 166 28 12 66 30 85 40 20
11 72 29 115 41 44 12 85 24 90 28 6 3 28 11 50 17 22 6 85 28 140 48 55 20
152 47 216 60 63 14 126 29 140 35 13 6 107 27 209 47 302 60 420 71 830 72
209 1 371 -3 480 -13z"/>
<path d="M5375 10201 c-11 -5 -74 -11 -140 -15 -152 -8 -282 -23 -365 -42 -36
-8 -108 -23 -160 -33 -52 -10 -138 -30 -190 -43 -52 -14 -104 -25 -115 -26
-51 -2 -192 -47 -279 -88 -28 -13 -62 -24 -76 -24 -14 0 -35 -7 -47 -15 -11
-8 -54 -27 -94 -41 -41 -15 -81 -33 -90 -41 -8 -7 -19 -13 -24 -13 -4 0 -58
-24 -119 -54 -61 -29 -122 -58 -136 -65 -44 -20 -134 -72 -167 -97 -17 -13
-36 -24 -41 -24 -5 0 -15 -7 -22 -15 -7 -8 -23 -15 -37 -15 -27 0 -114 -52
-183 -109 -25 -21 -56 -44 -70 -51 -38 -20 -133 -93 -148 -113 -7 -9 -30 -26
-50 -37 -20 -10 -76 -55 -125 -99 -48 -45 -93 -81 -99 -81 -13 0 -133 -116
-323 -312 -41 -42 -75 -83 -75 -92 0 -8 -28 -43 -62 -78 -65 -66 -167 -187
-199 -235 -10 -16 -29 -42 -41 -60 -104 -146 -179 -261 -216 -333 -38 -73
-120 -232 -199 -383 -12 -23 -38 -80 -58 -127 -21 -47 -44 -101 -52 -120 -27
-60 -53 -134 -53 -149 0 -8 -11 -38 -25 -68 -14 -29 -30 -72 -35 -96 -4 -23
-15 -60 -24 -82 -8 -22 -15 -57 -16 -78 0 -21 -6 -48 -12 -60 -7 -12 -20 -65
-29 -117 -9 -52 -24 -126 -33 -165 -51 -211 -92 -678 -83 -940 10 -290 44
-589 90 -795 34 -147 58 -248 73 -305 8 -33 19 -82 24 -110 9 -61 77 -254 96
-276 8 -8 14 -25 14 -38 0 -12 11 -43 24 -69 13 -26 27 -58 31 -72 7 -26 143
-302 199 -405 101 -187 175 -312 242 -405 41 -58 83 -118 93 -135 32 -50 151
-192 229 -272 40 -42 82 -92 92 -112 20 -40 336 -348 378 -370 15 -8 59 -44
98 -81 39 -37 98 -87 130 -111 55 -41 88 -66 145 -114 13 -11 41 -28 62 -37
21 -10 73 -45 115 -79 45 -38 98 -70 131 -82 31 -11 63 -25 71 -32 8 -7 29
-19 45 -27 17 -9 66 -34 110 -58 44 -23 127 -67 184 -97 57 -30 145 -70 195
-88 50 -18 116 -44 146 -58 30 -13 89 -37 130 -52 41 -16 79 -32 85 -37 5 -4
30 -8 57 -8 47 0 114 -15 198 -44 25 -8 83 -22 130 -31 47 -9 114 -23 149 -32
36 -8 90 -17 120 -20 31 -2 67 -9 81 -13 14 -5 102 -16 195 -24 411 -37 736
-30 1130 25 161 23 191 28 235 39 25 6 86 20 135 30 50 10 104 23 120 29 87
30 169 51 200 51 18 0 91 23 162 51 70 28 171 68 223 89 52 20 120 50 151 66
96 49 191 99 264 139 39 21 89 48 113 61 23 13 61 37 84 53 23 17 52 31 63 31
12 0 30 9 40 20 10 11 38 31 61 45 24 14 44 29 44 34 0 4 22 20 50 35 27 15
52 31 56 37 3 5 24 22 47 36 86 54 216 164 247 209 8 11 40 37 70 57 65 44
313 288 372 366 23 31 72 88 108 127 67 74 144 170 208 261 20 29 63 89 95
133 32 45 74 111 93 148 20 37 48 90 64 117 112 196 315 637 344 745 8 30 26
80 40 111 15 32 30 86 35 120 5 35 18 98 30 139 12 41 31 122 42 180 12 58 27
137 35 175 8 39 16 104 19 145 3 41 10 89 14 105 12 40 29 251 36 449 6 181
-16 516 -45 676 -6 30 -14 89 -19 130 -16 129 -63 344 -106 485 -14 45 -30
108 -36 140 -6 32 -17 75 -24 94 -45 120 -109 282 -125 316 -53 116 -74 164
-86 198 -7 20 -24 52 -37 70 -13 17 -31 46 -39 62 -48 94 -87 165 -106 192
-12 17 -22 36 -22 42 0 5 -13 29 -29 53 -15 24 -36 61 -46 83 -10 22 -35 60
-54 85 -20 24 -40 52 -46 61 -21 37 -103 144 -162 213 -35 41 -63 78 -63 84 0
6 -34 46 -76 89 -42 42 -82 88 -88 103 -6 14 -74 86 -151 160 -77 74 -149 145
-160 157 -11 12 -45 39 -76 60 -31 21 -86 65 -122 98 -35 33 -75 67 -87 75
-13 8 -41 30 -64 47 -59 47 -172 123 -181 123 -5 0 -18 8 -29 19 -37 33 -185
131 -198 131 -17 1 -96 40 -134 67 -30 22 -196 103 -210 103 -4 0 -15 6 -23
14 -9 7 -50 28 -91 46 -41 18 -93 41 -115 51 -79 35 -113 49 -123 49 -6 0 -26
9 -44 20 -18 10 -64 26 -101 35 -37 8 -84 24 -105 35 -33 17 -175 58 -227 66
-11 2 -83 16 -161 33 -78 16 -168 32 -200 36 -32 4 -64 11 -70 16 -6 5 -38 11
-70 14 -32 3 -81 8 -109 11 -201 22 -783 39 -820 25z m670 -240 c39 -6 120
-15 181 -20 62 -6 145 -17 185 -26 41 -9 115 -25 164 -35 50 -10 138 -35 197
-54 59 -20 118 -36 130 -36 37 0 318 -103 463 -169 39 -18 91 -36 117 -41 28
-6 66 -24 93 -45 26 -19 52 -35 58 -35 7 0 23 -6 37 -14 14 -7 50 -27 81 -43
112 -61 205 -117 262 -160 31 -23 60 -43 63 -43 8 0 64 -41 111 -80 22 -20 62
-46 87 -59 25 -13 53 -32 62 -42 10 -11 21 -19 26 -19 15 0 110 -85 296 -265
293 -282 335 -329 439 -490 14 -22 48 -63 74 -92 27 -28 49 -56 49 -61 0 -6
19 -34 43 -64 47 -59 97 -133 97 -145 0 -5 20 -37 45 -72 25 -36 45 -70 45
-76 0 -7 18 -37 39 -67 22 -30 52 -86 66 -124 36 -91 45 -113 94 -215 22 -47
48 -106 56 -130 9 -24 22 -53 30 -65 12 -19 44 -113 131 -385 13 -42 24 -83
24 -91 0 -8 6 -28 14 -44 8 -16 17 -54 21 -84 4 -30 11 -61 15 -70 10 -19 39
-189 50 -295 5 -44 13 -107 19 -140 5 -33 10 -102 10 -152 1 -51 6 -112 13
-136 9 -34 9 -95 -1 -258 -19 -350 -34 -509 -55 -604 -8 -33 -19 -91 -25 -130
-7 -38 -16 -83 -21 -100 -5 -16 -19 -68 -30 -115 -43 -181 -75 -284 -126 -400
-18 -41 -36 -91 -39 -110 -4 -19 -11 -41 -16 -50 -12 -22 -53 -116 -116 -259
-57 -132 -92 -198 -149 -283 -19 -27 -34 -57 -34 -66 0 -14 -61 -114 -80 -132
-6 -5 -30 -40 -70 -100 -14 -21 -52 -73 -85 -117 -33 -43 -76 -104 -94 -134
-19 -31 -50 -66 -68 -80 -17 -13 -38 -37 -44 -52 -7 -16 -29 -40 -49 -53 -20
-14 -60 -53 -88 -88 -28 -35 -76 -85 -108 -112 -63 -55 -79 -70 -130 -131 -20
-24 -41 -43 -46 -43 -6 0 -19 -11 -30 -25 -17 -22 -99 -84 -157 -120 -9 -6
-61 -44 -115 -85 -141 -106 -310 -220 -386 -259 -36 -18 -74 -41 -85 -51 -25
-23 -160 -90 -179 -90 -19 0 -124 -49 -132 -61 -3 -5 -13 -9 -22 -9 -10 0 -51
-17 -92 -38 -42 -21 -90 -41 -107 -45 -18 -4 -61 -20 -95 -36 -35 -16 -81 -33
-103 -37 -22 -4 -53 -15 -70 -26 -16 -10 -44 -18 -62 -18 -17 0 -34 -4 -38 -9
-7 -12 -105 -41 -139 -41 -14 0 -47 -7 -73 -16 -80 -27 -283 -64 -443 -80 -36
-4 -71 -12 -79 -18 -10 -8 -143 -11 -445 -10 -471 0 -516 4 -821 66 -303 62
-317 66 -555 146 -58 19 -109 38 -115 42 -5 4 -35 15 -65 23 -30 9 -82 30
-114 47 -33 16 -64 30 -70 30 -6 0 -42 16 -80 35 -37 19 -79 35 -91 35 -12 0
-28 7 -35 15 -7 8 -20 15 -30 15 -9 0 -28 8 -41 18 -13 10 -35 23 -49 30 -51
25 -176 95 -190 107 -8 7 -35 23 -60 35 -25 13 -58 36 -74 51 -17 16 -35 29
-42 29 -7 0 -20 8 -29 17 -10 9 -47 38 -84 64 -36 27 -87 64 -112 83 -26 20
-58 40 -73 46 -14 5 -26 14 -26 20 0 5 -5 10 -11 10 -19 0 -101 77 -362 337
-251 251 -307 312 -307 331 0 6 -15 28 -33 51 -89 112 -123 156 -137 177 -8
12 -35 49 -60 81 -25 32 -58 83 -74 113 -16 30 -53 91 -81 135 -29 44 -62 103
-75 130 -13 28 -28 57 -35 65 -7 8 -27 51 -45 95 -18 43 -39 89 -46 100 -8 12
-27 59 -44 105 -17 46 -48 122 -69 169 -21 47 -46 113 -56 146 -9 33 -27 96
-41 140 -71 241 -100 359 -119 485 -28 197 -38 266 -41 300 -8 77 -23 328 -23
380 0 127 9 332 19 430 6 58 15 146 20 195 14 145 38 285 66 386 14 52 29 110
33 129 4 19 12 44 18 55 6 11 16 43 22 70 27 132 40 171 82 255 15 30 33 75
39 100 7 25 22 68 35 95 12 28 33 75 45 105 40 96 128 272 174 350 25 41 57
98 72 125 14 28 41 68 58 90 18 22 36 48 39 59 4 10 23 39 42 65 127 166 155
205 155 213 0 12 59 85 118 147 23 24 42 50 42 57 0 7 15 23 33 35 43 30 276
260 282 279 3 8 26 31 51 50 25 19 77 63 114 97 37 34 87 72 110 85 60 33 73
41 95 61 40 35 133 106 161 121 16 9 49 32 74 51 25 18 49 34 54 34 5 1 24 12
42 26 18 14 38 25 44 25 9 0 55 26 222 127 32 18 83 41 115 49 31 8 62 19 67
23 6 5 47 23 91 41 44 18 94 38 110 46 58 26 160 65 205 78 25 8 59 19 75 25
41 15 373 105 460 125 101 23 216 39 535 76 97 11 644 4 735 -9z"/>
<path d="M5260 9798 c-35 -5 -65 -10 -66 -11 -1 -1 1 -17 3 -34 4 -22 11 -33
22 -33 15 0 20 -20 32 -126 12 -103 13 -127 2 -131 -12 -5 -18 -54 -8 -65 7
-7 138 12 148 21 12 12 -3 61 -19 61 -16 0 -20 15 -34 123 -14 111 -13 137 6
137 11 0 14 5 10 16 -3 9 -6 24 -6 35 0 10 -6 18 -12 18 -7 -1 -42 -6 -78 -11z"/>
<path d="M5384 9796 c-3 -8 -4 -25 -2 -38 3 -21 8 -23 58 -23 l55 0 3 -162 2
-163 46 0 45 0 -2 163 -1 162 56 3 56 3 0 34 0 35 -155 0 c-126 0 -157 -3
-161 -14z"/>
<path d="M5730 9805 c0 -3 21 -61 47 -128 42 -112 46 -128 44 -199 l-3 -78 45
0 45 0 4 68 c3 63 7 73 77 185 41 65 71 120 68 123 -3 3 -23 8 -44 11 l-40 5
-43 -83 -43 -83 -29 84 c-15 46 -34 87 -40 92 -14 9 -88 11 -88 3z"/>
<path d="M4995 9783 c-94 -21 -135 -56 -135 -115 0 -59 23 -94 72 -111 24 -8
61 -21 83 -29 46 -16 60 -52 29 -75 -22 -16 -108 -17 -136 -2 -19 10 -20 9
-13 -33 4 -23 8 -44 10 -46 1 -1 24 -3 51 -3 137 -3 217 55 200 145 -9 46 -51
80 -123 101 -67 20 -83 30 -83 56 0 30 55 52 111 45 37 -5 48 -4 45 6 -3 7 -7
25 -10 41 -6 24 -11 27 -44 26 -20 -1 -46 -3 -57 -6z"/>
<path d="M6307 9713 c-3 -5 -19 -90 -38 -191 -36 -201 -36 -205 26 -200 28 3
30 7 42 67 7 36 15 67 18 69 3 3 31 1 63 -5 31 -6 58 -10 59 -9 0 0 4 17 8 38
l7 36 -56 7 c-31 4 -59 11 -62 17 -3 5 -3 27 1 49 l7 41 47 -8 c88 -14 96 -13
99 23 4 36 12 32 -116 58 -83 17 -99 18 -105 8z"/>
<path d="M4540 9668 c-41 -10 -78 -22 -82 -26 -4 -4 15 -90 41 -192 l49 -185
37 2 c21 2 40 5 43 8 5 4 -7 66 -24 133 -6 19 -2 22 22 22 21 0 43 -14 85 -56
57 -56 58 -56 103 -50 25 4 48 11 51 16 5 8 -123 124 -145 132 -8 2 -3 18 15
43 36 53 30 107 -15 148 -37 33 -72 34 -180 5z"/>
<path d="M6695 9635 c-5 -2 -22 -6 -37 -9 -97 -21 -168 -185 -124 -289 30 -73
128 -126 209 -113 87 14 137 64 162 164 25 98 -8 183 -87 220 -43 20 -104 33
-123 27z m75 -90 c37 -19 50 -43 50 -92 -1 -77 -54 -153 -108 -153 -104 0
-137 138 -52 222 41 41 65 46 110 23z"/>
<path d="M4230 9561 c-52 -20 -95 -41 -95 -47 0 -7 133 -349 142 -363 1 -3
196 74 215 85 9 6 -12 64 -23 64 -5 0 -37 -11 -71 -25 -34 -14 -62 -24 -64
-22 -5 5 -34 80 -32 82 2 1 28 12 58 24 30 13 56 24 58 26 3 3 -19 65 -24 65
-2 0 -26 -9 -54 -20 -28 -11 -55 -20 -60 -20 -5 0 -17 17 -25 37 -12 29 -13
38 -3 45 7 4 16 8 20 8 3 0 27 9 52 19 44 20 45 21 35 50 -6 17 -16 31 -22 30
-7 0 -55 -17 -107 -38z"/>
<path d="M7016 9552 c-20 -33 -89 -238 -93 -279 -7 -68 19 -112 85 -143 91
-43 179 -23 217 49 20 40 95 241 95 257 0 12 -67 41 -75 32 -2 -2 -24 -57 -49
-122 -25 -65 -53 -127 -62 -137 -38 -42 -124 -11 -124 44 0 13 20 79 45 147
25 68 44 124 42 126 -11 10 -78 31 -81 26z"/>
<path d="M4028 9484 c-34 -18 -34 -21 -8 -188 11 -71 18 -131 16 -133 -2 -2
-49 48 -105 112 -56 63 -104 115 -106 115 -15 0 -75 -36 -75 -44 1 -6 63 -76
139 -155 l139 -145 46 18 c55 21 53 4 26 246 -11 96 -20 178 -20 183 0 11 -22
8 -52 -9z"/>
<path d="M7297 9247 c-95 -209 -93 -201 -62 -215 14 -7 32 -12 39 -12 7 0 37
52 66 115 30 63 57 112 60 108 4 -5 15 -64 24 -133 27 -188 23 -177 68 -195
22 -9 42 -15 43 -13 2 2 39 83 83 181 l81 177 -31 16 c-16 8 -35 13 -42 11 -6
-3 -33 -55 -60 -116 -27 -61 -52 -109 -55 -106 -2 3 -15 71 -27 151 -12 81
-26 150 -31 155 -4 4 -24 15 -44 23 l-37 15 -75 -162z"/>
<path d="M3623 9284 c-35 -19 -63 -37 -63 -39 0 -2 5 -16 12 -30 7 -17 17 -24
28 -20 23 7 146 -210 130 -230 -10 -12 -3 -41 15 -63 4 -4 94 42 118 60 16 12
17 17 6 41 -8 19 -19 27 -32 25 -28 -4 -146 205 -128 226 9 10 9 20 0 40 -7
14 -15 26 -18 26 -3 0 -34 -16 -68 -36z"/>
<path d="M5355 9234 c-161 -17 -399 -56 -535 -88 -120 -28 -383 -112 -505
-161 -109 -44 -301 -135 -390 -185 -272 -153 -438 -271 -691 -491 -127 -110
-365 -369 -452 -491 -65 -90 -191 -276 -206 -303 -9 -16 -30 -52 -47 -80 -140
-232 -311 -657 -369 -920 -11 -49 -25 -103 -30 -120 -13 -43 -47 -252 -62
-380 -16 -144 -16 -616 1 -765 42 -375 163 -820 301 -1105 16 -33 41 -85 54
-115 14 -30 36 -73 48 -95 13 -22 41 -71 63 -110 41 -74 182 -290 222 -340
170 -213 225 -277 342 -394 168 -168 230 -222 398 -347 525 -392 1137 -630
1813 -705 118 -12 596 -13 705 0 366 44 718 131 999 247 296 123 497 236 800
448 26 19 96 74 155 122 346 286 644 647 859 1039 52 95 81 156 180 375 38 85
116 328 157 489 42 162 70 326 96 556 13 111 6 659 -9 735 -6 30 -18 107 -27
170 -9 63 -23 142 -31 175 -120 498 -268 849 -521 1233 -180 274 -378 501
-623 716 -159 139 -405 320 -526 385 -21 12 -59 33 -84 48 -187 107 -573 273
-728 312 -20 6 -95 25 -167 44 -109 29 -240 56 -355 72 -14 2 -56 9 -95 15
-68 11 -660 22 -740 14z m675 -154 c41 -5 131 -18 200 -29 111 -18 179 -33
380 -84 71 -18 296 -97 380 -133 760 -324 1356 -868 1739 -1587 58 -109 54
-125 -19 -89 -25 13 -35 24 -34 40 1 29 -42 37 -148 28 l-80 -7 6 36 c7 34 6
35 -18 25 -58 -22 -122 -60 -134 -79 -7 -12 -21 -21 -33 -21 -18 0 -20 4 -14
30 4 17 4 30 0 30 -14 0 -114 -94 -149 -140 -42 -55 -53 -60 -65 -28 -7 20 -9
20 -33 -13 -32 -43 -63 -104 -94 -186 -33 -89 -92 -203 -104 -203 -21 0 -32
59 -36 195 -5 152 -11 242 -20 292 -5 27 -10 31 -33 30 -21 -2 -27 3 -29 23
-9 72 -78 269 -94 270 -5 0 -8 -9 -8 -20 0 -40 -20 -19 -61 63 -42 83 -65 117
-81 117 -4 0 -8 -6 -8 -14 0 -31 -23 -26 -73 17 -29 25 -70 55 -92 67 -37 21
-40 21 -52 4 -12 -16 -17 -16 -90 -2 -43 9 -81 13 -85 9 -5 -4 23 -34 61 -66
77 -66 87 -81 70 -102 -7 -7 -10 -15 -8 -17 2 -3 40 -18 84 -36 44 -17 91 -38
103 -46 22 -15 23 -17 7 -34 -9 -10 -15 -24 -13 -30 2 -6 33 -35 68 -64 65
-52 84 -82 56 -88 -12 -2 -4 -20 32 -73 27 -38 61 -92 77 -119 26 -44 27 -51
13 -60 -14 -9 -13 -15 13 -53 17 -24 46 -77 66 -119 28 -59 33 -78 24 -87 -16
-15 -57 30 -143 155 -57 83 -137 168 -158 168 -5 0 -10 -11 -10 -25 0 -32 -14
-32 -59 3 -73 58 -211 120 -211 96 0 -3 5 -15 11 -26 18 -34 -4 -44 -48 -22
-37 18 -193 34 -193 20 0 -4 7 -18 16 -32 9 -13 15 -27 12 -29 -2 -3 -38 -13
-79 -23 -59 -15 -149 -51 -167 -67 -2 -2 2 -12 8 -22 11 -17 3 -29 -71 -101
-45 -45 -80 -84 -77 -88 4 -3 43 6 87 21 99 33 127 31 123 -7 -2 -16 0 -28 4
-28 3 0 36 21 72 48 132 94 152 101 152 52 0 -33 11 -37 57 -19 26 10 128 39
138 39 10 0 5 -36 -6 -47 -8 -8 7 -13 57 -18 74 -7 192 -30 201 -39 3 -3 1
-12 -6 -20 -9 -11 -3 -15 36 -21 62 -9 194 -52 212 -70 25 -24 3 -36 -37 -19
-51 22 -219 30 -277 14 -54 -15 -62 -25 -40 -50 19 -21 14 -25 -39 -34 -43 -8
-226 -96 -226 -109 0 -4 11 -12 25 -17 29 -11 33 -38 8 -46 -42 -14 -70 -32
-125 -83 -62 -57 -70 -75 -38 -84 20 -5 28 -41 11 -51 -15 -9 -85 -136 -105
-190 -18 -47 -18 -50 -2 -62 17 -12 17 -16 1 -69 -8 -31 -18 -86 -21 -123 -6
-77 -8 -78 70 43 41 65 52 76 70 71 20 -5 25 5 66 126 25 73 51 133 57 136 7
2 18 -9 23 -24 l11 -28 23 39 c83 146 108 185 116 185 5 0 10 -13 12 -29 l3
-30 75 70 c41 38 87 78 102 89 46 35 40 4 -10 -52 -49 -54 -92 -111 -92 -122
0 -3 9 -6 19 -6 37 0 33 -22 -11 -68 -25 -26 -60 -69 -80 -97 -36 -52 -98
-160 -98 -171 0 -4 14 -4 30 0 25 4 30 2 30 -13 0 -10 -8 -29 -18 -42 -34 -46
-60 -105 -82 -182 -22 -82 -21 -99 5 -77 32 27 37 -2 21 -114 -9 -59 -16 -140
-16 -181 0 -70 1 -75 21 -72 28 3 35 -13 48 -113 12 -90 30 -160 41 -160 4 0
10 46 14 103 4 56 12 119 18 140 11 35 14 38 40 33 27 -5 27 -5 23 37 -21 185
-25 228 -25 268 0 56 7 64 37 44 29 -19 28 -24 42 138 7 70 14 134 18 142 8
23 22 18 34 -12 11 -26 13 -22 49 82 44 130 85 225 97 225 5 0 13 -4 19 -10 6
-6 14 5 22 33 21 69 76 172 92 172 9 0 14 -8 12 -20 -1 -11 -5 -73 -9 -137 -4
-86 -2 -125 7 -149 12 -28 11 -33 -3 -44 -14 -10 -17 -30 -17 -115 0 -93 2
-106 22 -127 20 -21 20 -24 5 -41 -33 -37 -17 -230 21 -258 14 -10 15 -15 3
-38 -12 -21 -12 -41 -2 -118 20 -152 22 -160 53 -189 28 -25 29 -27 12 -44
-17 -16 -16 -22 5 -114 35 -148 50 -188 77 -205 25 -17 32 -42 12 -48 -15 -5
0 -61 56 -199 51 -127 52 -129 77 -129 18 0 20 -4 14 -39 -5 -33 0 -52 43
-137 28 -55 73 -139 101 -188 28 -49 51 -90 51 -92 0 -2 23 -37 50 -78 74
-110 67 -118 -45 -60 -373 194 -686 323 -1068 439 -32 10 -56 23 -54 29 2 6
29 12 61 14 39 2 56 7 53 15 -8 25 -56 31 -140 17 -111 -18 -142 -17 -282 14
-204 46 -323 66 -505 86 -96 11 -218 25 -270 32 -125 16 -717 16 -825 0 -44
-6 -147 -19 -230 -27 -170 -18 -180 -19 -290 -39 -44 -8 -83 -12 -87 -9 -12 6
-10 41 7 139 9 49 13 99 10 111 -5 22 -10 23 -94 23 l-89 0 -4 -28 c-2 -15 2
-70 9 -122 21 -159 21 -153 -7 -161 -14 -4 -90 -24 -170 -44 -358 -91 -741
-231 -1066 -391 -106 -52 -197 -94 -203 -94 -18 0 -13 19 23 73 104 161 250
444 240 466 -17 42 -16 51 4 51 26 0 32 10 71 105 73 177 82 209 64 222 -19
15 -10 43 16 50 22 5 21 3 65 170 30 114 31 124 17 148 -15 25 -15 27 11 46
25 19 31 36 44 128 2 14 8 57 14 96 8 58 7 71 -5 78 -21 11 -19 34 4 46 34 19
46 218 15 252 -13 15 -13 19 1 33 24 24 35 72 35 153 0 61 -3 75 -22 92 -18
18 -20 24 -10 46 13 29 15 175 3 247 -8 50 -1 75 18 64 14 -9 64 -107 80 -158
10 -30 18 -38 36 -38 21 0 28 -13 63 -102 21 -57 47 -129 57 -160 20 -62 30
-70 40 -37 11 34 30 16 37 -37 10 -61 27 -203 27 -227 1 -15 6 -17 31 -12 l30
7 -1 -54 c0 -50 -14 -230 -21 -273 -2 -16 3 -20 27 -20 l30 0 12 -95 c7 -52
16 -120 20 -150 l8 -55 22 80 c12 44 24 105 28 135 8 73 17 89 41 69 16 -13
17 -6 10 131 -3 80 -11 163 -17 184 -11 41 4 77 25 56 5 -5 14 -10 18 -10 31
0 -54 244 -98 281 -8 6 -14 20 -14 30 0 15 5 17 30 13 40 -8 39 4 -7 80 -59
100 -103 159 -146 197 -42 39 -42 59 -1 59 l25 0 -33 46 c-18 26 -50 66 -71
90 -72 82 -31 68 70 -24 56 -51 104 -92 108 -92 3 0 4 9 0 20 -9 27 3 44 20
30 13 -11 91 -144 107 -182 10 -24 25 -23 33 2 13 42 33 18 64 -77 57 -174 62
-185 79 -171 17 15 43 -12 96 -102 54 -91 61 -69 30 84 -17 82 -17 89 -1 97
15 9 15 14 -4 60 -21 54 -50 109 -94 178 -27 44 -26 58 8 70 20 7 17 12 -36
68 -31 32 -77 69 -102 82 -49 24 -57 44 -25 61 11 6 20 15 20 20 0 13 -186
101 -227 107 -41 7 -50 19 -29 42 15 16 14 19 -11 31 -50 24 -200 25 -281 2
-46 -13 -74 -17 -78 -10 -3 5 -2 13 2 18 19 18 135 60 197 71 58 11 65 14 56
30 -7 13 -5 19 9 23 33 9 127 25 189 31 59 7 62 8 52 27 -20 36 3 40 94 13 48
-14 90 -25 93 -25 4 0 4 11 2 25 -10 49 15 49 88 -1 38 -26 80 -55 93 -65 32
-25 49 -24 53 3 4 32 27 33 120 4 45 -14 83 -24 85 -23 7 8 -58 86 -102 122
-40 34 -46 43 -41 67 5 26 1 30 -52 54 -31 14 -83 30 -115 36 -62 11 -78 27
-59 59 7 10 12 21 12 24 0 15 -139 3 -179 -15 -24 -11 -47 -20 -52 -20 -13 0
-11 44 2 57 6 6 7 13 2 16 -13 8 -187 -79 -214 -107 -32 -35 -63 -35 -57 -1
14 69 -75 -8 -165 -143 -70 -104 -129 -168 -146 -158 -16 10 5 62 75 187 6 11
22 31 34 44 20 21 21 25 7 25 -37 0 -4 74 94 209 28 38 30 45 15 53 -9 5 -16
12 -16 17 0 6 112 102 144 123 7 4 4 14 -8 27 -26 28 -16 45 41 66 130 49 142
56 137 85 -5 23 4 35 67 93 40 37 71 68 68 71 -2 2 -40 -3 -83 -11 -75 -14
-81 -14 -93 3 -12 17 -15 17 -45 2 -18 -9 -60 -39 -93 -67 -58 -49 -60 -50
-76 -31 -16 18 -17 18 -41 -8 -29 -33 -78 -124 -78 -146 0 -25 -31 -32 -43
-11 -9 16 -13 12 -33 -32 -12 -28 -33 -93 -46 -143 -21 -82 -25 -90 -44 -86
-35 9 -45 -47 -53 -287 -7 -221 -12 -244 -46 -230 -12 4 -49 80 -90 183 -36
90 -58 136 -87 177 -30 44 -48 55 -48 28 0 -23 -26 -18 -43 9 -9 13 -49 57
-89 97 l-73 73 -3 -32 c-4 -37 -34 -45 -52 -13 -12 24 -63 56 -119 76 l-42 14
7 -34 6 -35 -70 6 c-38 4 -91 3 -117 0 -40 -6 -46 -10 -42 -27 4 -15 -4 -24
-34 -40 -50 -25 -59 -10 -30 47 11 22 29 59 40 84 12 25 44 83 74 130 48 78
67 107 160 240 131 190 338 417 522 574 178 152 225 188 380 290 174 115 441
255 605 319 222 85 223 85 390 132 122 34 263 64 342 75 45 6 106 15 133 21
135 28 615 33 805 9z m-3407 -2017 c21 -3 40 -11 42 -17 12 -43 16 -48 28 -39
6 5 50 20 95 33 69 19 85 21 92 10 5 -8 4 -22 -2 -33 -5 -10 -8 -21 -5 -23 2
-3 43 -8 91 -11 85 -6 101 -14 74 -41 -14 -14 -17 -12 62 -45 107 -45 145 -70
143 -95 -2 -16 7 -27 35 -41 46 -23 174 -127 170 -138 -5 -14 -51 -2 -129 33
-85 38 -177 52 -223 35 -27 -11 -28 -13 -12 -30 28 -30 18 -38 -56 -44 -75 -6
-208 -42 -208 -56 0 -4 9 -16 20 -26 11 -10 20 -22 20 -26 0 -4 -24 -15 -52
-23 -57 -17 -85 -33 -142 -83 -39 -35 -43 -43 -22 -43 7 0 19 -6 25 -14 9 -11
1 -27 -39 -77 -29 -35 -67 -90 -87 -122 -33 -54 -34 -59 -18 -71 17 -12 16
-17 -8 -82 -15 -38 -29 -91 -33 -119 l-5 -50 33 40 c18 22 50 58 70 80 33 36
39 39 58 27 19 -12 23 -7 70 95 62 135 64 137 84 141 10 2 16 -3 16 -17 0 -32
18 -34 37 -4 9 15 40 54 67 86 54 62 81 74 70 31 -8 -30 -3 -29 56 16 55 42
156 100 174 100 36 0 10 -56 -58 -125 -31 -30 -60 -64 -66 -75 -9 -18 -8 -20
15 -20 36 0 31 -16 -18 -63 -42 -41 -177 -234 -177 -254 0 -5 14 -8 30 -5 24
3 30 1 30 -15 0 -11 -9 -28 -19 -40 -37 -39 -89 -157 -106 -241 -7 -32 -6 -33
15 -22 38 20 44 0 27 -87 -8 -43 -18 -124 -22 -181 -7 -103 -7 -104 16 -100
24 3 27 -6 58 -189 7 -40 17 -73 22 -73 5 0 9 3 9 8 1 4 9 63 18 132 l18 125
30 0 c23 1 28 5 26 20 -1 11 -6 88 -11 170 -10 159 -6 179 30 157 27 -17 39
-7 39 32 0 41 27 223 35 236 10 16 35 11 35 -7 0 -32 18 2 58 107 57 153 79
192 102 185 15 -5 22 4 39 50 24 64 89 192 101 200 22 14 45 -90 55 -260 3
-49 11 -131 17 -182 11 -91 9 -139 -22 -448 -49 -487 -227 -980 -503 -1395
-111 -166 -238 -320 -263 -320 -24 0 -198 309 -284 503 -114 259 -208 573
-245 822 -8 61 -20 137 -26 170 -15 89 -22 553 -10 680 21 228 31 289 85 540
15 67 74 262 101 335 44 115 67 171 89 223 25 55 27 57 63 57 21 0 55 -3 76
-7z m6206 -20 c112 -243 232 -653 261 -888 32 -264 42 -583 26 -820 -20 -296
-129 -737 -253 -1030 -82 -191 -245 -497 -296 -552 -20 -22 -21 -22 -40 -5
-27 23 -122 142 -182 227 -161 225 -313 515 -400 766 -142 404 -209 887 -175
1254 28 293 35 340 53 343 9 2 20 -5 25 -15 4 -10 20 -39 35 -66 16 -26 39
-76 51 -111 21 -60 24 -64 39 -49 15 15 19 11 50 -58 19 -41 42 -98 52 -128 9
-29 24 -65 31 -80 8 -14 14 -33 15 -41 0 -9 4 -7 11 8 18 37 36 26 43 -25 4
-27 11 -64 15 -83 5 -19 12 -66 16 -103 6 -65 7 -67 25 -51 10 9 25 14 35 10
13 -5 15 -15 10 -54 -3 -26 -8 -104 -12 -173 l-6 -127 26 5 c21 4 26 1 31 -21
3 -14 8 -38 11 -54 4 -15 12 -67 19 -117 12 -86 13 -89 25 -60 7 17 18 70 26
118 17 115 22 127 45 127 13 0 19 7 19 23 0 57 -22 266 -31 301 -12 44 1 62
33 45 15 -8 18 -6 18 14 0 37 -64 190 -100 240 -34 48 -33 70 5 65 13 -2 25 1
25 5 2 15 -97 163 -154 230 -31 37 -56 71 -56 76 0 5 12 11 26 13 26 3 24 6
-45 77 -53 53 -74 83 -78 107 -7 43 10 45 69 5 24 -15 61 -40 83 -55 22 -14
50 -33 63 -43 23 -16 23 -16 20 13 -5 49 18 34 92 -59 68 -87 70 -88 80 -63
16 42 35 30 68 -41 85 -189 81 -183 103 -170 18 11 26 6 72 -43 29 -30 59 -66
68 -80 9 -14 20 -22 23 -19 8 8 -29 151 -49 190 -19 36 -19 55 0 63 9 3 12 12
8 23 -11 29 -101 157 -128 183 -30 28 -33 60 -5 67 29 8 25 17 -23 57 -46 38
-121 75 -150 76 -29 0 -33 30 -7 50 23 17 23 18 3 28 -38 21 -168 52 -215 52
-53 0 -68 13 -44 39 23 25 21 28 -29 36 -55 8 -143 -9 -199 -39 -51 -27 -124
-51 -132 -44 -11 12 20 44 88 93 39 28 81 56 94 63 18 9 23 19 19 32 -6 19 11
29 213 127 2 0 -2 10 -9 22 -17 26 -9 33 38 32 21 0 59 2 84 5 45 5 47 7 45
37 -1 30 1 32 29 30 17 -1 39 -7 50 -12 17 -8 105 -31 119 -31 2 0 6 10 8 22
3 26 32 35 114 37 46 1 52 -1 63 -26z m-2664 -2768 c212 -20 330 -38 610 -93
70 -14 339 -84 465 -121 290 -86 740 -276 1000 -422 41 -23 91 -50 111 -60 61
-30 66 -43 33 -86 -109 -144 -339 -383 -368 -383 -10 0 -33 9 -51 20 -59 36
-137 78 -285 150 -80 39 -153 76 -163 81 -25 14 -315 129 -324 129 -4 0 -37
11 -73 24 -109 40 -353 111 -420 121 -24 4 -51 11 -60 16 -26 14 -262 52 -500
80 -173 20 -673 30 -850 16 -411 -31 -897 -138 -1240 -272 -19 -8 -78 -30
-130 -51 -173 -67 -415 -184 -597 -290 l-32 -19 -77 75 c-83 81 -272 293 -299
334 -9 14 -14 30 -11 35 13 20 318 180 511 266 159 72 485 195 610 230 33 9
71 21 84 26 23 10 162 46 206 54 11 2 45 11 75 20 62 18 266 57 445 86 104 17
318 38 520 52 117 9 662 -4 810 -18z m-50 -589 c72 -9 159 -20 195 -26 36 -5
99 -15 140 -21 41 -6 109 -19 150 -29 41 -10 118 -28 170 -40 94 -23 339 -101
495 -158 218 -80 685 -312 698 -346 12 -31 -285 -258 -538 -411 -99 -60 -319
-170 -440 -220 -156 -65 -279 -104 -525 -170 -114 -30 -324 -62 -560 -85 -291
-29 -768 14 -1075 96 -49 13 -110 29 -135 36 -49 12 -226 74 -330 115 -36 14
-125 54 -199 89 -280 135 -508 285 -787 519 -52 44 -44 50 200 175 249 126
508 234 701 290 87 26 248 72 265 76 8 1 47 10 85 19 147 33 253 53 320 60 39
3 86 11 105 16 134 37 789 46 1065 15z"/>
<path d="M5340 8770 c-14 -11 -21 -20 -17 -20 5 0 -3 -14 -17 -31 -20 -23 -24
-35 -16 -48 15 -28 -7 -90 -36 -103 -31 -14 -30 -19 6 -40 30 -17 31 -19 24
-70 -8 -62 -19 -87 -48 -110 -15 -13 -18 -21 -11 -31 6 -8 18 -25 27 -39 10
-13 21 -39 24 -57 7 -33 6 -34 -21 -29 -16 3 -36 1 -46 -5 -23 -14 -49 7 -49
40 0 18 -5 24 -17 21 -14 -3 -17 -12 -15 -43 2 -22 10 -50 18 -62 8 -12 14
-44 14 -71 0 -27 6 -65 14 -83 7 -19 11 -40 9 -47 -3 -7 -2 -24 1 -37 5 -20
13 -25 36 -25 26 0 30 -4 30 -26 0 -28 16 -64 29 -64 4 0 13 11 19 25 15 31
32 32 61 1 23 -24 23 -25 5 -55 -10 -17 -22 -31 -26 -31 -4 0 -8 -16 -8 -35 0
-28 4 -35 19 -35 11 0 32 -15 46 -34 16 -21 38 -36 57 -40 27 -5 36 -2 59 24
15 16 36 30 46 30 10 0 26 6 35 13 15 12 15 18 -13 72 -31 61 -36 94 -18 112
9 9 6 19 -10 39 -26 34 -27 56 -1 79 24 22 10 46 -14 25 -19 -15 -46 -6 -46
15 0 8 19 36 41 60 l41 45 -23 19 -24 20 26 26 c16 17 41 29 66 32 42 6 47 11
74 83 7 19 29 52 47 72 41 45 38 62 -21 118 l-41 40 -1 82 c-1 61 3 91 16 113
24 43 32 85 17 85 -20 0 -32 -12 -46 -43 -15 -35 -38 -44 -61 -23 -10 9 -30
16 -45 16 -15 0 -47 11 -72 25 -54 30 -109 32 -144 5z"/>
<path d="M5760 7739 c-14 -16 -35 -34 -48 -39 -14 -6 -22 -17 -20 -27 2 -15
-4 -18 -34 -18 l-36 0 34 -31 c19 -18 34 -37 34 -43 0 -6 11 -11 24 -11 25 0
66 -41 66 -66 0 -8 5 -14 10 -14 15 0 12 16 -10 52 -11 18 -20 50 -20 71 0 31
3 37 22 37 13 0 38 -18 63 -45 23 -24 54 -49 69 -55 20 -7 34 -25 49 -60 22
-53 51 -73 115 -79 7 0 19 -19 28 -41 9 -22 19 -40 23 -40 4 0 13 17 20 37 13
36 13 37 -19 66 -29 26 -31 30 -16 46 24 26 20 33 -17 26 -30 -6 -36 -3 -61
29 -16 21 -26 46 -24 59 3 20 7 22 61 19 52 -3 58 -1 55 15 -3 14 -14 18 -57
20 -29 2 -66 9 -82 17 -28 14 -29 14 -29 -14 0 -35 -24 -57 -44 -41 -8 7 -17
27 -20 46 -5 24 -21 45 -55 74 -27 23 -50 41 -52 40 -2 0 -15 -14 -29 -30z"/>
<path d="M5244 7548 c-4 -7 2 -18 17 -27 50 -32 99 -91 99 -120 0 -16 7 -34
15 -41 9 -7 25 -35 37 -62 21 -50 33 -57 60 -35 36 29 48 61 48 130 0 64 -2
70 -32 98 -18 16 -38 27 -44 25 -7 -3 -21 2 -33 11 -12 8 -29 12 -38 9 -9 -4
-24 1 -34 10 -15 14 -21 15 -34 4 -12 -10 -19 -10 -27 -2 -15 15 -25 15 -34 0z"/>
<path d="M6330 7314 c-14 -16 -61 -16 -102 1 -23 9 -24 -18 -3 -59 8 -15 15
-39 15 -53 0 -20 4 -24 23 -22 34 5 47 -8 41 -40 -4 -20 -1 -30 10 -34 10 -4
16 -18 16 -40 0 -56 -40 -76 -75 -37 -14 15 -15 23 -6 33 14 18 2 30 -16 16
-16 -14 -17 -33 -1 -75 9 -27 9 -39 -2 -61 -8 -15 -16 -32 -19 -37 -2 -5 22
-6 57 -3 68 7 74 1 60 -63 -8 -37 -2 -77 15 -97 13 -18 27 -16 27 2 0 9 9 15
25 15 14 0 28 6 31 14 6 17 -21 74 -48 99 -13 13 -17 25 -12 40 11 37 24 46
72 53 67 9 75 18 55 62 -17 40 -25 90 -23 161 0 28 -6 51 -16 63 -10 10 -22
28 -28 40 -6 12 -20 22 -31 23 -11 2 -27 5 -36 9 -9 4 -21 0 -29 -10z"/>
<path d="M5630 7140 c0 -6 11 -15 25 -20 21 -8 25 -16 25 -47 -1 -62 -17 -125
-34 -135 -18 -10 -22 -43 -6 -53 6 -3 10 -20 10 -37 0 -29 1 -30 23 -15 12 8
37 18 54 21 26 6 34 3 45 -13 19 -32 38 -26 38 12 0 35 24 78 63 111 14 12 27
36 31 54 5 27 2 32 -14 32 -10 0 -22 5 -25 11 -4 6 -22 8 -44 4 -30 -5 -41 -2
-56 14 -10 12 -24 21 -32 21 -7 0 -31 11 -53 25 -44 28 -50 30 -50 15z"/>
<path d="M5899 6894 c-33 -34 -34 -38 -32 -107 2 -79 -12 -107 -52 -107 -12 0
-32 -11 -45 -25 -20 -21 -21 -27 -9 -42 33 -45 143 -143 159 -143 20 0 110
174 110 214 0 27 20 47 64 61 29 9 31 13 32 60 0 28 4 67 9 88 5 25 4 37 -4
37 -6 0 -11 -8 -11 -18 0 -9 -11 -34 -25 -54 -14 -20 -25 -41 -25 -47 0 -14
-49 -84 -65 -94 -16 -8 -45 17 -45 40 0 8 6 27 14 41 28 53 44 96 40 104 -3 4
-14 8 -24 8 -10 0 -22 5 -25 10 -11 18 -31 11 -66 -26z"/>
<path d="M5029 6877 c-9 -12 -20 -33 -24 -47 -10 -33 -24 -50 -42 -50 -16 0
-100 -83 -171 -168 -24 -29 -50 -52 -57 -52 -8 0 -20 -12 -27 -27 -7 -15 -26
-34 -42 -43 -16 -8 -38 -24 -50 -35 -12 -11 -39 -34 -59 -52 -36 -30 -66 -83
-48 -83 5 0 22 10 38 23 15 13 49 33 74 45 31 15 52 34 65 58 12 23 34 43 61
56 51 24 85 67 102 130 14 48 17 51 78 63 24 5 38 17 55 48 17 30 32 43 57 50
33 8 33 9 27 50 -9 53 -17 61 -37 34z"/>
<path d="M6143 6682 c-26 -23 -43 -46 -43 -59 0 -20 4 -22 56 -18 47 4 65 11
103 42 25 20 48 38 50 40 12 9 -20 21 -69 26 -53 6 -57 4 -97 -31z"/>
<path d="M6486 6622 c-3 -5 2 -32 10 -60 22 -76 16 -105 -25 -118 -18 -6 -38
-18 -43 -27 -12 -21 -27 -21 -50 0 -25 23 -41 5 -40 -46 0 -22 -3 -43 -8 -46
-14 -9 -70 24 -70 40 0 8 -4 15 -10 15 -5 0 -10 -10 -10 -22 0 -45 -62 -108
-105 -108 -7 0 -29 23 -49 50 -20 28 -43 50 -51 50 -8 0 -24 9 -35 20 -27 27
-44 16 -24 -15 20 -31 11 -45 -31 -45 -36 0 -55 -20 -55 -59 0 -23 -30 -43
-63 -40 -46 4 -64 -2 -100 -35 -27 -25 -37 -42 -37 -65 0 -17 -12 -55 -27 -86
-25 -50 -26 -57 -12 -71 15 -14 18 -12 36 19 11 18 25 49 32 68 6 19 25 52 42
72 37 45 67 46 87 5 15 -31 33 -36 52 -13 17 20 26 19 50 -5 27 -27 35 -20 49
35 13 52 31 57 65 20 13 -14 34 -25 49 -25 32 0 77 -46 77 -78 0 -12 -11 -44
-25 -70 -22 -42 -23 -52 -14 -86 6 -21 8 -47 6 -57 -9 -32 31 -68 129 -115
l95 -46 24 22 c32 30 57 21 49 -18 -4 -20 -1 -32 12 -42 15 -13 18 -12 32 8 8
12 22 22 31 22 14 0 17 10 16 53 0 28 -6 62 -13 74 -7 12 -12 31 -12 43 0 11
-7 35 -16 51 -17 35 -6 59 28 59 17 0 18 5 13 44 -6 35 -4 44 10 50 24 9 42
-9 49 -49 4 -19 18 -43 31 -54 30 -23 30 -28 8 -54 -17 -18 -17 -19 1 -33 25
-18 28 -14 30 43 1 43 4 49 31 62 41 19 45 27 45 102 0 52 -4 70 -19 83 -14
13 -18 31 -18 86 0 70 -12 100 -39 100 -19 0 -18 44 1 60 19 16 19 30 1 65 -8
15 -12 34 -9 41 3 9 -2 14 -16 14 -11 0 -28 11 -37 26 -9 14 -31 32 -48 41
-17 9 -37 24 -44 34 -14 20 -28 24 -36 11z"/>
<path d="M4885 5396 c-16 -7 -59 -41 -94 -74 -72 -70 -96 -81 -120 -58 -14 15
-14 19 -1 44 9 15 37 38 62 52 70 37 68 41 -18 34 -92 -7 -116 -20 -161 -90
-69 -106 -123 -142 -131 -86 -3 16 8 34 37 60 23 21 41 43 41 49 0 13 -134
-58 -169 -90 -49 -45 -67 -140 -35 -185 14 -20 23 -22 122 -22 104 0 107 0
137 30 27 26 40 31 100 35 101 7 130 26 175 112 21 39 42 85 48 102 6 17 23
47 38 66 29 38 20 44 -31 21z"/>
<path d="M6300 4966 c-64 -19 -133 -37 -153 -41 -92 -18 -33 -25 197 -25 209
0 247 -2 260 -16 18 -17 21 -50 6 -59 -5 -3 -10 -19 -10 -34 0 -16 -6 -33 -12
-39 -16 -13 -497 -15 -518 -2 -15 9 -40 -4 -40 -21 0 -5 112 -9 248 -9 180 0
251 -3 260 -12 7 -7 12 -29 12 -49 l0 -37 40 15 c44 17 64 9 80 -32 14 -36 -6
-55 -55 -55 -45 0 -45 0 -45 -35 0 -19 5 -44 12 -54 9 -15 9 -26 0 -47 -7 -14
-11 -29 -8 -31 5 -6 98 44 153 82 40 26 63 32 63 14 0 -5 5 -7 10 -4 6 3 10
14 10 24 0 18 36 58 45 49 3 -2 -4 -45 -15 -94 -23 -103 -25 -153 -7 -159 16
-7 115 8 267 38 69 14 137 23 151 20 23 -4 27 -1 32 29 4 18 7 107 8 197 2
160 1 165 -21 183 -28 23 -111 24 -171 2 -24 -9 -78 -18 -119 -20 -41 -3 -95
-7 -120 -10 -34 -5 -49 -2 -58 9 -19 23 -4 70 28 89 25 14 29 24 35 82 4 37 4
70 0 74 -3 4 -106 8 -228 9 l-222 3 -115 -34z"/>
<path d="M4206 4972 c-2 -4 12 -40 32 -80 l36 -72 266 0 265 0 36 75 c20 41
34 77 31 80 -9 8 -660 6 -666 -3z"/>
<path d="M7360 4762 c-22 -18 -23 -23 -21 -183 1 -90 4 -178 7 -196 6 -31 8
-32 57 -32 29 0 95 -10 147 -21 118 -26 238 -43 250 -35 16 10 11 64 -16 180
-14 61 -31 143 -39 183 -7 40 -15 75 -18 78 -2 3 -38 6 -78 8 -41 2 -94 11
-119 20 -62 22 -142 21 -170 -2z"/>
<path d="M4340 4767 c0 -3 16 -31 35 -63 20 -33 38 -69 41 -81 6 -22 10 -23
121 -23 l114 0 14 33 c7 17 27 51 45 75 17 23 28 47 25 51 -5 9 -395 16 -395
8z"/>
<path d="M5478 4153 c-20 -5 -22 -23 -11 -175 l6 -98 28 0 28 0 3 93 3 92 70
-92 c63 -84 73 -93 102 -93 l33 0 1 113 c1 61 2 123 2 137 1 21 -4 26 -31 28
l-32 3 -1 -93 0 -93 -32 39 c-18 22 -50 62 -73 90 -39 49 -59 59 -96 49z"/>
<path d="M5816 4144 c-3 -8 -6 -71 -6 -138 l0 -123 63 -6 c116 -11 186 25 208
106 17 64 -5 117 -61 144 -61 29 -195 41 -204 17z m169 -69 c54 -54 18 -141
-63 -152 l-42 -6 0 85 c0 47 3 88 7 91 16 17 75 6 98 -18z"/>
<path d="M5186 4013 c-21 -70 -40 -136 -43 -146 -4 -16 0 -18 28 -15 31 3 41
13 53 51 4 13 17 17 59 17 48 0 55 -3 65 -25 9 -20 19 -25 47 -25 19 0 35 3
35 8 -1 4 -27 63 -59 132 l-58 125 -45 3 -45 3 -37 -128z"/>
<path d="M6315 4095 c-68 -35 -97 -110 -70 -181 21 -55 64 -82 142 -90 57 -6
60 -5 66 17 10 38 9 42 -19 36 -38 -7 -91 10 -109 36 -35 50 -5 129 54 142 17
4 44 0 66 -9 48 -20 45 -21 45 13 0 24 -6 31 -31 40 -45 15 -109 14 -144 -4z"/>
<path d="M4732 4067 c-34 -8 -43 -14 -39 -28 3 -9 15 -69 28 -133 27 -131 21
-126 121 -102 69 16 103 37 128 79 35 57 19 146 -33 180 -30 19 -133 22 -205
4z m155 -59 c11 -13 23 -32 27 -42 11 -31 -13 -85 -44 -101 -27 -14 -70 -20
-70 -11 0 2 -7 39 -15 81 -8 43 -12 82 -9 86 3 5 24 9 48 9 31 0 48 -6 63 -22z"/>
<path d="M6555 4029 c-105 -93 -40 -250 104 -252 61 -1 106 24 131 73 56 110
-12 210 -144 210 -48 0 -60 -4 -91 -31z m152 -34 c61 -43 20 -165 -55 -165
-36 0 -72 38 -72 76 0 38 22 89 42 97 26 10 64 7 85 -8z"/>
<path d="M4450 4002 c-128 -64 -95 -250 48 -269 54 -7 125 25 152 69 38 62 22
152 -36 197 -34 27 -114 28 -164 3z m115 -55 c38 -32 46 -103 15 -134 -28 -30
-82 -31 -109 -1 -76 80 12 206 94 135z"/>
<path d="M6861 3926 c-23 -94 -26 -138 -11 -167 16 -29 84 -59 136 -59 62 0
92 32 121 131 12 41 25 81 28 90 5 12 -2 20 -26 28 -18 6 -33 10 -35 9 -1 -2
-14 -42 -29 -90 -35 -117 -60 -139 -113 -102 -28 19 -28 55 -1 152 11 40 19
75 17 77 -2 1 -17 6 -34 9 l-31 7 -22 -85z"/>
<path d="M4190 3930 c-77 -26 -120 -75 -120 -136 0 -126 108 -183 234 -123 66
31 68 36 45 111 l-20 67 -52 -16 c-61 -18 -72 -26 -63 -49 5 -12 14 -15 35
-11 24 5 30 2 35 -16 9 -34 8 -35 -28 -47 -105 -34 -166 113 -67 164 16 9 45
17 65 19 42 4 42 4 34 35 -7 27 -25 27 -98 2z"/>
<path d="M7161 3789 c-35 -107 -41 -133 -30 -140 34 -22 52 -5 78 73 14 42 29
79 32 82 3 3 20 -42 37 -101 18 -61 40 -114 49 -121 39 -28 53 -12 103 116 45
114 47 123 30 132 -38 20 -47 11 -76 -70 -16 -44 -31 -80 -34 -80 -3 0 -20 48
-38 106 -31 99 -36 106 -67 120 -19 8 -36 14 -37 14 -2 0 -23 -59 -47 -131z"/>
<path d="M7507 3779 c-4 -15 1 -22 19 -30 14 -5 29 -9 34 -9 22 0 18 -26 -20
-114 -22 -52 -40 -99 -40 -104 0 -7 42 -32 54 -32 2 0 13 21 24 48 11 26 32
73 46 105 l26 57 41 -21 c34 -17 43 -18 50 -7 5 7 8 19 6 26 -2 12 -199 102
-223 102 -7 0 -14 -9 -17 -21z"/>
<path d="M3715 3753 c-33 -15 -61 -27 -63 -28 -2 -2 106 -247 112 -253 6 -5
56 21 56 30 0 5 -7 25 -15 45 -8 19 -15 39 -15 44 0 19 43 8 86 -22 42 -28 47
-30 81 -18 l37 12 -30 23 c-16 13 -45 32 -65 42 -33 17 -35 20 -23 37 19 25
18 80 -2 99 -23 24 -90 19 -159 -11z"/>
<path d="M7750 3602 c-80 -168 -81 -172 -35 -186 17 -5 25 2 43 39 33 69 51
59 63 -35 8 -54 33 -90 64 -90 14 0 11 52 -5 118 -8 30 -7 32 19 32 34 0 71
37 71 71 0 33 -39 69 -117 108 l-62 31 -41 -88z"/>
<path d="M3463 3635 c-64 -29 -93 -71 -93 -135 0 -121 124 -179 235 -110 47
29 80 96 70 143 -11 49 -42 93 -79 111 -46 22 -72 20 -133 -9z m108 -64 c58
-58 30 -151 -45 -151 -63 0 -112 94 -73 142 35 45 79 48 118 9z"/>
<path d="M8029 3562 c0 -4 0 -49 1 -100 1 -83 -1 -97 -24 -137 -14 -24 -26
-46 -26 -48 0 -6 60 -31 64 -26 1 2 13 21 25 42 16 27 46 50 107 84 46 26 84
49 84 53 0 3 -13 13 -28 22 -28 17 -30 16 -80 -17 -28 -19 -54 -35 -58 -35 -3
0 -4 29 -1 65 l5 64 -34 20 c-19 11 -34 17 -35 13z"/>
<path d="M3212 3501 c-34 -21 -67 -42 -73 -48 -8 -8 8 -44 57 -127 38 -63 72
-116 75 -116 4 0 17 9 30 19 l24 19 -23 41 c-27 47 -22 60 28 81 34 14 34 14
19 41 -10 20 -11 20 -55 -5 l-44 -25 -15 22 c-23 32 -19 41 28 67 23 13 43 24
45 26 6 4 -18 44 -26 43 -4 0 -35 -18 -70 -38z"/>
<path d="M4848 3282 l-128 -26 0 -57 0 -57 43 9 c23 5 52 11 65 14 l22 5 0
-200 0 -200 -65 0 -65 0 0 -55 0 -55 206 0 205 0 -3 53 -3 52 -65 5 -65 5 -3
268 c-1 147 -6 266 -10 266 -4 -1 -64 -13 -134 -27z"/>
<path d="M5350 3297 c-47 -15 -116 -86 -129 -133 -31 -111 11 -225 96 -260 53
-23 125 -18 167 11 20 14 39 25 42 25 8 0 -8 -73 -22 -102 -41 -81 -134 -106
-236 -63 -16 6 -18 1 -18 -49 0 -51 2 -57 26 -66 14 -6 60 -10 104 -10 66 0
86 4 131 28 101 52 151 162 151 331 -1 153 -47 245 -144 285 -43 18 -117 19
-168 3z m147 -136 c33 -50 31 -105 -6 -142 -18 -17 -40 -29 -56 -29 -16 0 -38
12 -56 29 -62 63 -21 186 60 179 27 -2 40 -11 58 -37z"/>
<path d="M5882 3295 c-96 -43 -135 -102 -136 -205 -1 -78 21 -129 72 -168 31
-23 45 -27 106 -27 58 0 77 4 104 23 29 21 32 22 32 5 0 -42 -24 -99 -54 -129
-45 -45 -126 -53 -208 -19 -16 6 -18 1 -18 -48 0 -32 5 -59 12 -63 22 -14 167
-17 212 -4 90 25 156 107 181 226 37 175 -4 335 -102 395 -45 28 -154 36 -201
14z m142 -126 c36 -43 37 -119 1 -154 -31 -32 -75 -32 -111 -1 -24 20 -28 31
-28 79 -1 45 3 60 23 81 35 37 81 35 115 -5z"/>
<path d="M6417 3299 c-21 -5 -51 -16 -67 -24 -28 -15 -30 -19 -30 -76 0 -33 3
-59 8 -57 99 51 127 60 164 55 49 -7 76 -30 84 -72 10 -58 -19 -102 -157 -235
l-129 -125 0 -52 0 -53 215 0 215 0 0 55 0 55 -131 0 c-72 0 -129 4 -127 8 2
5 43 44 91 87 123 110 167 178 167 261 0 140 -129 214 -303 173z"/>
<path d="M7743 9133 c-28 -43 -75 -117 -106 -165 l-56 -86 77 -51 c42 -27 97
-55 122 -62 89 -23 181 28 226 126 36 77 29 132 -24 189 -29 31 -165 126 -181
126 -5 0 -31 -35 -58 -77z m148 -72 c31 -31 39 -46 39 -75 0 -76 -55 -136
-124 -136 -36 0 -106 30 -106 45 0 15 131 205 141 205 6 0 29 -17 50 -39z"/>
<path d="M3413 9141 c-13 -11 -23 -23 -23 -28 0 -4 34 -53 74 -108 41 -55 73
-101 71 -103 -1 -2 -69 22 -150 52 l-147 56 -34 -26 c-19 -15 -34 -30 -34 -35
0 -12 218 -303 230 -307 11 -4 59 29 60 40 0 4 -34 54 -76 110 -41 56 -71 104
-67 105 4 2 73 -22 153 -51 l145 -55 30 24 c17 12 30 28 30 35 0 17 -217 309
-230 309 -5 0 -20 -8 -32 -18z"/>
<path d="M8026 8816 l-176 -114 31 -26 c37 -31 49 -32 82 -6 34 27 41 26 95
-17 26 -21 49 -39 52 -41 2 -1 -3 -23 -12 -47 l-17 -44 36 -27 c19 -14 38 -22
43 -18 4 5 31 83 60 174 28 91 55 177 60 191 7 24 4 30 -35 58 l-42 30 -177
-113z"/>
<path d="M3042 8877 c-12 -13 -22 -26 -22 -29 0 -4 38 -50 85 -105 110 -126
116 -149 53 -196 -42 -31 -71 -15 -166 94 -48 55 -91 99 -97 99 -5 -1 -23 -11
-38 -24 l-28 -23 92 -106 c109 -127 157 -157 220 -138 45 14 103 61 125 102
19 37 18 93 -2 132 -22 41 -175 217 -189 217 -7 0 -21 -10 -33 -23z"/>
<path d="M8334 8764 c-18 -26 -18 -27 19 -60 20 -19 37 -38 37 -42 0 -4 -34
-45 -76 -92 -42 -47 -87 -100 -101 -118 l-26 -33 23 -24 c13 -14 29 -25 36
-25 6 0 56 51 110 114 55 63 104 115 110 115 6 1 19 -8 30 -20 33 -36 53 -43
75 -23 10 9 19 22 18 28 0 10 -210 197 -229 204 -5 2 -17 -9 -26 -24z"/>
<path d="M8596 8521 c-9 -10 -14 -25 -11 -33 4 -10 -25 -41 -91 -97 -77 -65
-99 -79 -111 -70 -11 9 -19 7 -38 -11 l-25 -23 47 -56 c26 -31 48 -58 50 -60
7 -10 47 40 48 58 0 12 35 49 88 95 69 59 93 75 111 70 14 -3 28 2 40 15 18
20 18 22 -28 76 -26 30 -51 55 -55 55 -4 0 -15 -8 -25 -19z"/>
<path d="M2452 8330 c-18 -21 -32 -41 -32 -45 0 -3 47 -86 103 -185 l104 -179
33 34 33 34 -26 40 -26 40 45 56 c34 41 51 54 63 50 71 -29 71 -29 101 6 20
24 24 36 16 41 -7 4 -84 34 -172 67 -87 32 -170 64 -184 69 -23 9 -29 6 -58
-28z"/>
<path d="M8619 8312 c-77 -40 -113 -95 -114 -171 0 -47 6 -66 30 -107 59 -94
159 -120 264 -68 93 47 136 133 112 223 -36 134 -167 189 -292 123z m178 -77
c29 -20 46 -75 34 -107 -13 -35 -79 -87 -118 -94 -89 -17 -154 54 -118 129 33
70 147 110 202 72z"/>
<path d="M2236 8039 c-94 -104 -95 -220 -4 -305 77 -73 163 -85 239 -34 52 35
107 112 115 162 6 35 4 37 -68 92 -41 31 -77 56 -80 56 -7 0 -87 -105 -94
-123 -6 -16 45 -54 55 -40 3 5 14 20 23 32 l17 23 30 -21 c39 -28 39 -41 -3
-85 -26 -29 -41 -36 -70 -36 -76 0 -146 63 -146 131 0 51 20 89 67 128 l38 32
-25 19 c-14 11 -30 20 -37 20 -6 0 -32 -23 -57 -51z"/>
<path d="M8858 7952 l-156 -107 18 -30 c11 -16 23 -31 28 -33 4 -1 55 29 112
68 57 38 105 68 107 66 2 -2 -23 -70 -57 -150 l-60 -147 26 -34 c15 -20 31
-32 38 -28 28 16 283 188 298 201 18 15 15 26 -14 65 -12 16 -21 13 -117 -53
-57 -39 -106 -68 -109 -66 -2 3 22 67 54 142 l58 137 -21 36 c-12 20 -27 37
-34 38 -8 1 -85 -46 -171 -105z"/>
<path d="M2055 7720 c-32 -13 -60 -49 -104 -135 l-41 -79 173 -88 c94 -48 175
-88 179 -88 8 0 38 54 38 68 0 5 -29 24 -64 42 -55 28 -63 36 -55 51 11 22 26
26 120 34 l77 7 18 39 c9 22 15 42 12 44 -6 7 -166 -11 -190 -20 -15 -6 -18
-2 -18 20 0 38 -29 82 -66 100 -36 17 -50 18 -79 5z"/>
<path d="M1837 7342 c-30 -53 -52 -100 -48 -104 10 -10 330 -188 338 -188 9 0
113 185 113 200 0 5 -13 16 -28 24 l-28 15 -38 -65 -37 -64 -30 15 c-42 22
-45 38 -14 91 l28 47 -24 18 c-13 10 -28 17 -34 16 -5 -2 -23 -27 -38 -55
l-28 -52 -40 21 -40 20 30 56 c17 31 31 60 31 65 0 4 -13 14 -29 23 l-29 15
-55 -98z"/>
<path d="M9292 7285 c-127 -39 -176 -156 -118 -280 31 -67 45 -78 85 -64 17 6
31 13 31 15 0 2 -11 20 -25 40 -61 90 -31 174 76 204 73 21 143 -33 155 -119
l6 -49 37 13 c33 11 36 16 33 46 -4 53 -46 134 -83 161 -64 48 -120 57 -197
33z"/>
<path d="M1761 7169 c-6 -18 -11 -38 -11 -45 0 -7 54 -54 120 -105 66 -51 118
-94 116 -96 -2 -2 -57 1 -122 6 -192 17 -188 18 -207 -29 -8 -22 -12 -42 -9
-44 4 -2 99 -7 212 -11 l205 -7 17 47 17 46 -32 28 c-89 78 -286 241 -290 241
-3 0 -10 -14 -16 -31z"/>
<path d="M9235 6898 c22 -68 22 -68 73 -68 l48 0 18 -57 c10 -32 20 -62 22
-68 2 -5 -12 -21 -32 -34 -32 -22 -35 -28 -29 -55 4 -17 9 -53 12 -81 2 -27 8
-54 13 -59 8 -8 94 3 240 30 19 4 -5 -24 -93 -108 l-118 -113 7 -43 c4 -27 12
-42 21 -42 15 0 290 45 346 56 23 5 27 10 27 40 0 22 -6 37 -15 40 -9 4 -68
-3 -132 -15 -64 -11 -118 -19 -120 -18 -1 2 49 50 113 108 l115 104 -5 44 c-4
25 -8 47 -11 49 -3 3 -82 -7 -176 -22 -93 -16 -172 -26 -175 -24 -2 3 65 61
150 128 l154 124 -16 45 c-8 25 -19 49 -24 52 -5 3 -102 7 -215 8 l-205 2 7
-23z"/>
<path d="M1605 6778 c-3 -8 -7 -27 -8 -43 l-2 -29 123 -25 c67 -14 122 -28
122 -31 0 -3 -64 -30 -141 -60 -149 -58 -159 -66 -159 -128 0 -27 1 -27 168
-61 244 -50 218 -49 225 -5 4 21 5 39 3 41 -1 2 -63 16 -137 31 l-134 29 155
60 155 61 12 43 c7 23 11 44 10 46 -2 1 -82 19 -178 38 -96 20 -182 38 -192
41 -9 3 -19 -1 -22 -8z"/>
<path d="M1515 6316 c-11 -53 -23 -202 -17 -207 10 -8 381 -43 388 -37 3 4 10
54 16 113 12 115 9 125 -39 125 -19 0 -22 -7 -28 -76 -7 -71 -9 -75 -29 -70
-11 3 -32 6 -45 6 -23 0 -24 2 -18 64 l6 64 -31 6 c-42 8 -48 2 -48 -52 0 -66
-9 -76 -58 -67 -30 5 -39 11 -37 23 2 9 6 40 9 68 l5 52 -35 4 c-29 3 -35 1
-39 -16z"/>
<path d="M9720 6204 c-8 -1 -82 -8 -164 -15 l-149 -12 6 -92 c6 -105 21 -147
68 -192 42 -40 77 -53 137 -53 86 1 147 34 180 95 17 31 21 168 8 240 -6 32
-10 35 -39 34 -18 -1 -39 -3 -47 -5z m20 -139 c0 -88 -44 -131 -133 -129 -44
0 -54 5 -83 37 -27 29 -34 45 -34 76 0 37 2 40 33 45 41 7 98 12 165 14 l52 2
0 -45z"/>
<path d="M9601 5802 l-173 -2 6 -73 c3 -39 6 -94 6 -120 l0 -48 33 3 32 3 3
73 3 72 34 0 c19 0 38 0 43 0 4 0 9 -28 12 -62 5 -62 5 -63 37 -66 l32 -3 3
68 3 68 43 3 42 3 0 -69 c0 -69 0 -70 28 -74 16 -2 34 -2 40 0 17 5 16 208 0
219 -16 9 -13 9 -227 5z"/>
<path d="M1661 5645 c-17 -15 -39 -50 -51 -83 -25 -67 -36 -82 -61 -82 -30 0
-42 37 -35 103 6 58 5 59 -17 53 -12 -3 -30 -6 -39 -6 -15 0 -18 -10 -18 -70
0 -116 40 -173 122 -173 55 0 82 23 113 100 26 63 48 93 66 93 4 0 15 -8 24
-17 13 -13 16 -29 12 -72 -2 -31 -8 -65 -12 -75 -8 -17 -5 -19 30 -13 21 3 43
11 48 16 5 5 10 41 9 79 0 112 -42 171 -119 172 -30 0 -50 -7 -72 -25z"/>
<path d="M9426 5489 c-3 -19 -7 -71 -10 -117 -4 -80 -4 -82 20 -88 45 -11 54
0 54 70 0 36 4 67 9 70 5 3 77 1 162 -4 84 -5 153 -9 154 -7 1 1 5 20 8 43 l7
41 -68 6 c-37 4 -126 9 -199 13 l-132 7 -5 -34z"/>
<path d="M9396 5238 c-14 -56 -8 -74 34 -93 39 -17 40 -20 34 -54 -19 -111
-16 -106 -62 -112 -23 -3 -43 -7 -46 -10 -2 -2 -7 -23 -11 -46 -5 -33 -4 -43
7 -43 31 0 393 71 400 78 4 4 9 29 10 55 l3 48 -170 96 c-93 52 -175 97 -181
100 -6 2 -14 -6 -18 -19z"/>
<path d="M1833 5052 c-10 -6 -11 -25 -5 -76 6 -47 5 -69 -2 -71 -6 -2 -60 -8
-121 -14 -60 -7 -129 -14 -152 -17 l-43 -6 6 -42 c4 -22 8 -42 9 -44 3 -3 387
39 392 42 3 3 -16 183 -23 214 -5 23 -36 30 -61 14z"/>
<path d="M9327 4842 c-3 -4 -8 -24 -12 -44 -7 -35 -6 -36 27 -43 90 -18 108
-26 108 -45 0 -23 -20 -35 -109 -65 -63 -21 -66 -23 -78 -65 -7 -24 -11 -46
-8 -48 5 -5 157 47 170 59 14 14 35 11 35 -6 0 -8 13 -29 28 -46 21 -24 38
-32 75 -36 42 -5 49 -3 75 25 29 30 54 103 68 189 6 40 5 42 -22 49 -16 3 -90
21 -164 39 -191 46 -188 46 -193 37z"/>
<path d="M1906 4762 c-27 -3 -28 -5 -22 -40 4 -20 10 -56 13 -78 5 -41 5 -41
-31 -48 -46 -9 -52 -5 -60 41 -12 64 -16 73 -39 73 -43 0 -48 -11 -36 -73 7
-32 9 -60 6 -63 -3 -3 -21 -9 -41 -14 -39 -9 -36 -14 -56 77 -12 51 -12 52
-43 46 -18 -3 -33 -7 -35 -8 -5 -5 40 -209 47 -218 6 -6 333 61 377 77 12 4
-30 215 -44 226 -4 3 -20 4 -36 2z"/>
<path d="M9202 4400 l-40 -120 38 -30 38 -30 -21 -65 -21 -65 -42 0 c-47 0
-63 -13 -70 -62 l-6 -34 169 3 c92 2 187 6 210 9 39 5 42 8 57 52 13 37 14 48
4 57 -7 7 -76 60 -153 120 -165 127 -168 130 -136 122 15 -4 29 -1 35 8 16 21
252 -55 248 -79 -3 -17 42 -41 58 -31 5 3 16 30 25 60 8 30 18 61 21 68 3 10
-5 18 -25 25 -25 9 -32 8 -39 -5 -8 -13 -24 -10 -128 23 -82 27 -119 44 -119
54 0 17 -9 24 -41 34 -20 6 -25 -3 -62 -114z"/>
<path d="M1825 4419 c-44 -16 -99 -36 -122 -45 l-43 -16 16 -36 c8 -20 17 -38
19 -40 3 -3 57 14 120 37 64 23 130 43 147 43 58 2 91 -79 50 -120 -10 -10
-73 -38 -140 -62 -67 -24 -122 -49 -122 -56 0 -13 21 -74 25 -74 14 0 236 85
265 101 73 41 92 127 49 215 -43 90 -121 105 -264 53z"/>
<path d="M2060 4084 c-47 -25 -124 -66 -172 -90 l-88 -44 17 -35 c9 -19 21
-35 27 -35 6 1 58 25 116 55 57 30 106 52 108 50 3 -2 -29 -64 -71 -137 l-75
-132 20 -41 c11 -22 21 -41 23 -43 4 -4 355 179 355 186 0 4 -9 21 -19 39
l-20 32 -116 -61 c-64 -33 -118 -58 -120 -56 -2 2 32 66 75 142 l79 140 -20
38 c-11 21 -23 38 -27 38 -4 0 -45 -21 -92 -46z"/>
<path d="M8972 3767 c-11 -14 -62 -114 -62 -121 0 -3 13 -12 29 -20 26 -14 30
-14 35 0 9 23 232 -98 229 -124 -1 -12 8 -24 24 -31 23 -11 29 -10 41 6 18 24
64 114 60 118 -22 18 -51 25 -63 15 -21 -17 -237 98 -231 123 6 23 -47 53 -62
34z"/>
<path d="M2213 3607 l-132 -161 27 -48 c18 -31 32 -46 42 -43 8 2 98 20 200
41 102 20 188 38 192 41 5 2 -2 22 -15 44 -23 41 -20 40 -91 23 -20 -5 -28 2
-61 55 l-37 61 31 35 30 35 -20 35 c-12 19 -24 37 -28 39 -3 3 -66 -68 -138
-157z"/>
<path d="M8840 3569 c-26 -35 -36 -25 105 -114 52 -33 94 -63 94 -67 1 -5 -72
-8 -161 -8 l-163 0 -23 -36 c-13 -20 -20 -39 -15 -43 28 -23 324 -213 326
-210 2 2 13 18 25 35 l22 32 -113 73 -112 74 162 3 163 2 25 37 c13 21 21 40
17 44 -18 17 -314 209 -322 209 -5 0 -18 -14 -30 -31z"/>
<path d="M2428 3267 l-157 -111 34 -45 c18 -25 40 -47 48 -49 8 -2 77 15 152
37 126 36 135 37 118 18 -18 -21 -140 -188 -157 -215 -8 -13 60 -115 74 -110
4 2 77 52 163 113 146 102 156 111 143 129 -29 45 -39 43 -147 -35 -139 -100
-139 -100 -98 -44 152 212 151 212 133 240 -9 14 -24 25 -34 25 -9 0 -77 -18
-151 -39 -74 -22 -135 -38 -137 -37 -1 2 51 40 117 86 l119 83 -21 33 c-12 19
-26 33 -32 33 -5 0 -81 -50 -167 -112z"/>
<path d="M8617 3206 c-51 -15 -101 -57 -133 -112 l-27 -45 23 -25 c13 -13 27
-24 32 -24 4 0 17 18 28 40 51 101 171 104 230 8 36 -60 16 -135 -47 -174 -15
-10 -30 -19 -32 -21 -8 -6 42 -53 56 -53 8 0 34 21 58 46 88 90 93 198 14 288
-59 67 -132 93 -202 72z"/>
<path d="M8205 2638 c-30 -17 -44 -40 -45 -71 -1 -97 129 -129 166 -41 33 79
-48 154 -121 112z"/>
<path d="M3075 2585 c-54 -53 -16 -145 58 -145 52 0 87 32 87 81 0 80 -90 120
-145 64z"/>
<path d="M7875 2430 c-97 -46 -133 -123 -86 -181 18 -22 26 -24 94 -21 44 1
78 -2 82 -8 20 -32 -36 -80 -95 -80 -34 0 -34 0 -18 -35 13 -30 36 -32 86 -6
63 32 102 79 102 123 0 43 -27 78 -62 79 -130 4 -133 4 -136 21 -4 23 32 57
68 65 32 6 37 19 18 46 -12 15 -16 15 -53 -3z"/>
<path d="M3486 2400 c-95 -29 -139 -167 -81 -253 14 -20 30 -37 35 -37 4 0 16
-23 25 -50 19 -58 55 -104 96 -126 33 -17 44 -13 52 16 4 15 -2 24 -23 35 -31
16 -60 51 -60 72 0 7 12 13 28 13 15 0 41 9 59 20 78 47 98 186 37 251 -30 32
-97 69 -124 68 -8 0 -28 -5 -44 -9z m87 -72 c48 -25 59 -70 33 -133 -25 -59
-88 -74 -131 -30 -41 40 -27 122 27 159 27 19 42 20 71 4z"/>
<path d="M7613 2279 l-72 -40 18 -47 c46 -116 94 -228 100 -234 9 -10 165 76
168 93 2 8 -1 21 -7 29 -8 13 -17 11 -60 -12 -27 -16 -52 -28 -54 -28 -6 0
-29 60 -25 64 2 2 23 13 47 25 39 20 41 23 31 44 -7 12 -13 23 -14 25 -2 2
-22 -6 -45 -18 -45 -23 -55 -20 -65 21 -6 22 -2 28 35 44 22 10 43 22 46 27 6
9 -13 48 -24 48 -4 0 -39 -19 -79 -41z"/>
<path d="M3741 2174 c-61 -141 -53 -202 30 -244 67 -35 125 -28 157 18 20 28
82 185 82 206 0 10 -39 36 -54 36 -2 0 -20 -42 -40 -94 -20 -51 -45 -101 -56
-111 -32 -29 -90 3 -90 50 0 13 16 60 35 105 19 45 35 88 35 96 0 13 -29 34
-48 34 -5 0 -28 -43 -51 -96z"/>
<path d="M7427 2188 c-16 -12 -15 -19 18 -107 19 -52 34 -95 32 -97 -1 -1 -44
29 -96 67 -90 68 -94 70 -127 59 -19 -7 -34 -17 -34 -23 0 -24 92 -287 100
-287 5 0 20 4 34 10 l25 9 -34 101 c-18 55 -31 100 -28 100 3 0 22 -13 42 -28
20 -16 63 -47 96 -69 58 -39 62 -40 93 -27 18 7 32 19 31 26 -2 33 -106 273
-119 276 -9 1 -23 -3 -33 -10z"/>
<path d="M4031 1984 c-29 -80 -51 -147 -49 -149 2 -2 43 -19 91 -38 l88 -36 9
25 c6 14 10 27 10 28 0 2 -25 14 -55 26 -59 24 -60 25 -45 64 l9 25 46 -17
c40 -15 47 -15 55 -2 17 27 10 38 -36 56 -41 16 -45 20 -39 43 10 39 18 43 58
26 54 -22 69 -20 65 11 -2 21 -15 30 -73 55 -38 16 -72 29 -76 29 -3 0 -30
-66 -58 -146z"/>
<path d="M7103 2053 c-47 -16 -56 -41 -24 -64 25 -18 76 -186 62 -203 -9 -10
-5 -56 4 -56 14 0 115 45 115 51 0 18 -13 39 -25 39 -18 0 -78 192 -63 201 13
8 1 49 -15 48 -7 0 -31 -7 -54 -16z"/>
<path d="M4287 2044 c-4 -4 -7 -17 -7 -30 0 -19 11 -26 65 -44 36 -12 65 -23
65 -24 0 -2 -47 -36 -105 -77 -101 -71 -130 -104 -106 -118 19 -12 232 -84
236 -80 2 2 6 16 10 30 6 25 3 26 -72 48 -75 22 -77 23 -57 39 11 10 60 47
107 85 55 42 87 74 87 86 0 16 -19 26 -97 52 -54 17 -103 34 -109 36 -5 2 -13
0 -17 -3z"/>
<path d="M6884 1979 l-61 -20 36 -149 c20 -82 39 -151 42 -154 3 -4 20 -1 36
5 l31 10 -14 52 c-7 28 -12 52 -11 52 1 1 20 8 42 16 83 31 111 134 50 186
-32 28 -68 28 -151 2z"/>
<path d="M4606 1930 c-65 -20 -106 -85 -106 -168 0 -88 68 -152 160 -152 84 0
136 53 146 148 12 112 -95 204 -200 172z m104 -80 c43 -43 19 -162 -35 -176
-36 -9 -81 13 -95 47 -15 36 -6 89 21 123 26 33 79 36 109 6z"/>
<path d="M6615 1906 c-27 -7 -50 -16 -50 -22 0 -44 51 -297 60 -300 6 -3 23 0
38 5 24 9 26 14 20 43 -13 63 -10 70 32 84 22 8 51 26 64 41 20 23 22 34 18
77 -8 83 -55 102 -182 72z"/>
<path d="M4885 1868 c-2 -7 -15 -76 -28 -153 -25 -147 -24 -155 20 -155 23 0
25 4 43 125 6 38 13 71 15 73 2 2 10 -11 18 -29 58 -137 91 -198 110 -203 52
-14 53 -13 66 107 6 61 14 133 18 160 l6 47 -31 0 c-36 0 -38 -6 -48 -108 -4
-40 -10 -75 -14 -77 -5 -3 -29 44 -56 104 -34 80 -53 111 -68 115 -33 9 -46 7
-51 -6z"/>
<path d="M6465 1875 c-5 -2 -22 -6 -37 -9 -21 -5 -28 -12 -28 -31 0 -15 6 -25
14 -25 16 0 52 -203 36 -208 -6 -2 -10 -15 -10 -29 0 -25 1 -25 52 -19 28 4
55 9 60 12 14 9 9 54 -6 54 -15 0 -18 9 -37 129 -9 57 -9 75 1 81 31 19 -8 58
-45 45z"/>
<path d="M6220 1834 c-14 -4 -14 -22 1 -162 10 -86 18 -158 18 -158 1 -1 38 5
84 12 45 8 85 14 90 14 8 0 10 44 2 52 -3 3 -29 1 -57 -3 -29 -5 -53 -7 -54
-6 -2 1 -8 43 -14 92 -21 178 -18 173 -70 159z"/>
<path d="M6047 1814 c-13 -13 -8 -54 7 -54 18 0 34 -202 17 -208 -6 -2 -11
-15 -11 -28 0 -24 2 -25 58 -22 54 3 57 4 60 31 2 18 -1 27 -11 27 -10 0 -16
19 -20 68 -10 98 -8 142 4 142 6 0 9 10 7 23 -3 19 -10 22 -53 25 -28 2 -54 0
-58 -4z"/>
<path d="M5930 1745 l0 -65 -65 0 -65 0 0 60 0 60 -35 0 -36 0 3 -157 3 -158
39 -3 39 -3 -6 64 -6 65 62 4 c34 2 64 2 66 1 3 -2 7 -30 9 -63 l4 -60 35 0
35 0 -6 133 c-10 181 -11 187 -47 187 l-29 0 0 -65z"/>
<path d="M5456 1648 c-8 -162 -6 -168 42 -168 18 0 22 5 22 33 0 60 10 77 41
77 42 0 95 25 109 50 16 31 17 84 1 113 -19 36 -52 47 -135 47 l-73 0 -7 -152z"/>
</g>
</svg>
