<?xml version="1.0" standalone="no"?>
<!DOCTYPE svg PUBLIC "-//W3C//DTD SVG 20010904//EN"
 "http://www.w3.org/TR/2001/REC-SVG-20010904/DTD/svg10.dtd">
<svg version="1.0" xmlns="http://www.w3.org/2000/svg"
 width="512.000000pt" height="512.000000pt" viewBox="0 0 512.000000 512.000000"
 preserveAspectRatio="xMidYMid meet">
<metadata>
Created by potrace 1.16, written by Peter Selinger 2001-2019
</metadata>
<g transform="translate(0.000000,512.000000) scale(0.100000,-0.100000)"
fill="#000000" stroke="none">
<path d="M759 5097 c-59 -39 -69 -73 -69 -234 l0 -143 -119 0 c-138 0 -210
-18 -306 -75 -115 -69 -197 -172 -242 -304 l-22 -66 -1 -1911 c0 -1872 0
-1913 20 -1975 53 -174 184 -306 359 -366 l66 -22 2115 0 2115 0 66 22 c175
60 306 192 359 366 20 62 20 103 20 1975 l-1 1911 -22 66 c-61 180 -196 309
-376 363 -37 11 -93 16 -173 16 l-118 0 0 143 c0 115 -3 149 -18 177 -54 108
-220 108 -274 0 -15 -28 -18 -62 -18 -177 l0 -143 -189 0 -190 0 -3 160 -3
160 -37 37 c-34 34 -43 37 -100 41 -50 2 -70 -1 -95 -17 -57 -36 -67 -69 -71
-233 l-4 -148 -184 0 -184 0 0 138 c0 113 -4 144 -20 179 -48 107 -207 114
-270 11 -18 -29 -20 -51 -20 -180 l0 -148 -190 0 -190 0 0 148 c0 165 -9 193
-72 232 -44 27 -122 27 -166 0 -57 -35 -72 -84 -72 -242 l0 -138 -184 0 -184
0 -4 148 c-4 166 -13 195 -73 232 -50 31 -142 25 -181 -11 -49 -45 -54 -67
-54 -224 l0 -145 -190 0 -190 0 0 143 c0 115 -3 149 -18 177 -26 52 -74 80
-137 80 -37 0 -62 -6 -86 -23z m-69 -819 c0 -162 10 -196 69 -235 73 -49 184
-21 223 57 15 28 18 62 18 178 l0 142 190 0 190 0 0 -145 c0 -157 5 -179 54
-224 39 -36 131 -42 181 -11 60 37 69 66 73 233 l4 147 184 0 184 0 0 -137 c0
-114 4 -145 20 -180 48 -107 207 -114 270 -11 18 29 20 51 20 181 l0 147 190
0 190 0 0 -147 c0 -166 9 -194 72 -233 44 -27 122 -27 166 0 57 35 72 84 72
243 l0 137 184 0 184 0 4 -147 c4 -167 13 -196 73 -233 30 -18 47 -22 96 -18
53 4 64 9 97 41 l37 37 3 160 3 160 190 0 189 0 0 -142 c0 -116 3 -150 18
-178 54 -108 220 -108 274 0 15 29 18 62 18 179 l0 144 100 -6 c143 -9 207
-44 258 -142 26 -49 26 -53 30 -302 l4 -253 -2262 0 -2262 0 4 253 c3 241 5
254 27 297 56 109 129 146 294 149 l67 1 0 -142z m4128 -2320 c-3 -1407 -4
-1464 -22 -1498 -34 -64 -63 -95 -117 -125 l-54 -30 -2065 0 -2065 0 -50 27
c-59 31 -84 57 -116 118 l-24 45 -3 1463 -2 1462 2260 0 2260 0 -2 -1462z"/>
<path d="M1760 2710 c-410 -165 -760 -307 -778 -316 -47 -25 -72 -71 -72 -134
0 -63 25 -109 72 -134 18 -9 166 -70 328 -134 l295 -118 5 -360 5 -359 28 -56
c118 -242 466 -389 917 -389 451 0 799 147 917 389 l28 56 5 359 5 360 195 78
c107 43 196 78 197 78 2 0 3 -163 3 -362 0 -339 1 -365 19 -392 31 -46 69 -66
131 -66 62 0 100 20 131 66 18 27 19 56 19 534 0 475 -1 507 -19 533 -10 15
-27 34 -38 42 -10 7 -363 151 -784 319 -662 265 -771 306 -814 305 -41 -1
-183 -54 -795 -299z m1337 -232 c293 -117 533 -215 533 -218 0 -3 -241 -101
-535 -218 l-535 -214 -535 214 c-294 117 -535 215 -535 218 0 5 1048 427 1065
429 5 1 249 -95 542 -211z m-882 -848 c229 -92 310 -120 345 -120 35 0 116 28
345 120 165 66 301 120 303 120 1 0 2 -114 0 -253 l-3 -254 -26 -34 c-85 -110
-346 -190 -619 -190 -273 0 -534 80 -619 190 l-26 34 -3 254 c-2 139 -1 253 0
253 2 0 138 -54 303 -120z"/>
</g>
</svg>
